<svg xmlns="http://www.w3.org/2000/svg" xmlns:xlink="http://www.w3.org/1999/xlink" viewBox="0 0 400 250" width="{{width}}" height="{{height}}">
	<defs>
		<style>.cls-1{fill:none}.cls-2{fill:{{hsl-b5}}}.cls-3{clip-path:url(#clip-path)}.cls-4{opacity:.2}.cls-5{opacity:.8}.cls-6{fill:#fff}.cls-7{fill:#3e3a39}.cls-8{fill:#fa7298}.cls-9{fill:#ff66ab}.cls-10{opacity:.9}.cls-11{opacity:.85}.cls-12{clip-path:url(#clip-path-2)}</style>
		<clipPath id="clip-path">
			<path class="cls-1" d="M390.072.136h-380a10.029,10.029,0,0,0-10,10v55h400v-55A10.029,10.029,0,0,0,390.072.136Z" />
		</clipPath>
		<clipPath id="clip-path-2">
			<path class="avatar_clip" d="M56,55H24a4.012,4.012,0,0,1-4-4V19a4.012,4.012,0,0,1,4-4H56a4.012,4.012,0,0,1,4,4V51A4.012,4.012,0,0,1,56,55Z" />
		</clipPath>
		<style>
			@keyframes fadeDown {
				0%{
					opacity: 0;
					transform: translateY(-10px);
				}
				100%{
					opacity: 1;
					transform: translateY(0);
				}
			}
			@keyframes fade {
				0% {
					opacity: 0;
				}
				100% {
					opacity: 1;
				}
			}	
			#fg.animation-enabled .animated {
				opacity: 0;
				transform: translateY(-10px);
				animation: fadeDown .3s ease-in-out forwards;
			}
			#fg.animation-enabled .animated-fade {
				opacity: 0;
				animation: fade .3s ease-in-out forwards;
			}
			@keyframes ranking-switch {
				0% {
					opacity: 0;
				}
				5%, 45% {
					opacity: 1;
				}
				50%, 100% {
					opacity: 0;
				}
			}
			.display-group-global-ranking.ranking-display-cycle {
				animation: ranking-switch 10s ease-in-out infinite -0.5s;
			}
			.display-group-country-ranking.ranking-display-cycle {
				animation: ranking-switch 10s ease-in-out infinite -5.5s;
			}
			#fg.animation-enabled.ranking-display-cycle .display-group-global-ranking {
				animation: ranking-switch 10s ease-in-out infinite;
			}
			#fg.animation-enabled.ranking-display-cycle .display-group-country-ranking {
				animation: ranking-switch 10s ease-in-out infinite -5s;
			}
			#fg.ranking-display-global .display-group-country-ranking {
				display: none;
			}
			#fg.ranking-display-country .display-group-global-ranking {
				display: none;
			}
			@keyframes skill-bar {
				0% {
					opacity: 0;
					width: 12px;
				}
				100% {
					opacity: 1;
				}
			}
			.skill-bar-bg {
				fill: {{hsl-b6}};
			}
			.skill-bar-fg {
				fill: {{hsl-h1}};
			}
			#fg.animation-enabled .skill-bar-fg {
				opacity: 0;
				animation: skill-bar 0.8s ease-in-out forwards;
			}
		</style>
	</defs>
	<g id="bg">
		<rect class="cls-2" width="400" height="250" rx="10" />
		<g class="cls-3">
			<image class="cls-4" width="400" height="65" xlink:href="{{user-cover-base64}}" />
		</g>
	</g>
	<g id="fg" class="{{fg-extra-class}}">
		<g id="userinfo">
			<g id="avatar" class="animated" style="animation-delay: 250ms;">
				<g class="cls-12">
					<image width="256" height="256" transform="translate(20 15) scale(0.156)" xlink:href="{{avatar-base64}}" />
				</g>
			</g>
			<g id="name" class="animated" style="animation-delay: 280ms;">
				{{name}}
			</g>
			<g class="skill-tags animated" style="animation-delay: 310ms;">
				{{skill-tags}}
			</g>
			<g id="rank" class="animated" style="animation-delay: 340ms;">
				<g id="flag" class="display-group-country-ranking">
					{{flag}}
				</g>
				<g class="global-ranking display-group-global-ranking">
					{{global-ranking}}
				</g>
				<g class="country-ranking display-group-country-ranking">
					{{country-ranking}}
				</g>
				<g class="cls-11 display-group-global-ranking">
					<path class="cls-6" d="M304.687,27.51a4.071,4.071,0,0,1-1.66-.34,4.243,4.243,0,0,1-1.357-.947,4.522,4.522,0,0,1-.92-4.8,4.286,4.286,0,0,1,.909-1.4,4.352,4.352,0,0,1,1.358-.948,4.058,4.058,0,0,1,1.67-.344,4.238,4.238,0,0,1,1.434.23,4.084,4.084,0,0,1,1.248.733.273.273,0,0,1,.115.181.332.332,0,0,1-.027.2.282.282,0,0,1-.131.137.2.2,0,0,1-.11.131.359.359,0,0,1-.2.033.426.426,0,0,1-.225-.1,2.907,2.907,0,0,0-.931-.554,3.476,3.476,0,0,0-1.171-.18,3.158,3.158,0,0,0-1.331.284,3.535,3.535,0,0,0-1.089.778,3.664,3.664,0,0,0-.74,1.139,3.55,3.55,0,0,0-.268,1.369,3.6,3.6,0,0,0,.268,1.39,3.664,3.664,0,0,0,.74,1.139,3.437,3.437,0,0,0,1.089.772,3.2,3.2,0,0,0,1.331.28,3.258,3.258,0,0,0,1.138-.2,3.8,3.8,0,0,0,1.019-.569.346.346,0,0,1,.279-.088.453.453,0,0,1,.258.132.389.389,0,0,1,.109.285.553.553,0,0,1-.022.158.365.365,0,0,1-.1.148,3.22,3.22,0,0,1-1.248.728A4.834,4.834,0,0,1,304.687,27.51Zm2.8-1.248-.832-.176v-2.2h-1.709a.438.438,0,0,1-.306-.109.354.354,0,0,1-.121-.274.336.336,0,0,1,.121-.268.454.454,0,0,1,.306-.1h2.113a.422.422,0,0,1,.307.115.394.394,0,0,1,.121.3Z" />
					<path class="cls-6" d="M310.468,27.4a1.333,1.333,0,0,1-.782-.24,1.587,1.587,0,0,1-.538-.668,2.4,2.4,0,0,1-.191-.986V19.264a.416.416,0,1,1,.832,0v6.242a1.391,1.391,0,0,0,.191.766.566.566,0,0,0,.488.3h.274a.328.328,0,0,1,.263.115.451.451,0,0,1,.1.3.378.378,0,0,1-.137.3.54.54,0,0,1-.357.114Z" />
					<path class="cls-6" d="M314.662,27.455a3.094,3.094,0,0,1-1.565-.394,2.857,2.857,0,0,1-1.084-1.084,3.324,3.324,0,0,1,0-3.143A2.857,2.857,0,0,1,313.1,21.75a3.3,3.3,0,0,1,3.126,0,2.879,2.879,0,0,1,1.079,1.084,3.221,3.221,0,0,1,.4,1.577,3.071,3.071,0,0,1-.4,1.566,2.921,2.921,0,0,1-1.084,1.084A3.069,3.069,0,0,1,314.662,27.455Zm0-.767a2.2,2.2,0,0,0,1.139-.295,2.11,2.11,0,0,0,.789-.81,2.389,2.389,0,0,0,.284-1.172,2.42,2.42,0,0,0-.284-1.177,2.1,2.1,0,0,0-.789-.816,2.339,2.339,0,0,0-2.278,0,2.139,2.139,0,0,0-.794.816,2.379,2.379,0,0,0-.29,1.177,2.35,2.35,0,0,0,.29,1.172,2.152,2.152,0,0,0,.794.81A2.21,2.21,0,0,0,314.662,26.688Z" />
					<path class="cls-6" d="M322.382,27.455a3.02,3.02,0,0,1-1.538-.394,2.923,2.923,0,0,1-1.084-1.079,3.065,3.065,0,0,1-.411-1.538V19.275a.4.4,0,0,1,.427-.427.406.406,0,0,1,.3.115.425.425,0,0,1,.115.312V22.5a2.635,2.635,0,0,1,.958-.827,2.827,2.827,0,0,1,1.33-.312,2.89,2.89,0,0,1,1.512.4,2.919,2.919,0,0,1,1.057,1.09,3.113,3.113,0,0,1,.389,1.555,3.071,3.071,0,0,1-.4,1.566,2.953,2.953,0,0,1-1.09,1.09A3.071,3.071,0,0,1,322.382,27.455Zm0-.767a2.162,2.162,0,0,0,1.932-1.116,2.494,2.494,0,0,0,0-2.338,2.13,2.13,0,0,0-.793-.816,2.318,2.318,0,0,0-2.267,0,2.082,2.082,0,0,0-.788.816,2.54,2.54,0,0,0,0,2.338,2.137,2.137,0,0,0,.788.816A2.163,2.163,0,0,0,322.382,26.688Z" />
					<path class="cls-6" d="M329.73,27.455a2.874,2.874,0,0,1-2.568-1.489,3.113,3.113,0,0,1-.389-1.555,3.062,3.062,0,0,1,.4-1.566,2.946,2.946,0,0,1,1.09-1.09,3.218,3.218,0,0,1,3.1,0,2.959,2.959,0,0,1,1.084,1.09,3.149,3.149,0,0,1,.411,1.566l-.34.263a2.762,2.762,0,0,1-.367,1.418,2.7,2.7,0,0,1-1,1A2.782,2.782,0,0,1,329.73,27.455Zm.087-.767a2.179,2.179,0,0,0,1.134-.295,2.139,2.139,0,0,0,.788-.816,2.5,2.5,0,0,0,0-2.338,2.2,2.2,0,0,0-.788-.816,2.275,2.275,0,0,0-2.262,0,2.238,2.238,0,0,0-.8.816,2.456,2.456,0,0,0,0,2.338,2.16,2.16,0,0,0,1.926,1.111Zm2.618.712a.429.429,0,0,1-.307-.114.4.4,0,0,1-.12-.3V25.112l.208-.865.646.164v2.573a.4.4,0,0,1-.121.3A.426.426,0,0,1,332.435,27.4Z" />
					<path class="cls-6" d="M335.8,27.4a1.333,1.333,0,0,1-.782-.24,1.577,1.577,0,0,1-.537-.668,2.386,2.386,0,0,1-.192-.986V19.264a.416.416,0,1,1,.832,0v6.242a1.383,1.383,0,0,0,.192.766.566.566,0,0,0,.487.3h.274a.326.326,0,0,1,.263.115.451.451,0,0,1,.1.3.378.378,0,0,1-.137.3.54.54,0,0,1-.357.114Z" />
					<path class="cls-6" d="M341.338,27.4a.412.412,0,0,1-.428-.427v-7.7a.414.414,0,0,1,.428-.427h2.048a2.966,2.966,0,0,1,1.423.334,2.481,2.481,0,0,1,.98.931,2.634,2.634,0,0,1,.356,1.374,2.448,2.448,0,0,1-1.336,2.234,3.01,3.01,0,0,1-1.423.328h-1.621v2.924a.415.415,0,0,1-.12.307A.42.42,0,0,1,341.338,27.4Zm.427-4.172h1.621a2.124,2.124,0,0,0,.99-.224,1.753,1.753,0,0,0,.685-.619,1.631,1.631,0,0,0,.251-.9,1.737,1.737,0,0,0-.936-1.588,2.078,2.078,0,0,0-.99-.23h-1.621Zm4.15,4.172a.407.407,0,0,1-.225-.054.51.51,0,0,1-.147-.165l-2.1-3.35.854-.22,1.96,3.132a.443.443,0,0,1,.06.46A.409.409,0,0,1,345.915,27.4Z" />
					<path class="cls-6" d="M350.208,27.455a2.871,2.871,0,0,1-2.568-1.489,3.113,3.113,0,0,1-.389-1.555,3.071,3.071,0,0,1,.4-1.566,2.953,2.953,0,0,1,1.09-1.09,3.051,3.051,0,0,1,1.555-.4,3.02,3.02,0,0,1,1.55.4,2.967,2.967,0,0,1,1.084,1.09,3.16,3.16,0,0,1,.411,1.566l-.34.263a2.762,2.762,0,0,1-.367,1.418,2.7,2.7,0,0,1-1,1A2.785,2.785,0,0,1,350.208,27.455Zm.087-.767a2.179,2.179,0,0,0,1.134-.295,2.146,2.146,0,0,0,.788-.816,2.5,2.5,0,0,0,0-2.338,2.212,2.212,0,0,0-.788-.816,2.275,2.275,0,0,0-2.262,0,2.233,2.233,0,0,0-.8.816,2.456,2.456,0,0,0,0,2.338,2.163,2.163,0,0,0,1.927,1.111Zm2.617.712a.43.43,0,0,1-.307-.114.4.4,0,0,1-.12-.3V25.112l.208-.865.647.164v2.573a.4.4,0,0,1-.121.3A.429.429,0,0,1,352.912,27.4Z" />
					<path class="cls-6" d="M355.409,27.4a.422.422,0,0,1-.312-.114.409.409,0,0,1-.116-.3V21.837a.4.4,0,0,1,.428-.426.41.41,0,0,1,.3.114.425.425,0,0,1,.115.312v5.147a.393.393,0,0,1-.416.416Zm4.708,0a.414.414,0,0,1-.306-.12.4.4,0,0,1-.121-.3V24.137a2.188,2.188,0,0,0-.257-1.117,1.644,1.644,0,0,0-.7-.657,2.382,2.382,0,0,0-1.971-.011,1.724,1.724,0,0,0-.684.57,1.4,1.4,0,0,0-.252.821h-.6a2.355,2.355,0,0,1,.372-1.232,2.49,2.49,0,0,1,.93-.854,2.686,2.686,0,0,1,1.292-.312,2.946,2.946,0,0,1,1.392.323,2.379,2.379,0,0,1,.969.947,3.033,3.033,0,0,1,.355,1.522v2.847a.41.41,0,0,1-.416.416Z" />
					<path class="cls-6" d="M362.811,27.4a.393.393,0,0,1-.416-.416v-7.72a.416.416,0,1,1,.832,0v7.72a.393.393,0,0,1-.416.416Zm.274-2-.515-.558,3.745-3.384a.349.349,0,0,1,.537.022.391.391,0,0,1,.115.279.348.348,0,0,1-.137.258Zm3.777,1.95a.389.389,0,0,1-.3.1.382.382,0,0,1-.262-.159l-2.442-3,.591-.526,2.464,3.033a.363.363,0,0,1-.055.548Z" />
					<path class="cls-6" d="M369.25,20.271a.565.565,0,0,1-.416-.175.581.581,0,0,1-.176-.427.548.548,0,0,1,.181-.432.62.62,0,0,1,.422-.159.6.6,0,0,1,.41.159.545.545,0,0,1,.181.432.6.6,0,0,1-.6.6Zm.011,7.129a.394.394,0,0,1-.427-.427V21.837a.394.394,0,0,1,.427-.426.41.41,0,0,1,.3.114.421.421,0,0,1,.115.312v5.136a.424.424,0,0,1-.115.313A.41.41,0,0,1,369.261,27.4Z" />
					<path class="cls-6" d="M372.25,27.4a.422.422,0,0,1-.312-.114.405.405,0,0,1-.116-.3V21.837a.4.4,0,0,1,.428-.426.41.41,0,0,1,.3.114.425.425,0,0,1,.115.312v5.147a.393.393,0,0,1-.416.416Zm4.708,0a.417.417,0,0,1-.307-.12.4.4,0,0,1-.12-.3V24.137a2.178,2.178,0,0,0-.258-1.117,1.636,1.636,0,0,0-.7-.657,2.382,2.382,0,0,0-1.971-.011,1.717,1.717,0,0,0-.684.57,1.4,1.4,0,0,0-.252.821h-.6a2.365,2.365,0,0,1,.373-1.232,2.483,2.483,0,0,1,.93-.854,2.686,2.686,0,0,1,1.292-.312,2.946,2.946,0,0,1,1.392.323,2.379,2.379,0,0,1,.969.947,3.033,3.033,0,0,1,.355,1.522v2.847a.41.41,0,0,1-.416.416Z" />
					<path class="cls-6" d="M381.876,27.455a2.982,2.982,0,0,1-1.533-.389,2.746,2.746,0,0,1-1.046-1.078,3.229,3.229,0,0,1-.378-1.577,3.152,3.152,0,0,1,.394-1.588,2.828,2.828,0,0,1,1.084-1.078,3.357,3.357,0,0,1,3.137,0,2.779,2.779,0,0,1,1.073,1.078,3.261,3.261,0,0,1,.4,1.588l-.493.263a2.991,2.991,0,0,1-.34,1.44,2.5,2.5,0,0,1-.936.985A2.612,2.612,0,0,1,381.876,27.455Zm.109,2.311a3.412,3.412,0,0,1-1.522-.323,3.022,3.022,0,0,1-1.084-.882.359.359,0,0,1-.105-.285.349.349,0,0,1,.16-.252.406.406,0,0,1,.317-.065.43.43,0,0,1,.274.164,2.318,2.318,0,0,0,.816.635A2.617,2.617,0,0,0,382,29a2.085,2.085,0,0,0,1.889-1.128,2.61,2.61,0,0,0,.29-1.259V24.947l.318-.635.515.1v2.234a3.211,3.211,0,0,1-.395,1.593,2.975,2.975,0,0,1-1.073,1.117A2.944,2.944,0,0,1,381.985,29.766Zm-.022-3.078a2.224,2.224,0,0,0,1.144-.29,2.082,2.082,0,0,0,.784-.8,2.416,2.416,0,0,0,.284-1.183,2.444,2.444,0,0,0-.284-1.188,2.071,2.071,0,0,0-.784-.81,2.224,2.224,0,0,0-1.144-.291,2.257,2.257,0,0,0-1.15.291,2.054,2.054,0,0,0-.788.81,2.433,2.433,0,0,0-.285,1.188,2.4,2.4,0,0,0,.285,1.183,2.065,2.065,0,0,0,.788.8A2.256,2.256,0,0,0,381.963,26.688Z" />
				</g>
				<g class="cls-11 display-group-country-ranking">
					<path class="cls-6" d="M295.88,27.51a4.067,4.067,0,0,1-1.659-.34,4.248,4.248,0,0,1-1.358-.947,4.461,4.461,0,0,1-.914-1.4,4.583,4.583,0,0,1-.006-3.395,4.3,4.3,0,0,1,.909-1.4,4.352,4.352,0,0,1,1.358-.948,4.061,4.061,0,0,1,1.67-.344,4.229,4.229,0,0,1,1.434.23,4.1,4.1,0,0,1,1.249.733.285.285,0,0,1,.115.181.325.325,0,0,1-.028.2.278.278,0,0,1-.131.137.2.2,0,0,1-.109.131.365.365,0,0,1-.2.033.426.426,0,0,1-.225-.1,2.9,2.9,0,0,0-.93-.554,3.482,3.482,0,0,0-1.172-.18,3.151,3.151,0,0,0-1.33.284,3.552,3.552,0,0,0-1.09.778,3.661,3.661,0,0,0-.739,1.139,3.532,3.532,0,0,0-.268,1.369,3.583,3.583,0,0,0,.268,1.39,3.661,3.661,0,0,0,.739,1.139,3.452,3.452,0,0,0,1.09.772,3.194,3.194,0,0,0,1.33.28,3.267,3.267,0,0,0,1.139-.2,3.809,3.809,0,0,0,1.018-.569.347.347,0,0,1,.279-.088.453.453,0,0,1,.258.132.386.386,0,0,1,.11.285.44.44,0,0,1-.028.158.5.5,0,0,1-.093.148,3.231,3.231,0,0,1-1.249.728A4.834,4.834,0,0,1,295.88,27.51Z"/>
					<path class="cls-6" d="M302.659,27.455a3.1,3.1,0,0,1-1.566-.394,2.867,2.867,0,0,1-1.085-1.084,3.331,3.331,0,0,1,0-3.143,2.867,2.867,0,0,1,1.085-1.084,3.3,3.3,0,0,1,3.126,0,2.872,2.872,0,0,1,1.079,1.084,3.211,3.211,0,0,1,.4,1.577,3.081,3.081,0,0,1-.4,1.566,2.917,2.917,0,0,1-1.085,1.084A3.065,3.065,0,0,1,302.659,27.455Zm0-.767a2.21,2.21,0,0,0,1.139-.295,2.108,2.108,0,0,0,.788-.81,2.39,2.39,0,0,0,.285-1.172,2.42,2.42,0,0,0-.285-1.177,2.1,2.1,0,0,0-.788-.816,2.339,2.339,0,0,0-2.278,0,2.125,2.125,0,0,0-.794.816,2.369,2.369,0,0,0-.29,1.177,2.339,2.339,0,0,0,.29,1.172,2.137,2.137,0,0,0,.794.81A2.2,2.2,0,0,0,302.659,26.688Z"/>
					<path class="cls-6" d="M309.951,27.466a2.941,2.941,0,0,1-1.39-.323,2.361,2.361,0,0,1-.969-.947,3.022,3.022,0,0,1-.357-1.522V21.827a.411.411,0,0,1,.416-.416.417.417,0,0,1,.307.12.4.4,0,0,1,.121.3v2.847a2.188,2.188,0,0,0,.257,1.117,1.644,1.644,0,0,0,.7.657,2.235,2.235,0,0,0,1,.219,2.19,2.19,0,0,0,.969-.209,1.714,1.714,0,0,0,.684-.569,1.4,1.4,0,0,0,.252-.821h.6a2.494,2.494,0,0,1-.378,1.232,2.457,2.457,0,0,1-.926.854A2.683,2.683,0,0,1,309.951,27.466Zm2.409-.066a.406.406,0,0,1-.3-.114.42.42,0,0,1-.116-.313V21.827a.395.395,0,0,1,.416-.416.429.429,0,0,1,.307.114.4.4,0,0,1,.12.3v5.146a.415.415,0,0,1-.12.313A.429.429,0,0,1,312.36,27.4Z"/>
					<path class="cls-6" d="M315.186,27.4a.423.423,0,0,1-.312-.114.409.409,0,0,1-.115-.3V21.837a.4.4,0,0,1,.427-.426.41.41,0,0,1,.3.114.425.425,0,0,1,.115.312v5.147a.393.393,0,0,1-.416.416Zm4.709,0a.417.417,0,0,1-.307-.12.4.4,0,0,1-.12-.3V24.137a2.178,2.178,0,0,0-.258-1.117,1.65,1.65,0,0,0-.7-.657,2.382,2.382,0,0,0-1.971-.011,1.724,1.724,0,0,0-.684.57,1.4,1.4,0,0,0-.252.821H315a2.373,2.373,0,0,1,.372-1.232,2.486,2.486,0,0,1,.931-.854,2.68,2.68,0,0,1,1.292-.312,2.938,2.938,0,0,1,1.39.323,2.364,2.364,0,0,1,.97.947,3.043,3.043,0,0,1,.356,1.522v2.847a.411.411,0,0,1-.416.416Z"/>
					<path class="cls-6" d="M321.788,22.363a.378.378,0,0,1-.273-.1A.337.337,0,0,1,321.4,22a.352.352,0,0,1,.11-.269.382.382,0,0,1,.273-.1h2.793a.382.382,0,0,1,.273.1.352.352,0,0,1,.11.269.337.337,0,0,1-.11.257.378.378,0,0,1-.273.1Zm2.728,5.037a1.944,1.944,0,0,1-1.753-1.024,2.216,2.216,0,0,1-.263-1.089V19.932a.431.431,0,0,1,.115-.307.4.4,0,0,1,.3-.12.412.412,0,0,1,.428.427v5.355a1.294,1.294,0,0,0,.328.914,1.1,1.1,0,0,0,.844.356h.295a.37.37,0,0,1,.285.121.436.436,0,0,1,.109.306.383.383,0,0,1-.132.3.48.48,0,0,1-.328.114Z"/>
					<path class="cls-6" d="M326.99,27.4a.38.38,0,0,1-.416-.416V21.827a.417.417,0,1,1,.832,0v5.157a.379.379,0,0,1-.416.416Zm-.065-3.69a2.548,2.548,0,0,1,.355-1.215,2.394,2.394,0,0,1,.844-.844,2.234,2.234,0,0,1,1.155-.306,1.736,1.736,0,0,1,.778.142.344.344,0,0,1,.208.416.324.324,0,0,1-.149.219.455.455,0,0,1-.251.044c-.1-.007-.21-.015-.334-.022a2.437,2.437,0,0,0-1.09.126,1.656,1.656,0,0,0-.755.553,1.431,1.431,0,0,0-.28.887Z"/>
					<path class="cls-6" d="M333.834,27.214a.4.4,0,0,1-.307.028.416.416,0,0,1-.229-.214l-2.443-5.059a.383.383,0,0,1-.021-.307.451.451,0,0,1,.525-.246.38.38,0,0,1,.219.213l2.4,5.059a.437.437,0,0,1,.054.307A.322.322,0,0,1,333.834,27.214Zm-1.216,2.793a.539.539,0,0,1-.2-.044.351.351,0,0,1-.208-.526l3.536-7.8a.36.36,0,0,1,.526-.2.34.34,0,0,1,.208.515l-3.547,7.8A.351.351,0,0,1,332.618,30.007Z"/>
					<path class="cls-6" d="M341.335,27.4a.411.411,0,0,1-.427-.427v-7.7a.412.412,0,0,1,.427-.427h2.048a2.973,2.973,0,0,1,1.424.334,2.479,2.479,0,0,1,.979.931,2.635,2.635,0,0,1,.357,1.374,2.453,2.453,0,0,1-1.336,2.234,3.017,3.017,0,0,1-1.424.328h-1.621v2.924a.411.411,0,0,1-.427.427Zm.427-4.172h1.621a2.131,2.131,0,0,0,.991-.224,1.757,1.757,0,0,0,.684-.619,1.631,1.631,0,0,0,.252-.9,1.741,1.741,0,0,0-.936-1.588,2.085,2.085,0,0,0-.991-.23h-1.621Zm4.15,4.172a.4.4,0,0,1-.224-.054.512.512,0,0,1-.148-.165l-2.1-3.35.853-.22,1.961,3.132a.448.448,0,0,1,.06.46A.411.411,0,0,1,345.912,27.4Z"/>
					<path class="cls-6" d="M350.205,27.455a2.871,2.871,0,0,1-2.568-1.489,3.113,3.113,0,0,1-.389-1.555,3.071,3.071,0,0,1,.4-1.566,2.943,2.943,0,0,1,1.089-1.09,3.052,3.052,0,0,1,1.556-.4,3.019,3.019,0,0,1,1.549.4,2.967,2.967,0,0,1,1.084,1.09,3.16,3.16,0,0,1,.411,1.566l-.34.263a2.771,2.771,0,0,1-.366,1.418,2.714,2.714,0,0,1-1,1A2.785,2.785,0,0,1,350.205,27.455Zm.088-.767a2.178,2.178,0,0,0,1.133-.295,2.139,2.139,0,0,0,.788-.816,2.494,2.494,0,0,0,0-2.338,2.2,2.2,0,0,0-.788-.816,2.273,2.273,0,0,0-2.261,0,2.236,2.236,0,0,0-.8.816,2.456,2.456,0,0,0,0,2.338,2.166,2.166,0,0,0,1.928,1.111Zm2.617.712a.425.425,0,0,1-.306-.114.4.4,0,0,1-.122-.3V25.112l.208-.865.647.164v2.573a.4.4,0,0,1-.12.3A.43.43,0,0,1,352.91,27.4Z"/>
					<path class="cls-6" d="M355.406,27.4a.423.423,0,0,1-.312-.114.413.413,0,0,1-.115-.3V21.837a.4.4,0,0,1,.427-.426.408.408,0,0,1,.3.114.421.421,0,0,1,.115.312v5.147a.393.393,0,0,1-.416.416Zm4.708,0a.412.412,0,0,1-.3-.12.4.4,0,0,1-.121-.3V24.137a2.188,2.188,0,0,0-.257-1.117,1.652,1.652,0,0,0-.7-.657,2.379,2.379,0,0,0-1.97-.011,1.727,1.727,0,0,0-.685.57,1.4,1.4,0,0,0-.252.821h-.6a2.355,2.355,0,0,1,.372-1.232,2.493,2.493,0,0,1,.931-.854,2.686,2.686,0,0,1,1.292-.312,2.945,2.945,0,0,1,1.391.323,2.373,2.373,0,0,1,.969.947,3.033,3.033,0,0,1,.356,1.522v2.847a.412.412,0,0,1-.417.416Z"/>
					<path class="cls-6" d="M362.809,27.4a.393.393,0,0,1-.416-.416v-7.72a.416.416,0,1,1,.832,0v7.72a.395.395,0,0,1-.416.416Zm.273-2-.515-.558,3.745-3.384a.385.385,0,0,1,.275-.115.38.38,0,0,1,.263.137.386.386,0,0,1,.114.279.342.342,0,0,1-.137.258Zm3.778,1.95a.389.389,0,0,1-.3.1.38.38,0,0,1-.262-.159l-2.442-3,.591-.526,2.464,3.033a.385.385,0,0,1,.1.279A.392.392,0,0,1,366.86,27.346Z"/>
					<path class="cls-6" d="M369.247,20.271a.569.569,0,0,1-.416-.175.584.584,0,0,1-.175-.427.548.548,0,0,1,.181-.432.618.618,0,0,1,.422-.159.6.6,0,0,1,.41.159.545.545,0,0,1,.181.432.6.6,0,0,1-.6.6Zm.012,7.129a.4.4,0,0,1-.428-.427V21.837a.4.4,0,0,1,.428-.426.41.41,0,0,1,.3.114.421.421,0,0,1,.115.312v5.136a.424.424,0,0,1-.115.313A.41.41,0,0,1,369.259,27.4Z"/>
					<path class="cls-6" d="M372.248,27.4a.423.423,0,0,1-.312-.114.409.409,0,0,1-.116-.3V21.837a.4.4,0,0,1,.428-.426.408.408,0,0,1,.3.114.421.421,0,0,1,.115.312v5.147a.393.393,0,0,1-.416.416Zm4.708,0a.414.414,0,0,1-.306-.12.4.4,0,0,1-.121-.3V24.137a2.188,2.188,0,0,0-.257-1.117,1.644,1.644,0,0,0-.7-.657,2.379,2.379,0,0,0-1.97-.011,1.727,1.727,0,0,0-.685.57,1.4,1.4,0,0,0-.252.821h-.6a2.355,2.355,0,0,1,.372-1.232,2.493,2.493,0,0,1,.931-.854,2.686,2.686,0,0,1,1.292-.312,2.945,2.945,0,0,1,1.391.323,2.379,2.379,0,0,1,.969.947,3.033,3.033,0,0,1,.356,1.522v2.847a.412.412,0,0,1-.417.416Z"/>
					<path class="cls-6" d="M381.873,27.455a2.982,2.982,0,0,1-1.533-.389,2.753,2.753,0,0,1-1.046-1.078,3.229,3.229,0,0,1-.378-1.577,3.142,3.142,0,0,1,.395-1.588,2.814,2.814,0,0,1,1.084-1.078,3.357,3.357,0,0,1,3.137,0,2.793,2.793,0,0,1,1.073,1.078,3.272,3.272,0,0,1,.4,1.588l-.493.263a3,3,0,0,1-.339,1.44,2.511,2.511,0,0,1-.937.985A2.612,2.612,0,0,1,381.873,27.455Zm.109,2.311a3.412,3.412,0,0,1-1.522-.323,3.022,3.022,0,0,1-1.084-.882.355.355,0,0,1-.1-.285.344.344,0,0,1,.159-.252.406.406,0,0,1,.317-.065.427.427,0,0,1,.274.164,2.327,2.327,0,0,0,.816.635,2.62,2.62,0,0,0,1.155.241,2.083,2.083,0,0,0,1.889-1.128,2.61,2.61,0,0,0,.291-1.259V24.947l.317-.635.515.1v2.234a3.211,3.211,0,0,1-.395,1.593,2.922,2.922,0,0,1-2.628,1.528Zm-.021-3.078a2.22,2.22,0,0,0,1.143-.29,2.068,2.068,0,0,0,.784-.8,2.416,2.416,0,0,0,.285-1.183,2.444,2.444,0,0,0-.285-1.188,2.058,2.058,0,0,0-.784-.81,2.221,2.221,0,0,0-1.143-.291,2.252,2.252,0,0,0-1.15.291,2.05,2.05,0,0,0-.789.81,2.433,2.433,0,0,0-.285,1.188,2.4,2.4,0,0,0,.285,1.183,2.06,2.06,0,0,0,.789.8A2.251,2.251,0,0,0,381.961,26.688Z"/>
				</g>
			</g>
		</g>
		{{no-skill-data-text}}
		<g id="skills">
			{{skills-bar-chart}}
		</g>
	</g>
</svg>