<svg xmlns="http://www.w3.org/2000/svg" xmlns:xlink="http://www.w3.org/1999/xlink" viewBox="0 0 400 250" width="{{width}}" height="{{height}}">
	<defs>
		<style>.cls-1{fill:none}.cls-2{fill:{{hsl-b5}}}.cls-3{clip-path:url(#clip-path)}.cls-4{opacity:.2}.cls-5{opacity:.8}.cls-6{fill:#fff}.cls-7{fill:#3e3a39}.cls-8{fill:#fa7298}.cls-9{fill:#ff66ab}.cls-10{opacity:.9}.cls-11{opacity:.85}.cls-12{clip-path:url(#clip-path-2)}</style>
		<clipPath id="clip-path">
			<path class="cls-1" d="M390.072.136h-380a10.029,10.029,0,0,0-10,10v55h400v-55A10.029,10.029,0,0,0,390.072.136Z" />
		</clipPath>
		<clipPath id="clip-path-2">
			<path class="avatar_clip" d="M56,55H24a4.012,4.012,0,0,1-4-4V19a4.012,4.012,0,0,1,4-4H56a4.012,4.012,0,0,1,4,4V51A4.012,4.012,0,0,1,56,55Z" />
		</clipPath>
		<style>
			@keyframes fadeDown {
				0%{
					opacity: 0;
					transform: translateY(-10px);
				}
				100%{
					opacity: 1;
					transform: translateY(0);
				}
			}
			@keyframes fade {
				0% {
					opacity: 0;
				}
				100% {
					opacity: 1;
				}
			}	
			#fg.animation-enabled .animated {
				opacity: 0;
				transform: translateY(-10px);
				animation: fadeDown .3s ease-in-out forwards;
			}
			#fg.animation-enabled .animated-fade {
				opacity: 0;
				animation: fade .3s ease-in-out forwards;
			}
			@keyframes ranking-switch {
				0% {
					opacity: 0;
				}
				5%, 45% {
					opacity: 1;
				}
				50%, 100% {
					opacity: 0;
				}
			}
			#fg.ranking-display-cycle .display-group-global-ranking {
				animation: ranking-switch 10s ease-in-out infinite -0.5s;
			}
			#fg.ranking-display-cycle .display-group-country-ranking {
				animation: ranking-switch 10s ease-in-out infinite -5.5s;
			}
			#fg.animation-enabled.ranking-display-cycle .display-group-global-ranking {
				animation: ranking-switch 10s ease-in-out infinite;
			}
			#fg.animation-enabled.ranking-display-cycle .display-group-country-ranking {
				animation: ranking-switch 10s ease-in-out infinite -5s;
			}
			#fg.ranking-display-global .display-group-country-ranking {
				display: none;
			}
			#fg.ranking-display-country .display-group-global-ranking {
				display: none;
			}
			@keyframes skill-bar {
				0% {
					opacity: 0;
					width: 12px;
				}
				100% {
					opacity: 1;
				}
			}
			.skill-bar-bg {
				fill: {{hsl-b6}};
			}
			.skill-bar-fg {
				fill: {{hsl-h1}};
			}
			#fg.animation-enabled .skill-bar-fg {
				opacity: 0;
				animation: skill-bar 0.8s ease-in-out forwards;
			}
		</style>
	</defs>
	<g id="bg">
		<rect class="cls-2" width="400" height="250" rx="10" />
		<g class="cls-3">
			<image class="cls-4" width="400" height="65" xlink:href="{{user-cover-base64}}" />
		</g>
	</g>
	<g id="fg" class="{{fg-extra-class}}">
		<g id="userinfo">
			<g id="avatar" class="animated" style="animation-delay: 250ms;">
				<g class="cls-12">
					<image width="256" height="256" transform="translate(20 15) scale(0.156)" xlink:href="{{avatar-base64}}" />
				</g>
			</g>
			<g id="name" class="animated" style="animation-delay: 280ms;">
				{{name}}
			</g>
			<g class="skill-tags animated" style="animation-delay: 310ms;">
				{{skill-tags}}
			</g>
			<g id="rank" class="animated" style="animation-delay: 340ms;">
				<g id="flag" class="display-group-country-ranking">
					{{flag}}
				</g>
				<g class="global-ranking display-group-global-ranking">
					{{global-ranking}}
				</g>
				<g class="country-ranking display-group-country-ranking">
					{{country-ranking}}
				</g>
				<g class="cls-11 display-group-global-ranking">
					<path class="cls-6" d="M347.7,22.985v1.7h2.948v.723H347.7v1.786h4.241v.745h-9.258v-.745h4.184V25.406h-2.815v-.723h2.815v-1.7h-2.881v-.712a11.719,11.719,0,0,1-1.282.745,2.918,2.918,0,0,0-.569-.668,12.44,12.44,0,0,0,5.072-4.229l.724.329c-.067.1-.132.2-.2.3a15.645,15.645,0,0,0,4.732,3.627,2.447,2.447,0,0,0-.569.69c-.428-.263-.844-.515-1.249-.789v.712Zm2.914-.734a16.583,16.583,0,0,1-3.33-2.914,14.124,14.124,0,0,1-3.265,2.914Z"/>
					<path class="cls-6" d="M356.838,25.987c-1.216.384-2.509.789-3.494,1.117l-.176-.788c.394-.11.888-.252,1.436-.417V22.875h-1.217V22.12H354.6V19.742h-1.316v-.766h3.342v.766h-1.26V22.12h1.107v.755H355.37v2.794l1.348-.427Zm6.224-4.1a24.48,24.48,0,0,1-1.907,2.355,6.251,6.251,0,0,0,2.235,2.6,1.858,1.858,0,0,0-.515.613,6.915,6.915,0,0,1-2.531-3.3v3.067c0,.493-.131.723-.427.855a4.29,4.29,0,0,1-1.665.175,3.338,3.338,0,0,0-.3-.789c.635.022,1.193.011,1.358.011s.242-.066.242-.252V24.64c-.9.909-1.83,1.807-2.576,2.508l-.5-.7c.745-.614,1.95-1.687,3.079-2.706V20.893H356.9v-.756h2.652v-1.9h.788v1.9h2.871v.756h-2.871v.394a13.47,13.47,0,0,0,.537,2.29,16.067,16.067,0,0,0,1.468-2.071Zm-5.37-.318a8.69,8.69,0,0,1,1.195,2.027l-.668.318a9.282,9.282,0,0,0-1.161-2.049Zm4.471-1.578a6.357,6.357,0,0,0-1.293-1.2l.471-.427a7.72,7.72,0,0,1,1.314,1.139Z"/>
					<path class="cls-6" d="M367.811,23.774c-.439.121-.877.252-1.3.384v3.056c0,.45-.1.658-.373.778a3.2,3.2,0,0,1-1.348.154,3.4,3.4,0,0,0-.24-.746c.449.011.865.011.985.011.143,0,.187-.043.187-.186V24.388l-1.348.4-.164-.811c.416-.1.942-.23,1.512-.394V21.2h-1.381v-.766h1.381V18.241h.789v2.192h1.161V21.2h-1.161v2.17l1.194-.34Zm1.917-5.456h.789v9.915h-.789v-2.87h-1.852v-.745h1.852V23.084h-1.589v-.723h1.589V20.838h-1.622V20.1h1.622Zm4.459,7.078h-1.9v2.848h-.777V18.307h.777v1.8h1.786v.734h-1.786v1.523h1.677v.723h-1.677V24.65h1.9Z"/>
					<path class="cls-6" d="M383.933,28.233H383.1v-.569h-4.865v.569h-.8V24.628a18.518,18.518,0,0,1-1.82.526,2.275,2.275,0,0,0-.416-.744,15.309,15.309,0,0,0,4.032-1.447,19.635,19.635,0,0,0-1.666-1.347l.615-.471a21.262,21.262,0,0,1,1.807,1.38,8.815,8.815,0,0,0,2.684-2.454h-4.054a11.059,11.059,0,0,1-2.6,1.851,2.733,2.733,0,0,0-.559-.613,9,9,0,0,0,3.659-3.111l.91.2a8.752,8.752,0,0,1-.713.931H383.2l.131-.044.548.34a9.929,9.929,0,0,1-4.294,4.053h4.35Zm-.833-1.315V24.431h-4.865v2.487Z"/>
				</g>
				<g class="cls-11 display-group-country-ranking">
					<path class="cls-6" d="M325.636,18.734v9.51h-.844V27.7h-7.329v.548h-.811v-9.51Zm-.844,8.206V19.49h-7.329v7.45Zm-.635-1.7v.69h-5.97v-.69h2.519V23.4h-2.06v-.7h2.06V21.145H318.34v-.734h5.6v.734h-2.465V22.7h2.191v.7h-2.191v1.841ZM322.678,23.6a6.808,6.808,0,0,1,1.106,1.194l-.558.329a7.323,7.323,0,0,0-1.063-1.238Z"/>
					<path class="cls-6" d="M336.478,27.159c0,.526-.122.789-.494.921a7.3,7.3,0,0,1-2.038.142,3.054,3.054,0,0,0-.273-.822c.766.033,1.512.033,1.741.022.2-.011.264-.076.264-.274V20.9H332.5a7.416,7.416,0,0,1-.2,1.424,32.632,32.632,0,0,1,3.09,3.046l-.668.525a27.389,27.389,0,0,0-2.663-2.793,5.847,5.847,0,0,1-2.663,2.936,3.411,3.411,0,0,0-.58-.614,4.929,4.929,0,0,0,2.87-4.524h-3.155v7.351h-.8V20.1H331.7V18.23h.811V20.1h3.967Z"/>
					<path class="cls-6" d="M340.975,18.7h.722l-3.275,10.659h-.734Z"/>
					<path class="cls-6" d="M352.246,27.137v.779h-9.291V18.833h9.017v.778h-8.217v7.526Zm-1.95-.766a26.849,26.849,0,0,0-2.345-2.466A17.024,17.024,0,0,1,345,26.371a4.808,4.808,0,0,0-.647-.6,15.268,15.268,0,0,0,3.025-2.41c-.888-.822-1.82-1.644-2.674-2.345l.57-.482c.832.668,1.764,1.468,2.64,2.257a15.358,15.358,0,0,0,1.929-2.651l.756.306a18.609,18.609,0,0,1-2.1,2.871,28.179,28.179,0,0,1,2.443,2.476Z"/>
					<path class="cls-6" d="M362.671,27.159c0,.526-.121.789-.493.921a7.306,7.306,0,0,1-2.038.142,3.093,3.093,0,0,0-.274-.822c.767.033,1.512.033,1.741.022.2-.011.264-.076.264-.274V20.9h-3.178a7.416,7.416,0,0,1-.2,1.424,32.632,32.632,0,0,1,3.09,3.046l-.668.525a27.279,27.279,0,0,0-2.663-2.793,5.84,5.84,0,0,1-2.662,2.936,3.447,3.447,0,0,0-.58-.614,4.931,4.931,0,0,0,2.87-4.524h-3.155v7.351h-.8V20.1h3.966V18.23h.81V20.1h3.967Z"/>
					<path class="cls-6" d="M367.869,23.774c-.437.121-.876.252-1.3.384v3.056c0,.45-.1.658-.372.778a3.19,3.19,0,0,1-1.347.154,3.517,3.517,0,0,0-.242-.746c.45.011.866.011.987.011.142,0,.186-.043.186-.186V24.388l-1.347.4-.165-.811c.417-.1.942-.23,1.512-.394V21.2H364.4v-.766h1.381V18.241h.788v2.192h1.162V21.2h-1.162v2.17l1.195-.34Zm1.918-5.456h.788v9.915h-.788v-2.87h-1.851v-.745h1.851V23.084H368.2v-.723h1.589V20.838h-1.622V20.1h1.622Zm4.459,7.078h-1.895v2.848h-.779V18.307h.779v1.8h1.785v.734h-1.785v1.523h1.675v.723h-1.675V24.65h1.895Z"/>
					<path class="cls-6" d="M383.991,28.233h-.833v-.569h-4.864v.569h-.8V24.628a18.562,18.562,0,0,1-1.818.526,2.315,2.315,0,0,0-.417-.744,15.322,15.322,0,0,0,4.032-1.447,19.8,19.8,0,0,0-1.666-1.347l.614-.471a21.279,21.279,0,0,1,1.808,1.38,8.8,8.8,0,0,0,2.683-2.454h-4.053a11.08,11.08,0,0,1-2.6,1.851,2.737,2.737,0,0,0-.56-.613,9.019,9.019,0,0,0,3.661-3.111l.909.2a8.752,8.752,0,0,1-.713.931h3.879l.132-.044.547.34a9.929,9.929,0,0,1-4.294,4.053h4.349Zm-.833-1.315V24.431h-4.864v2.487Z"/>
				</g>
			</g>
		</g>
		{{no-skill-data-text}}
		<g id="skills">
			{{skills-bar-chart}}
		</g>
	</g>
</svg>