<svg xmlns="http://www.w3.org/2000/svg" xmlns:xlink="http://www.w3.org/1999/xlink" viewBox="0 0 550 320" width="{{width}}" height="{{height}}">
	<defs>
		<style>.cls-1{fill:#de31ae;}.cls-2{fill:#02b5c3;}.cls-3{fill:#88da20;}.cls-4,.cls-41{fill:none;}.cls-5{fill:{{hsl-b5}};}.cls-6{fill:{{hsl-b4}};}.cls-7{clip-path:url(#clip-path);}.cls-8{opacity:0.2;}.cls-9{fill:#fff;}.cls-10{fill:{{hsl-h1}};}.cls-11{fill:#b3d944;}.cls-12{fill:#ed1221;}.cls-13{clip-path:url(#clip-path-2);}.cls-14{fill:#ce1c9d;}.cls-15,.cls-22{fill:#5e244e;}.cls-15,.cls-26{fill-opacity:0.5;}.cls-16{mask:url(#mask);}.cls-17{fill:#c30b90;}.cls-18{fill:#be0089;}.cls-19{fill:url(#gradient_2);}.cls-20{clip-path:url(#clip-path-3);}.cls-21{mask:url(#mask-2);}.cls-23{fill:url(#gradient_3);}.cls-24{clip-path:url(#clip-path-4);}.cls-25{fill:#00a8b5;}.cls-26{fill:#095056;}.cls-27{mask:url(#mask-3);}.cls-28{fill:#009daa;}.cls-29{fill:#0096a2;}.cls-30{fill:url(#gradient_2-2);}.cls-31{clip-path:url(#clip-path-5);}.cls-32{mask:url(#mask-4);}.cls-33{fill:url(#gradient_3-2);}.cls-34{clip-path:url(#clip-path-6);}.cls-35{fill:#7cce14;}.cls-36{mask:url(#mask-5);}.cls-37{fill:#72c904;}.cls-38{fill:#69bb00;}.cls-39{fill:#275227;}.cls-40{fill:{{hsl-b6}};}.cls-41{stroke:#fc2;stroke-miterlimit:10;}.cls-42{fill:#75aadb;}.cls-43{fill:#141414;}.cls-44{fill:#eee;}.cls-45{clip-path:url(#clip-path-7);outline:1px solid transparent;}.cls-46{opacity:0.8;}.cls-47{stroke:{{hsl-f1}};fill: none;}.cls-48{stroke: {{hsl-h1}};fill: {{hsl-h1}}66;}.cls-49{stroke: #fff5;stroke-dasharray:2 3;}</style>
		<clipPath id="clip-path">
			<rect xmlns="http://www.w3.org/2000/svg" y="0" width="550" height="50" rx="8"/>
			<rect xmlns="http://www.w3.org/2000/svg" y="10" width="550" height="110" rx="0"/>
		</clipPath>
		<clipPath id="clip-path-2" transform="translate(0 2)">
			<rect id="SVGID" class="cls-4" x="345" y="126.061" width="32" height="16" />
		</clipPath>
		<mask id="mask" x="343.679" y="119.061" width="35.316" height="30" maskUnits="userSpaceOnUse">
			<g transform="translate(0 2)">
				<g id="mask0">
					<path class="cls-1" d="M353,126.061h16a8,8,0,0,1,8,8h0a8,8,0,0,1-8,8H353a8,8,0,0,1-8-8h0A8,8,0,0,1,353,126.061Z" />
				</g>
			</g>
		</mask>
		<linearGradient id="gradient_2" x1="361.09" y1="273.859" x2="361.09" y2="259.939" gradientTransform="matrix(1, 0, 0, -1, 0, 402)" gradientUnits="userSpaceOnUse">
			<stop offset="0" stop-color="#fff" />
			<stop offset="1" stop-color="#aadff0" />
		</linearGradient>
		<clipPath id="clip-path-3" transform="translate(0 2)">
			<rect id="SVGID-2" data-name="SVGID" class="cls-4" x="383.598" y="126.061" width="32" height="16" />
		</clipPath>
		<mask id="mask-2" x="382.277" y="119.061" width="35.316" height="30" maskUnits="userSpaceOnUse">
			<g transform="translate(0 2)">
				<g id="mask0-2" data-name="mask0">
					<path class="cls-1" d="M391.6,126.061h16a8,8,0,0,1,8,8h0a8,8,0,0,1-8,8h-16a8,8,0,0,1-8-8h0A8,8,0,0,1,391.6,126.061Z" />
				</g>
			</g>
		</mask>
		<linearGradient id="gradient_3" x1="399.688" y1="273.859" x2="399.688" y2="259.939" gradientTransform="matrix(1, 0, 0, -1, 0, 402)" gradientUnits="userSpaceOnUse">
			<stop offset="0" stop-color="#ffe7a8" />
			<stop offset="1" stop-color="#ffb800" />
		</linearGradient>
		<clipPath id="clip-path-4" transform="translate(0 2)">
			<rect id="SVGID-3" data-name="SVGID" class="cls-4" x="422.195" y="126.061" width="32" height="16" />
		</clipPath>
		<mask id="mask-3" x="420.875" y="119.061" width="35.316" height="30" maskUnits="userSpaceOnUse">
			<g transform="translate(0 2)">
				<g id="mask0-3" data-name="mask0">
					<path class="cls-2" d="M430.2,126.061h16a8,8,0,0,1,8,8h0a8,8,0,0,1-8,8h-16a8,8,0,0,1-8-8h0A8,8,0,0,1,430.2,126.061Z" />
				</g>
			</g>
		</mask>
		<linearGradient id="gradient_2-2" x1="438.286" y1="273.859" x2="438.286" y2="259.939" xlink:href="#gradient_2" />
		<clipPath id="clip-path-5" transform="translate(0 2)">
			<rect id="SVGID-4" data-name="SVGID" class="cls-4" x="460.793" y="126.061" width="32" height="16" />
		</clipPath>
		<mask id="mask-4" x="459.472" y="119.061" width="35.316" height="30" maskUnits="userSpaceOnUse">
			<g transform="translate(0 2)">
				<g id="mask0-4" data-name="mask0">
					<path class="cls-2" d="M468.793,126.061h16a8,8,0,0,1,8,8h0a8,8,0,0,1-8,8h-16a8,8,0,0,1-8-8h0A8,8,0,0,1,468.793,126.061Z" />
				</g>
			</g>
		</mask>
		<linearGradient id="gradient_3-2" x1="476.883" y1="273.859" x2="476.883" y2="259.939" xlink:href="#gradient_3" />
		<clipPath id="clip-path-6" transform="translate(0 2)">
			<rect id="SVGID-5" data-name="SVGID" class="cls-4" x="499.39" y="126.061" width="32" height="16" />
		</clipPath>
		<mask id="mask-5" x="498.07" y="119.061" width="35.316" height="30" maskUnits="userSpaceOnUse">
			<g transform="translate(0 2)">
				<g id="mask0-5" data-name="mask0">
					<path class="cls-3" d="M507.39,126.061h16a8,8,0,0,1,8,8h0a8,8,0,0,1-8,8h-16a8,8,0,0,1-8-8h0A8,8,0,0,1,507.39,126.061Z" />
				</g>
			</g>
		</mask>
		<clipPath id="clip-path-7" transform="translate(0 2)">
			<path id="avatar_clip" class="cls-4" d="M101,103H24a4.012,4.012,0,0,1-4-4V22a4.012,4.012,0,0,1,4-4h77a4.012,4.012,0,0,1,4,4V99A4.012,4.012,0,0,1,101,103Z" />
		</clipPath>
		<style>
			@keyframes fadeDown{
				0%{
					opacity: 0;
					transform: translateY(-10px);
				}
				100%{
					opacity: 1;
					transform: translateY(0);
				}
			}
			@keyframes levelBar{
				0%{
					opacity: 0;
					transform: scaleX(0) translate(0, 2px);
				}
				100%{
					opacity: 1;
					transform: scaleX(1) translate(0, 2px);
				}
			}
			@keyframes radarChart{
				0% {
					transform: scale(0.2);
					opacity: 0;
				}
				100% {
					transform: scale(1);
					opacity: 1;
				}
			}
			@keyframes fade{
				0% {
					opacity: 0;
				}
				100% {
					opacity: 1;
				}
			}
			#fg.animation-enabled .animated{
				opacity: 0;
				transform: translateY(-10px);
				animation: fadeDown .3s ease-in-out forwards;
			}
			#fg.animation-enabled #barfg > path{
				opacity: 0;
				transform-origin: 20px 0px;
				transform: scaleX(0);
				animation-delay: 380ms !important;
				animation: levelBar 1s ease-out forwards;
			}
			#fg.animation-enabled .animated-radar{
				opacity: 0;
				transform-origin: 118px 268px;
				animation: radarChart .3s ease-out forwards;
			}
			#fg.animation-enabled .animated-fade{
				opacity: 0;
				animation: fade .3s ease-in-out forwards;
			}

			@keyframes skills-stats-switch {
				0% {
					opacity: 0;
				}
				5%, 45% {
					opacity: 1;
				}
				50%, 100% {
					opacity: 0;
				}
			}
			#fg.cycle-skills-stats #count {
				animation: skills-stats-switch 10s ease-in-out infinite -0.5s;
			}
			#fg.cycle-skills-stats #skills {
				animation: skills-stats-switch 10s ease-in-out infinite -5.5s;
			}
			#fg.animation-enabled.cycle-skills-stats #count {
				animation: skills-stats-switch 10s ease-in-out infinite;
			}
			#fg.animation-enabled.cycle-skills-stats #skills {
				animation: skills-stats-switch 10s ease-in-out infinite -5s;
			}
		</style>
	</defs>
	<g id="bg">
		<rect class="cls-5" y="0" width="550" height="320" rx="8" />
		<rect class="cls-6" y="120" width="550" height="43.785" />
		<g id="head">
			<g class="cls-7">
				<image class="cls-8" width="550" height="120" xlink:href="{{user-cover-base64}}" />
			</g>
		</g>
	</g>
	<g id="fg" class="{{fg-extra-class}}">
		<g id="userinfo" class="animated">
			<g id="avatar" class="animated" style="animation-delay: 250ms;">
				<g class="cls-45">
					<image width="256" height="256" transform="translate(20 20) scale(0.332)" xlink:href="{{avatar-base64}}" />
				</g>
			</g>
			<g id="name" class="animated" style="animation-delay: 280ms;">
				{{name}}{{supporter-tag}}
			</g>
			<g id="country" class="animated" style="animation-delay: 310ms;">
				<g id="flag">
					{{flag}}
				</g>
				{{country}}
			</g>
			<g id="mode" class="animated" style="animation-delay: 340ms;">
				{{playmode-icon}}
				{{playmode}}
			</g>
		</g>
		<g id="details">
			<g id="stats">
				<g id="level" class="animated" style="animation-delay: 380ms;">
					<g id="barbg">
						<path class="cls-40" d="M20,135a2.5,2.5,0,0,0,2.5,2.5h235a2.5,2.5,0,0,0,0-5H22.5A2.5,2.5,0,0,0,20,135Z" transform="translate(0 2)" />
					</g>
					<g id="barfg">
						{{level-bar-fg}}
					</g>
					{{level-percent}}
					{{level}}
					<path class="cls-41" d="M291.732,126.541a3.842,3.842,0,0,0-3.464,0l-9.057,5.23a3.843,3.843,0,0,0-1.733,3v10.458a3.843,3.843,0,0,0,1.733,3l9.057,5.23a3.842,3.842,0,0,0,3.464,0l9.057-5.23a3.843,3.843,0,0,0,1.733-3V134.771a3.843,3.843,0,0,0-1.733-3Z" transform="translate(0 2)" />
				</g>
				<g id="grades">
					<g id="ssh-count" class="animated" style="animation-delay: 410ms;">
						{{ssh-count}}
						<g class="cls-13">
							<path class="cls-14" d="M353,126.061h16a8,8,0,0,1,8,8h0a8,8,0,0,1-8,8H353a8,8,0,0,1-8-8h0A8,8,0,0,1,353,126.061Z" transform="translate(0 2)" />
							<path class="cls-15" d="M350.339,137.5v1.639h7.668c2.47,0,3.417-1.05,3.417-2.535,0-1.766-1.331-2.419-3.392-2.585L354,133.7c-1.433-.116-1.766-.372-1.766-.858,0-.589.486-.819,1.344-.819h7.283v-1.639h-7.117c-1.805,0-3.366.653-3.366,2.509,0,1.613,1.177,2.317,3.148,2.471l4.237.332c1.255.1,1.779.4,1.779.986,0,.487-.345.819-1.42.819Zm10.418,0v1.639h7.667c2.47,0,3.418-1.05,3.418-2.535,0-1.766-1.332-2.419-3.392-2.585l-4.032-.32c-1.434-.116-1.767-.372-1.767-.858,0-.589.487-.819,1.344-.819h7.283v-1.639h-7.116c-1.8,0-3.367.653-3.367,2.509,0,1.613,1.178,2.317,3.149,2.471l4.237.332c1.254.1,1.779.4,1.779.986,0,.487-.346.819-1.421.819Z" transform="translate(0 2)" />
							<g class="cls-16">
								<path class="cls-1" d="M361,117.061l17.32,30H343.679Z" transform="translate(0 2)" />
								<path class="cls-17" d="M372.5,129.061l6.5,11.25h-12.99Z" transform="translate(0 2)" />
								<path class="cls-18" d="M352.5,124.061l3.9,6.75H348.6Z" transform="translate(0 2)" />
								<path class="cls-18" d="M354.5,139.061l3.9,6.75H350.6Z" transform="translate(0 2)" />
							</g>
							<path class="cls-15" d="M350.339,137.5v1.639h7.668c2.47,0,3.417-1.05,3.417-2.535,0-1.766-1.331-2.419-3.392-2.585L354,133.7c-1.433-.116-1.766-.372-1.766-.858,0-.589.486-.819,1.344-.819h7.283v-1.639h-7.117c-1.805,0-3.366.653-3.366,2.509,0,1.613,1.177,2.317,3.148,2.471l4.237.332c1.255.1,1.779.4,1.779.986,0,.487-.345.819-1.42.819Zm10.418,0v1.639h7.667c2.47,0,3.418-1.05,3.418-2.535,0-1.766-1.332-2.419-3.392-2.585l-4.032-.32c-1.434-.116-1.767-.372-1.767-.858,0-.589.487-.819,1.344-.819h7.283v-1.639h-7.116c-1.8,0-3.367.653-3.367,2.509,0,1.613,1.178,2.317,3.149,2.471l4.237.332c1.254.1,1.779.4,1.779.986,0,.487-.346.819-1.421.819Z" transform="translate(0 2)" />
							<path class="cls-19" d="M350.339,136.5v1.639h7.668c2.47,0,3.417-1.05,3.417-2.535,0-1.766-1.331-2.419-3.392-2.585L354,132.7c-1.433-.116-1.766-.372-1.766-.858,0-.589.486-.819,1.344-.819h7.283v-1.639h-7.117c-1.805,0-3.366.653-3.366,2.509,0,1.613,1.177,2.317,3.148,2.471l4.237.332c1.255.1,1.779.4,1.779.986,0,.487-.345.819-1.42.819Zm10.418,0v1.639h7.667c2.47,0,3.418-1.05,3.418-2.535,0-1.766-1.332-2.419-3.392-2.585l-4.032-.32c-1.434-.116-1.767-.372-1.767-.858,0-.589.487-.819,1.344-.819h7.283v-1.639h-7.116c-1.8,0-3.367.653-3.367,2.509,0,1.613,1.178,2.317,3.149,2.471l4.237.332c1.254.1,1.779.4,1.779.986,0,.487-.346.819-1.421.819Z" transform="translate(0 2)" />
						</g>
					</g>
					<g id="ss-count" class="animated" style="animation-delay: 440ms;">
						{{ss-count}}
						<g class="cls-20">
							<path class="cls-14" d="M391.6,126.061h16a8,8,0,0,1,8,8h0a8,8,0,0,1-8,8h-16a8,8,0,0,1-8-8h0A8,8,0,0,1,391.6,126.061Z" transform="translate(0 2)" />
							<path class="cls-15" d="M388.937,137.5v1.639H396.6c2.47,0,3.418-1.05,3.418-2.535,0-1.766-1.332-2.419-3.392-2.585l-4.032-.32c-1.434-.116-1.767-.372-1.767-.858,0-.589.487-.819,1.344-.819h7.283v-1.639h-7.116c-1.805,0-3.367.653-3.367,2.509,0,1.613,1.178,2.317,3.149,2.471l4.237.332c1.254.1,1.779.4,1.779.986,0,.487-.346.819-1.421.819Zm10.417,0v1.639h7.668c2.47,0,3.417-1.05,3.417-2.535,0-1.766-1.331-2.419-3.392-2.585l-4.032-.32c-1.433-.116-1.766-.372-1.766-.858,0-.589.486-.819,1.344-.819h7.283v-1.639h-7.117c-1.805,0-3.366.653-3.366,2.509,0,1.613,1.177,2.317,3.149,2.471l4.236.332c1.255.1,1.78.4,1.78.986,0,.487-.346.819-1.421.819Z" transform="translate(0 2)" />
							<g class="cls-21">
								<path class="cls-1" d="M399.6,117.061l17.32,30H382.277Z" transform="translate(0 2)" />
								<path class="cls-17" d="M411.1,129.061l6.5,11.25H404.6Z" transform="translate(0 2)" />
								<path class="cls-18" d="M391.1,124.061l3.9,6.75h-7.8Z" transform="translate(0 2)" />
								<path class="cls-18" d="M393.1,139.061l3.9,6.75h-7.8Z" transform="translate(0 2)" />
							</g>
							<path class="cls-15" d="M388.937,137.5v1.639H396.6c2.47,0,3.418-1.05,3.418-2.535,0-1.766-1.332-2.419-3.392-2.585l-4.032-.32c-1.434-.116-1.767-.372-1.767-.858,0-.589.487-.819,1.344-.819h7.283v-1.639h-7.116c-1.805,0-3.367.653-3.367,2.509,0,1.613,1.178,2.317,3.149,2.471l4.237.332c1.254.1,1.779.4,1.779.986,0,.487-.346.819-1.421.819Zm10.417,0v1.639h7.668c2.47,0,3.417-1.05,3.417-2.535,0-1.766-1.331-2.419-3.392-2.585l-4.032-.32c-1.433-.116-1.766-.372-1.766-.858,0-.589.486-.819,1.344-.819h7.283v-1.639h-7.117c-1.805,0-3.366.653-3.366,2.509,0,1.613,1.177,2.317,3.149,2.471l4.236.332c1.255.1,1.78.4,1.78.986,0,.487-.346.819-1.421.819Z" transform="translate(0 2)" />
							<path class="cls-22" d="M388.937,136.5v1.639H396.6c2.47,0,3.418-1.05,3.418-2.535,0-1.766-1.332-2.419-3.392-2.585l-4.032-.32c-1.434-.116-1.767-.372-1.767-.858,0-.589.487-.819,1.344-.819h7.283v-1.639h-7.116c-1.805,0-3.367.653-3.367,2.509,0,1.613,1.178,2.317,3.149,2.471l4.237.332c1.254.1,1.779.4,1.779.986,0,.487-.346.819-1.421.819Zm10.417,0v1.639h7.668c2.47,0,3.417-1.05,3.417-2.535,0-1.766-1.331-2.419-3.392-2.585l-4.032-.32c-1.433-.116-1.766-.372-1.766-.858,0-.589.486-.819,1.344-.819h7.283v-1.639h-7.117c-1.805,0-3.366.653-3.366,2.509,0,1.613,1.177,2.317,3.149,2.471l4.236.332c1.255.1,1.78.4,1.78.986,0,.487-.346.819-1.421.819Z" transform="translate(0 2)" />
							<path class="cls-23" d="M388.937,136.5v1.639H396.6c2.47,0,3.418-1.05,3.418-2.535,0-1.766-1.332-2.419-3.392-2.585l-4.032-.32c-1.434-.116-1.767-.372-1.767-.858,0-.589.487-.819,1.344-.819h7.283v-1.639h-7.116c-1.805,0-3.367.653-3.367,2.509,0,1.613,1.178,2.317,3.149,2.471l4.237.332c1.254.1,1.779.4,1.779.986,0,.487-.346.819-1.421.819Zm10.417,0v1.639h7.668c2.47,0,3.417-1.05,3.417-2.535,0-1.766-1.331-2.419-3.392-2.585l-4.032-.32c-1.433-.116-1.766-.372-1.766-.858,0-.589.486-.819,1.344-.819h7.283v-1.639h-7.117c-1.805,0-3.366.653-3.366,2.509,0,1.613,1.177,2.317,3.149,2.471l4.236.332c1.255.1,1.78.4,1.78.986,0,.487-.346.819-1.421.819Z" transform="translate(0 2)" />
						</g>
					</g>
					<g id="sh-count" class="animated" style="animation-delay: 470ms;">
						{{sh-count}}
						<g class="cls-24">
							<path class="cls-25" d="M430.2,126.061h16a8,8,0,0,1,8,8h0a8,8,0,0,1-8,8h-16a8,8,0,0,1-8-8h0A8,8,0,0,1,430.2,126.061Z" transform="translate(0 2)" />
							<path class="cls-26" d="M432.743,137.5v1.639h7.667c2.471,0,3.418-1.05,3.418-2.535,0-1.766-1.331-2.419-3.392-2.585l-4.032-.32c-1.434-.116-1.767-.372-1.767-.858,0-.589.487-.819,1.344-.819h7.284v-1.639h-7.117c-1.805,0-3.367.653-3.367,2.509,0,1.613,1.178,2.317,3.149,2.471l4.237.332c1.255.1,1.779.4,1.779.986,0,.487-.345.819-1.42.819Z" transform="translate(0 2)" />
							<g class="cls-27">
								<path class="cls-2" d="M438.2,117.061l17.321,30H420.875Z" transform="translate(0 2)" />
								<path class="cls-28" d="M449.7,129.061l6.5,11.25H443.2Z" transform="translate(0 2)" />
								<path class="cls-29" d="M429.7,124.061l3.9,6.75H425.8Z" transform="translate(0 2)" />
								<path class="cls-29" d="M431.7,139.061l3.9,6.75H427.8Z" transform="translate(0 2)" />
							</g>
							<path class="cls-26" d="M432.743,137.5v1.639h7.667c2.471,0,3.418-1.05,3.418-2.535,0-1.766-1.331-2.419-3.392-2.585l-4.032-.32c-1.434-.116-1.767-.372-1.767-.858,0-.589.487-.819,1.344-.819h7.284v-1.639h-7.117c-1.805,0-3.367.653-3.367,2.509,0,1.613,1.178,2.317,3.149,2.471l4.237.332c1.255.1,1.779.4,1.779.986,0,.487-.345.819-1.42.819Z" transform="translate(0 2)" />
							<path class="cls-30" d="M432.743,136.5v1.639h7.667c2.471,0,3.418-1.05,3.418-2.535,0-1.766-1.331-2.419-3.392-2.585l-4.032-.32c-1.434-.116-1.767-.372-1.767-.858,0-.589.487-.819,1.344-.819h7.284v-1.639h-7.117c-1.805,0-3.367.653-3.367,2.509,0,1.613,1.178,2.317,3.149,2.471l4.237.332c1.255.1,1.779.4,1.779.986,0,.487-.345.819-1.42.819Z" transform="translate(0 2)" />
						</g>
					</g>
					<g id="s-count" class="animated" style="animation-delay: 500ms;">
						{{s-count}}
						<g class="cls-31">
							<path class="cls-25" d="M468.793,126.061h16a8,8,0,0,1,8,8h0a8,8,0,0,1-8,8h-16a8,8,0,0,1-8-8h0A8,8,0,0,1,468.793,126.061Z" transform="translate(0 2)" />
							<path class="cls-26" d="M471.341,137.5v1.639h7.667c2.47,0,3.418-1.05,3.418-2.535,0-1.766-1.332-2.419-3.392-2.585L475,133.7c-1.433-.116-1.766-.372-1.766-.858,0-.589.486-.819,1.344-.819h7.283v-1.639h-7.117c-1.8,0-3.366.653-3.366,2.509,0,1.613,1.178,2.317,3.149,2.471l4.237.332c1.254.1,1.779.4,1.779.986,0,.487-.346.819-1.421.819Z" transform="translate(0 2)" />
							<g class="cls-32">
								<path class="cls-2" d="M476.793,117.061l17.32,30H459.472Z" transform="translate(0 2)" />
								<path class="cls-28" d="M488.293,129.061l6.5,11.25H481.8Z" transform="translate(0 2)" />
								<path class="cls-29" d="M468.293,124.061l3.9,6.75H464.4Z" transform="translate(0 2)" />
								<path class="cls-29" d="M470.293,139.061l3.9,6.75H466.4Z" transform="translate(0 2)" />
							</g>
							<path class="cls-26" d="M471.341,137.5v1.639h7.667c2.47,0,3.418-1.05,3.418-2.535,0-1.766-1.332-2.419-3.392-2.585L475,133.7c-1.433-.116-1.766-.372-1.766-.858,0-.589.486-.819,1.344-.819h7.283v-1.639h-7.117c-1.8,0-3.366.653-3.366,2.509,0,1.613,1.178,2.317,3.149,2.471l4.237.332c1.254.1,1.779.4,1.779.986,0,.487-.346.819-1.421.819Z" transform="translate(0 2)" />
							<path class="cls-33" d="M471.341,136.5v1.639h7.667c2.47,0,3.418-1.05,3.418-2.535,0-1.766-1.332-2.419-3.392-2.585L475,132.7c-1.433-.116-1.766-.372-1.766-.858,0-.589.486-.819,1.344-.819h7.283v-1.639h-7.117c-1.8,0-3.366.653-3.366,2.509,0,1.613,1.178,2.317,3.149,2.471l4.237.332c1.254.1,1.779.4,1.779.986,0,.487-.346.819-1.421.819Z" transform="translate(0 2)" />
						</g>
					</g>
					<g id="a-count" class="animated" style="animation-delay: 530ms;">
						{{a-count}}
						<g class="cls-34">
							<path class="cls-35" d="M507.39,126.061h16a8,8,0,0,1,8,8h0a8,8,0,0,1-8,8h-16a8,8,0,0,1-8-8h0A8,8,0,0,1,507.39,126.061Z" transform="translate(0 2)" />
							<g class="cls-36">
								<path class="cls-3" d="M515.39,117.061l17.321,30H498.07Z" transform="translate(0 2)" />
								<path class="cls-37" d="M526.89,129.061l6.5,11.25H520.4Z" transform="translate(0 2)" />
								<path class="cls-38" d="M506.89,124.061l3.9,6.75h-7.794Z" transform="translate(0 2)" />
								<path class="cls-38" d="M508.89,139.061l3.9,6.75h-7.794Z" transform="translate(0 2)" />
							</g>
							<path class="cls-39" d="M517.932,131.553a2.73,2.73,0,0,0-5.088,0l-3.36,6.588h1.836l1.044-2.028h6.048l1.044,2.028H521.3Zm-.312,3.036h-4.476l1.392-2.688a.926.926,0,0,1,1.7,0Z" transform="translate(0 2)" />
						</g>
					</g>
				</g>
			</g>
			<g id="skills">
				<g class="animated-fade" style="animation-delay: 850ms;">
					<g class="cls-46 skill-reaction">
						<path class="cls-9" d="M163.221,297a7.089,7.089,0,0,1-2.007,3.44,7.3,7.3,0,0,0,2.773,1.224,2.178,2.178,0,0,0-.424.576,7.485,7.485,0,0,1-2.862-1.359,8.556,8.556,0,0,1-2.8,1.4,2.96,2.96,0,0,0-.378-.6,7.718,7.718,0,0,0,2.665-1.261,7.3,7.3,0,0,1-1.774-2.943h-.6a9.285,9.285,0,0,1-1.125,4.879,2.528,2.528,0,0,0-.577-.4,8.562,8.562,0,0,0,1.027-4.709v-2.385a30.512,30.512,0,0,0,5.662-.684l.54.531a27.391,27.391,0,0,1-5.527.72v1.395h4.825l.126-.026Zm-4.15.478a6.435,6.435,0,0,0,1.621,2.52,6.023,6.023,0,0,0,1.656-2.52Z" transform="translate(0 2)" />
						<path class="cls-9" d="M166.361,295.891V297.7a10.649,10.649,0,0,1-.847,4.691,2.4,2.4,0,0,0-.567-.37,9.651,9.651,0,0,0,.747-4.321v-2.448h3.575a10.222,10.222,0,0,0-.477-1.054l.647-.162a9.109,9.109,0,0,1,.586,1.216h3.007v.639Zm6.788,5.375v.639h-6.671v-.639h3.556a16.489,16.489,0,0,0,1.9-4.753l.7.252a20.3,20.3,0,0,1-1.918,4.5Zm-5.213-.963a23.347,23.347,0,0,0-.972-3.071l.576-.234a22.855,22.855,0,0,1,1.017,3.053Zm1.72-.5a24.942,24.942,0,0,0-.748-3.069l.6-.163a24.506,24.506,0,0,1,.774,3.052Z" transform="translate(0 2)" />
					</g>
					<g class="cls-46">
						<path class="cls-9" d="M177.184,268.126h-1.7v.774h-.6v-6.96h2.305Zm-1.7-5.591v1.251h1.107v-1.251Zm0,3.106h1.107v-1.279h-1.107Zm1.107,1.881v-1.305h-1.107v1.305Zm6.2-4.924v.622h-1.233v1.17h-.64v-1.17h-1.566v1.17h-.648v-1.17h-1.233V262.6h1.233v-1.107h.648V262.6h1.566v-1.107h.64V262.6Zm-5,2.116h4.609v4.844h-.648v-.415h-3.331v.468h-.63Zm.63.6V266.6h1.341v-1.288Zm1.341,3.233v-1.36h-1.341v1.36Zm1.99-3.233h-1.368V266.6h1.368Zm0,3.233v-1.36h-1.368v1.36Z" transform="translate(0 2)" />
						<path class="cls-9" d="M184.878,264.084a14.831,14.831,0,0,0-1.215-2.026l.594-.27a14.821,14.821,0,0,1,1.243,1.962Zm-1.206,4.78a24.7,24.7,0,0,0,1.359-3l.6.324c-.378,1-.873,2.143-1.287,3Zm8.084.108h-4.627v.639h-.63v-5.239a7.633,7.633,0,0,1-.883,1.125,3.13,3.13,0,0,0-.5-.477,8.959,8.959,0,0,0,2.107-3.556l.612.162a12.1,12.1,0,0,1-.558,1.368h2.052a7.423,7.423,0,0,0-.675-1.287l.568-.262a6.817,6.817,0,0,1,.7,1.261l-.558.288h2.2v.585h-1.909v1.189H191.4v.594h-1.729v1.188h1.72v.595h-1.72v1.214h2.089Zm-2.746-5.393h-1.881v1.189h1.881Zm0,1.783h-1.881v1.188h1.881Zm-1.881,3h1.881v-1.214h-1.881Z" transform="translate(0 2)" />
					</g>
					<g class="cls-46">
						<path class="cls-9" d="M157.252,230.107a14.79,14.79,0,0,0-1.215-2.026l.594-.269a14.675,14.675,0,0,1,1.243,1.961Zm-1.206,4.781a24.838,24.838,0,0,0,1.36-3l.6.324c-.378,1-.873,2.142-1.287,3Zm8.085.107H159.5v.64h-.63V230.4a7.735,7.735,0,0,1-.882,1.125,3.135,3.135,0,0,0-.5-.478,8.982,8.982,0,0,0,2.107-3.556l.611.162a12,12,0,0,1-.558,1.369h2.053a7.394,7.394,0,0,0-.675-1.288l.567-.261a6.753,6.753,0,0,1,.7,1.26l-.558.289h2.206v.585h-1.909v1.188h1.729v.595h-1.729v1.187h1.72v.595h-1.72v1.215h2.089Zm-2.746-5.392H159.5v1.188h1.882Zm0,1.783H159.5v1.187h1.882Zm-1.882,3h1.882v-1.215H159.5Z" transform="translate(0 2)" />
						<path class="cls-9" d="M166.4,230.729a11.191,11.191,0,0,1-.864,4.906,2.322,2.322,0,0,0-.594-.307,10.266,10.266,0,0,0,.8-4.6v-2.422h3.467c-.108-.252-.235-.55-.361-.784l.657-.162a6.417,6.417,0,0,1,.46.946h3.123v.621H166.4Zm5.969,2.025a4.475,4.475,0,0,1-1.863,1.765,11.806,11.806,0,0,0,2.7.54,2.43,2.43,0,0,0-.378.576,10.8,10.8,0,0,1-3.07-.775,12.953,12.953,0,0,1-3.151.721,2.5,2.5,0,0,0-.289-.559,12.914,12.914,0,0,0,2.737-.522,4.507,4.507,0,0,1-1.449-1.27l.315-.126h-1.179v-.548h5.086l.126-.036Zm-4.3-.775v-1.485h-1.44v-.558h1.44v-.774h.639v.774h2.179v-.774h.657v.774h1.45v.558h-1.45v1.485Zm.2,1.125a4.151,4.151,0,0,0,1.522,1.117,4.218,4.218,0,0,0,1.584-1.117Zm.441-2.61v.945h2.179v-.945Z" transform="translate(0 2)" />
					</g>

					<g class="cls-46">
						<path class="cls-9" d="M61.07,227.9h4.591v.649H63.626c-.126.414-.261.845-.387,1.206h2.179v5.194c0,.279-.045.442-.225.531a1.8,1.8,0,0,1-.792.109,1.808,1.808,0,0,0-.18-.54c.243.009.468.009.531.009.081-.009.108-.028.108-.109v-4.6h-.639v4.69h-.477v-4.69h-.658v4.69h-.468v-4.69h-.729v5.257h-.558v-5.851h1.3c.117-.361.225-.8.324-1.206H61.07Zm8.165,2.179h-.774v4.735c0,.4-.1.577-.333.685a3.42,3.42,0,0,1-1.278.126,2.212,2.212,0,0,0-.235-.621c.477.009.892.009,1.009,0,.144,0,.188-.046.188-.19v-4.735H65.733v-.63h2.079v-1.99h.649v1.99h.774Zm-2.512,3.061a7.345,7.345,0,0,0-.846-2l.54-.2a7.168,7.168,0,0,1,.9,1.981Z" transform="translate(0 2)" />
						<path class="cls-9" d="M77.74,229.37s-.009.252-.018.351c-.2,3.691-.387,5.032-.783,5.482a.989.989,0,0,1-.766.36,11.439,11.439,0,0,1-1.44-.027,1.464,1.464,0,0,0-.225-.683c.612.053,1.188.062,1.413.062a.511.511,0,0,0,.414-.135c.325-.305.523-1.575.694-4.744h-3.07a6.627,6.627,0,0,1-3.331,5.636,2.373,2.373,0,0,0-.513-.531,6.071,6.071,0,0,0,3.151-5.1H70.385v-.666H73.3v-1.945H74v1.945Z" transform="translate(0 2)" />
					</g>
					<g class="cls-46">
						<path class="cls-9" d="M47.271,266.012s0,.162-.01.243a5.282,5.282,0,0,1-.242,2.106.5.5,0,0,1-.388.208,2.667,2.667,0,0,1-.549.009,1.437,1.437,0,0,0-.135-.522,4.142,4.142,0,0,0,.414.018.147.147,0,0,0,.162-.072,4.24,4.24,0,0,0,.144-1.414h-.945v3.179h-.63v-3.179H43.57v-.576h1.522v-1.08H43.84v-.577h1.252v-1.026H43.661v-.576h1.431v-1.116h.63v1.116h1.494v.576H45.722v1.026h1.35v.577h-1.35v1.08Zm4.3-3.475c-.1,4.8-.18,6.338-.495,6.8a.823.823,0,0,1-.631.378,6.442,6.442,0,0,1-1.107,0,1.712,1.712,0,0,0-.2-.666c.45.045.856.045,1.026.045a.309.309,0,0,0,.325-.171c.252-.316.351-1.846.441-6.112h-.973c-.036,2.672-.288,5.6-2.493,7a2.619,2.619,0,0,0-.46-.478c2.1-1.323,2.287-4.033,2.3-6.526H47.6v-.631h3.979Zm-2.989,1.189a7.551,7.551,0,0,1-.6,2.844l-.513-.27a7.222,7.222,0,0,0,.585-2.647Z" transform="translate(0 2)" />
						<path class="cls-9" d="M52.436,265.553a9.137,9.137,0,0,0,.467-2.305l.505.072a10.085,10.085,0,0,1-.45,2.413Zm1.3-4.006H54.4v8.22h-.666Zm1.2,1.44a8.531,8.531,0,0,1,.657,1.5l-.5.243a8.991,8.991,0,0,0-.621-1.53Zm5.735,5.834v.639H55.172v-.639h2.575V266.57H55.838v-.621h1.909v-1.863H56.433a6.507,6.507,0,0,1-.631,1.394,5.416,5.416,0,0,0-.594-.305,8.761,8.761,0,0,0,1.089-3.214l.649.108c-.091.468-.2.936-.324,1.377h1.125v-1.863h.666v1.863h2.035v.64H58.413v1.863H60.25v.621H58.413v2.251Z" transform="translate(0 2)" />
					</g>
					<g class="cls-46">
						<path class="cls-9" d="M64.716,300.906a2.319,2.319,0,0,1-.27,1.035.681.681,0,0,1-.55.307,7.06,7.06,0,0,1-.981,0,1.677,1.677,0,0,0-.171-.585,7.052,7.052,0,0,0,.882.036.266.266,0,0,0,.289-.136,1.528,1.528,0,0,0,.189-.657H61.349c.072-.521.153-1.223.225-1.953h-.595v-.576h.649c.054-.585.1-1.171.126-1.7a5.642,5.642,0,0,1-.342.513,3.853,3.853,0,0,0-.54-.377,6.867,6.867,0,0,0,1.224-2.7l.63.126c-.081.3-.162.595-.261.883h2.98v.594H62.231a6.906,6.906,0,0,1-.4.819h3.106s-.009.225-.009.306c-.018.576-.036,1.081-.054,1.54h.693v.576H64.86c-.027.558-.054,1.008-.09,1.386h.747v.567Zm-.549-.567c.027-.36.054-.818.081-1.386H62.186c-.054.5-.1.972-.153,1.386H63.3a4.5,4.5,0,0,0-.72-1.107l.414-.207a3.77,3.77,0,0,1,.748,1.089l-.4.225Zm-1.828-3.249c-.027.414-.063.846-.108,1.287h2.044c.017-.388.027-.811.045-1.287Zm.747.054a3.055,3.055,0,0,1,.693,1.007l-.423.226a3.656,3.656,0,0,0-.675-1.035Zm5.582-.711a10.629,10.629,0,0,1-1.089,3.636,4.62,4.62,0,0,0,1.692,1.738,2.214,2.214,0,0,0-.459.54,5.072,5.072,0,0,1-1.611-1.684,5.591,5.591,0,0,1-1.783,1.639,3.6,3.6,0,0,0-.441-.5,4.929,4.929,0,0,0,1.891-1.737A12.1,12.1,0,0,1,66,297.44a5.244,5.244,0,0,1-.486.873,3.467,3.467,0,0,0-.5-.422,9.41,9.41,0,0,0,1.323-3.79l.63.108c-.108.549-.234,1.089-.378,1.611h2.575v.613Zm-2.278.026a12.882,12.882,0,0,0,.838,2.926,10.362,10.362,0,0,0,.8-2.952H66.4Z" transform="translate(0 2)" />
						<path class="cls-9" d="M71.753,298.836v2.71c0,.36-.081.549-.306.657a2.821,2.821,0,0,1-1.116.117,2.674,2.674,0,0,0-.2-.612c.387.009.738.009.846,0s.153-.027.153-.162v-2.512l-1.071.351-.171-.648c.342-.091.774-.225,1.242-.369v-1.846H70.007v-.612h1.125v-1.8h.621v1.8h.963v.612h-.963v1.657c.3-.09.594-.19.892-.288l.089.621Zm3.943.252v.783h2.035v.54H75.7v1.2a5.862,5.862,0,0,0,.828.055H78.28a1.838,1.838,0,0,0-.207.576H76.507c-1.387,0-2.323-.27-2.953-1.333a4.039,4.039,0,0,1-.936,1.45,2.738,2.738,0,0,0-.5-.378,4.369,4.369,0,0,0,1.234-2.746l.612.081a8.4,8.4,0,0,1-.171.874,2.1,2.1,0,0,0,1.287,1.278v-2.377H73.248v-.531h1.827v-.747H72.726v-.549h2.349v-.676H73.248v-.531h1.827v-.6H72.852v-.55h2.223v-.8H75.7v.8h2.368v.55H75.7v.6h1.945v1.207h.648v.549h-.648v1.278Zm0-1.827H77.02v-.676H75.7Zm0,1.3H77.02v-.747H75.7Z" transform="translate(0 2)" />
					</g>
					<g class="cls-46 skill-memory">
						<path class="cls-9" d="M159.5,300.149a3.084,3.084,0,0,0,.216.577,12.1,12.1,0,0,0-1.864,1.413v.008a2.2,2.2,0,0,0-.369-.5,1.147,1.147,0,0,0,.424-.873v-3.214h-1.423v-.648h2.08v3.871Zm-.927-3.97a10.688,10.688,0,0,0-1.387-1.441l.459-.4a13.86,13.86,0,0,1,1.414,1.377Zm4.744,5.366c.558,0,.648-.226.7-1.494a2.117,2.117,0,0,0,.649.278c-.109,1.459-.324,1.864-1.306,1.864H161.3c-1.009,0-1.324-.225-1.324-1.089v-3.439h3.4V295.4h-3.566v-.658h4.223v4.033h-.657V298.3h-2.72v2.8c0,.36.117.441.694.441Z" transform="translate(0 2)"/>
						<path class="cls-9" d="M165.334,298.124a9.354,9.354,0,0,0,.459-2.3l.532.072a10.105,10.105,0,0,1-.442,2.422Zm1.351-4.024h.648v8.219h-.648Zm1.2,1.44a9.206,9.206,0,0,1,.684,1.63l-.5.252a8.449,8.449,0,0,0-.657-1.666Zm4.375,5.843c.5,0,.6-.3.658-1.828a2.5,2.5,0,0,0,.6.225c-.1,1.9-.37,2.251-1.288,2.251h-2.367c-1.081,0-1.576-.405-1.576-1.071,0-.576.171-1.233,3.772-5.375h-3.5v-.63h4.169l.152-.027.424.224a.513.513,0,0,1-.091.118c-4.033,4.546-4.267,5.185-4.267,5.618,0,.341.351.5.873.5Z" transform="translate(0 2)"/>
					</g>
				</g>
				{{skills-plot}}
			</g>
			{{no-skill-data-text}}
			<g id="figures">
				<g id="ranking">
					<g id="global-ranking" class="animated" style="animation-delay: 750ms;">
						<rect class="cls-10" x="267.69" y="179.189" width="127.638" height="3" />
						<path class="cls-9" d="M276.824,195.366V197.3h3.362v.825h-3.362v2.038h4.837v.85H271.1v-.85h4.774v-2.038h-3.212V197.3h3.212v-1.936h-3.287v-.813a13.463,13.463,0,0,1-1.462.85,3.361,3.361,0,0,0-.65-.762,14.174,14.174,0,0,0,5.786-4.824l.825.375-.225.337a17.842,17.842,0,0,0,5.4,4.137,2.788,2.788,0,0,0-.65.787c-.487-.3-.963-.587-1.425-.9v.813Zm3.324-.838a18.852,18.852,0,0,1-3.8-3.324,16.11,16.11,0,0,1-3.725,3.324Z" transform="translate(0 2)" />
						<path class="cls-9" d="M287.262,198.79c-1.387.437-2.862.9-3.986,1.274l-.2-.9c.45-.125,1.012-.288,1.637-.475v-3.437h-1.4v-.875h1.4v-2.711h-1.5v-.875h3.812v.875h-1.437v2.711h1.262v.875h-1.262v3.174l1.537-.487Zm7.1-4.674a27.425,27.425,0,0,1-2.175,2.687,7.137,7.137,0,0,0,2.55,2.961,2.15,2.15,0,0,0-.588.7,7.9,7.9,0,0,1-2.887-3.761v3.5c0,.562-.15.825-.487.975a4.859,4.859,0,0,1-1.9.2,3.753,3.753,0,0,0-.338-.9c.725.024,1.362.013,1.55.013s.275-.075.275-.288v-2.95c-1.025,1.038-2.087,2.063-2.937,2.863l-.575-.8c.85-.7,2.225-1.925,3.512-3.087v-3.249h-3.025v-.862h3.025v-2.162h.9v2.162h3.275v.862h-3.275v.449a15.516,15.516,0,0,0,.613,2.613,18.236,18.236,0,0,0,1.674-2.363Zm-6.124-.363a9.931,9.931,0,0,1,1.363,2.312l-.763.363a10.783,10.783,0,0,0-1.325-2.337Zm5.1-1.8a7.159,7.159,0,0,0-1.475-1.374l.537-.488a8.862,8.862,0,0,1,1.5,1.3Z" transform="translate(0 2)" />
						<path class="cls-9" d="M299.788,196.265c-.5.138-1,.288-1.488.438v3.486c0,.513-.112.75-.425.888a3.643,3.643,0,0,1-1.537.175,3.9,3.9,0,0,0-.275-.85c.513.013.988.013,1.125.013.163,0,.212-.05.212-.213v-3.237l-1.537.462-.187-.925c.475-.112,1.074-.261,1.724-.449v-2.724h-1.574v-.875H297.4v-2.5h.9v2.5h1.338v.875H298.3V195.8l1.363-.387Zm2.187-6.223h.9v11.311h-.9v-3.275h-2.113v-.85h2.113v-1.75h-1.813v-.825h1.813v-1.736h-1.85v-.838h1.85Zm5.086,8.073H304.9v3.249h-.886V190.03h.886v2.049h2.038v.838H304.9v1.736h1.925v.825H304.9v1.787h2.163Z" transform="translate(0 2)" />
						<path class="cls-9" d="M318.187,201.353h-.951V200.7h-5.548v.651h-.913V197.24a21.5,21.5,0,0,1-2.074.6,2.607,2.607,0,0,0-.474-.85,17.432,17.432,0,0,0,4.6-1.65,22.832,22.832,0,0,0-1.9-1.537l.7-.537a24.483,24.483,0,0,1,2.063,1.574,10.033,10.033,0,0,0,3.061-2.8h-4.624a12.66,12.66,0,0,1-2.962,2.112,3.073,3.073,0,0,0-.637-.7,10.286,10.286,0,0,0,4.174-3.549l1.037.224a10.114,10.114,0,0,1-.812,1.063h4.424l.15-.05.625.387a11.329,11.329,0,0,1-4.9,4.624h4.962Zm-.951-1.5v-2.837h-5.548v2.837Z" transform="translate(0 2)" />
						{{global-ranking}}
					</g>
					<g id="country-ranking" class="animated" style="animation-delay: 780ms;">
						<rect class="cls-10" x="267.69" y="251.029" width="127.638" height="3" />
						<path class="cls-9" d="M277.8,261.249v7.814h-.694v-.45h-6.022v.45h-.667v-7.814Zm-.694,6.743V261.87h-6.022v6.122Zm-.522-1.4v.567h-4.906V266.6h2.071v-1.513h-1.693v-.576h1.693v-1.279h-1.945v-.6h4.6v.6H274.38v1.279h1.8v.576h-1.8V266.6Zm-1.215-1.351a5.585,5.585,0,0,1,.909.982l-.459.269a6.568,6.568,0,0,0-.873-1.017Z" transform="translate(0 2)" />
						<path class="cls-9" d="M286.711,268.172c0,.432-.1.648-.405.757a6.035,6.035,0,0,1-1.675.116,2.482,2.482,0,0,0-.225-.675c.63.027,1.242.027,1.431.018.163-.009.217-.063.217-.225v-5.132h-2.611a6.2,6.2,0,0,1-.162,1.171,26.668,26.668,0,0,1,2.538,2.5l-.548.432a22.334,22.334,0,0,0-2.188-2.3,4.8,4.8,0,0,1-2.188,2.413,2.724,2.724,0,0,0-.477-.5,4.055,4.055,0,0,0,2.359-3.719h-2.593v6.041h-.657v-6.7h3.259v-1.539h.666v1.539h3.259Z" transform="translate(0 2)" />
						<path class="cls-9" d="M290.408,261.231H291l-2.691,8.75h-.6Z" transform="translate(0 2)" />
						<path class="cls-9" d="M299.671,268.154v.639h-7.634V261.33h7.409v.639h-6.752v6.185Zm-1.6-.631a22.15,22.15,0,0,0-1.926-2.025,13.974,13.974,0,0,1-2.422,2.025,4.08,4.08,0,0,0-.531-.5,12.5,12.5,0,0,0,2.485-1.98c-.73-.675-1.5-1.351-2.2-1.927l.468-.395c.684.548,1.45,1.206,2.17,1.854A12.554,12.554,0,0,0,297.7,262.4l.621.252a15.257,15.257,0,0,1-1.728,2.359,23.293,23.293,0,0,1,2.008,2.035Z" transform="translate(0 2)" />
						<path class="cls-9" d="M308.238,268.172c0,.432-.1.648-.4.757a6.035,6.035,0,0,1-1.675.116,2.482,2.482,0,0,0-.225-.675c.63.027,1.242.027,1.431.018.162-.009.217-.063.217-.225v-5.132h-2.611a6.2,6.2,0,0,1-.162,1.171,26.929,26.929,0,0,1,2.539,2.5l-.549.432a22.248,22.248,0,0,0-2.189-2.3,4.8,4.8,0,0,1-2.187,2.413,2.7,2.7,0,0,0-.478-.5,4.056,4.056,0,0,0,2.36-3.719h-2.593v6.041h-.657v-6.7h3.258v-1.539h.666v1.539h3.259Z" transform="translate(0 2)" />
						<path class="cls-9" d="M312.512,265.391c-.36.1-.72.207-1.071.314v2.512c0,.369-.082.54-.306.639a2.607,2.607,0,0,1-1.108.126,2.914,2.914,0,0,0-.2-.612c.369.009.711.009.81.009.117,0,.153-.036.153-.153V265.9l-1.107.333-.135-.666c.342-.082.773-.19,1.242-.325v-1.963h-1.135v-.629h1.135v-1.8h.648v1.8h.963v.629h-.963v1.784l.981-.28Zm1.576-4.484h.648v8.148h-.648V266.7h-1.522v-.612h1.522v-1.26h-1.306v-.594h1.306v-1.251h-1.332v-.6h1.332Zm3.664,5.816h-1.558v2.34h-.639V260.9h.639v1.477h1.468v.6h-1.468v1.251h1.386v.594h-1.386v1.287h1.558Z" transform="translate(0 2)" />
						<path class="cls-9" d="M325.762,269.055h-.685v-.469h-4v.469h-.657v-2.962a15.542,15.542,0,0,1-1.494.431,1.9,1.9,0,0,0-.343-.612,12.552,12.552,0,0,0,3.313-1.188,16.21,16.21,0,0,0-1.368-1.108l.5-.387a17.818,17.818,0,0,1,1.486,1.135,7.26,7.26,0,0,0,2.206-2.016H321.4a9.179,9.179,0,0,1-2.133,1.521,2.313,2.313,0,0,0-.459-.505,7.4,7.4,0,0,0,3.007-2.556l.747.162a7.224,7.224,0,0,1-.586.765h3.187l.109-.036.45.28a8.174,8.174,0,0,1-3.529,3.331h3.574Zm-.685-1.081v-2.043h-4v2.043Z" transform="translate(0 2)" />
						{{country-ranking}}
					</g>
					<g id="acc" class="animated" style="animation-delay: 820ms;">
						<rect class="cls-11" x="424.008" y="179.935" width="46.957" height="3" />
						<path class="cls-9" d="M426.24,189.47a16.512,16.512,0,0,0-1.349-2.249l.66-.3a16.483,16.483,0,0,1,1.379,2.179Zm-1.34,5.308a27.152,27.152,0,0,0,1.51-3.328l.67.359c-.42,1.109-.97,2.379-1.43,3.328Zm8.976.119h-5.138v.71h-.7v-5.816a8.637,8.637,0,0,1-.979,1.249,3.477,3.477,0,0,0-.55-.53,9.97,9.97,0,0,0,2.339-3.948l.679.18a13.318,13.318,0,0,1-.62,1.519h2.28a8.241,8.241,0,0,0-.75-1.429l.629-.29a7.464,7.464,0,0,1,.78,1.4l-.619.32h2.448v.65h-2.118v1.319h1.919v.659h-1.919v1.319h1.908v.661h-1.908v1.348h2.318Zm-3.049-5.986h-2.089v1.319h2.089Zm0,1.978h-2.089v1.319h2.089Zm-2.089,3.328h2.089v-1.348h-2.089Z" transform="translate(0 2)" />
						<path class="cls-9" d="M436.271,194.348v.8h-.64V191.54a5.328,5.328,0,0,1-.521.809,4.611,4.611,0,0,0-.339-.79,9.691,9.691,0,0,0,1.4-3.868h-1.19V187h3.329v.69H436.87a17.2,17.2,0,0,1-.61,2.379H438v4.278Zm0-3.618v2.948h1.1V190.73Zm7.345,3.978c0,.389-.08.58-.33.689a3.511,3.511,0,0,1-1.289.12,2.349,2.349,0,0,0-.19-.66c.429.02.83.02.939.011s.16-.04.16-.17v-1.51h-1.428v2.049h-.67v-2.049H439.4a4.487,4.487,0,0,1-1.089,2.429,2.476,2.476,0,0,0-.57-.42,4.967,4.967,0,0,0,1.079-3.548v-2.028c-.17.189-.329.359-.5.519a3.628,3.628,0,0,0-.45-.559,7.756,7.756,0,0,0,2.029-3.139l.65.17c-.09.24-.18.46-.28.689h1.9l.109-.029.47.319a8.323,8.323,0,0,1-.949,1.419h1.819Zm-3.658-6.777a8.91,8.91,0,0,1-.659,1.079h1.709a7.288,7.288,0,0,0,.729-1.079Zm.85,4.608v-1.19h-1.3v.3c0,.28-.01.59-.029.89Zm-1.3-1.789h1.3v-1.1h-1.3Zm3.4-1.1h-1.428v1.1h1.428Zm0,2.889v-1.19h-1.428v1.19Z" transform="translate(0 2)" />
						<path class="cls-9" d="M453.836,193.5h-4.067v2.108h-.781V193.5h-4.057v-.691h4.057v-.819h.781v.819h4.067Zm-6.257-2.6c-.76.409-1.569.839-2.228,1.169l-.371-.6c.621-.25,1.55-.689,2.45-1.119ZM451,192.128a2.446,2.446,0,0,0-.269-.529,14.908,14.908,0,0,0-3.149.4,6.248,6.248,0,0,0-.22-.65,2.085,2.085,0,0,0,.83-.489c.19-.16.62-.55,1.1-1.04a5.935,5.935,0,0,0-1.518.2,3.662,3.662,0,0,0-.21-.63.771.771,0,0,0,.439-.319,6.892,6.892,0,0,0,.77-1.02h-3.638v-.679H449.2c-.13-.25-.309-.55-.46-.78l.72-.19a5.956,5.956,0,0,1,.59.97h3.708v.679h-4.208a11.2,11.2,0,0,1-.949,1.219l1.269-.079a9.134,9.134,0,0,0,.67-.83l.609.349a19.741,19.741,0,0,1-2.518,2.49l1.749-.141c-.16-.22-.33-.449-.49-.64l.55-.229a7.48,7.48,0,0,1,1.149,1.679Zm-5.226-3.668a8.859,8.859,0,0,1,1.518,1.13l-.519.451a8.057,8.057,0,0,0-1.5-1.17Zm7.315,3.708a12.592,12.592,0,0,0-1.959-1.4l.53-.4a12.459,12.459,0,0,1,1.979,1.359Zm.17-3.357a10.4,10.4,0,0,1-1.489,1.249l-.539-.35a8.7,8.7,0,0,0,1.409-1.279Z" transform="translate(0 2)" />
						{{acc}}
					</g>
					<g id="combo" class="animated" style="animation-delay: 850ms;">
						<rect class="cls-11" x="482.332" y="179.969" width="46.957" height="3" />
						<path class="cls-9" d="M487.383,194.582v1.059h-.71v-.97c-1.239.151-2.458.3-3.388.411l-.08-.661c.29-.029.63-.059.98-.1v-3.368h-.95v-.62h8.915v.62h-4.767v3.018l.54-.059v.6Zm3.568-4.8h-6.467v-2.949h6.467Zm-6.087,1.169v.67h1.809v-.67Zm0,1.928h1.809v-.7h-1.809Zm0,1.38c.57-.06,1.18-.13,1.809-.21v-.62h-1.809Zm5.358-6.9h-5.028v.679h5.028Zm0,1.179h-5.028v.709h5.028Zm1.648,3.188a5.758,5.758,0,0,1-1.469,2.409,5.713,5.713,0,0,0,1.9.88,2.587,2.587,0,0,0-.44.589,5.814,5.814,0,0,1-1.978-1.029,6.946,6.946,0,0,1-1.89,1.029,2.072,2.072,0,0,0-.38-.55,6.19,6.19,0,0,0,1.789-.919,6,6,0,0,1-1.229-1.9l.2-.06h-.6v-.609h3.539l.139-.021Zm-3.048.45a4.858,4.858,0,0,0,1.079,1.539,5.148,5.148,0,0,0,1.11-1.539Z" transform="translate(0 2)" />
						<path class="cls-9" d="M498.322,190.125a7.283,7.283,0,0,0,3.928,4.8,3.8,3.8,0,0,0-.56.7,8.07,8.07,0,0,1-3.977-4.948,7,7,0,0,1-3.988,4.948,2.148,2.148,0,0,0-.56-.611,6.485,6.485,0,0,0,3.888-4.886h-3.688v-.76h3.808a21.455,21.455,0,0,0,.15-2.839h.8a23.185,23.185,0,0,1-.159,2.839h4.127v.76Z" transform="translate(0 2)" />
						<path class="cls-9" d="M505.2,193.762c.2.13.409.32.76.54a5,5,0,0,0,2.7.5,34.811,34.811,0,0,0,3.728-.21,3.4,3.4,0,0,0-.22.83c-.709.04-2.538.11-3.528.11a5.263,5.263,0,0,1-2.869-.56c-.409-.279-.749-.629-.969-.629-.31,0-.759.629-1.209,1.32l-.55-.71a4.5,4.5,0,0,1,1.439-1.26v-3.128h-1.3v-.689H505.2Zm-.25-4.947a11.7,11.7,0,0,0-1.39-1.829l.571-.36a12.365,12.365,0,0,1,1.428,1.769Zm3.968,3.9h-3.038V192h3.038v-1.349h-1.539a1.706,1.706,0,0,0-.9.139c-.04-.159-.17-.509-.25-.709.18-.04.34-.3.54-.66a12.591,12.591,0,0,0,.58-1.218h-1.389v-.661H507.6a9.523,9.523,0,0,0,.339-1.029l.77.21c-.09.27-.19.55-.3.819h3.479v.661h-3.748a16.208,16.208,0,0,1-.86,1.749h1.639v-1.21h.75v1.21h1.938l-.009.7h-1.929V192h2.4v.709h-2.4v1.82h-.75Z" transform="translate(0 2)" />
						<path class="cls-9" d="M518.112,194.352h2.329v-2.5h.749v3.788h-.749v-.569h-6.226v-3.219h.769v2.5h2.369v-3.259H513.4v-.739h3.958v-1.569h-3.228v-.73h3.228v-1.539h.759v1.539h3.239v.73h-3.239v1.569h3.928v.739h-3.928Z" transform="translate(0 2)" />
						{{max-combo}}
					</g>
					<g id="bp" class="animated" style="animation-delay: 880ms;">
						<rect class="cls-11" x="423.706" y="225.823" width="46.957" height="3" />
						<path class="cls-9" d="M428.757,240.436V241.5h-.709v-.97c-1.239.151-2.459.3-3.389.411l-.08-.661c.29-.029.63-.059.98-.1v-3.368h-.95v-.62h8.915v.62h-4.767v3.018l.54-.059v.6Zm3.568-4.8h-6.467V232.69h6.467Zm-6.087,1.169v.67h1.81v-.67Zm0,1.928h1.81v-.7h-1.81Zm0,1.38c.571-.06,1.18-.13,1.81-.21v-.62h-1.81Zm5.358-6.9h-5.028v.679H431.6Zm0,1.179h-5.028v.709H431.6Zm1.649,3.188a5.77,5.77,0,0,1-1.47,2.409,5.728,5.728,0,0,0,1.9.88,2.591,2.591,0,0,0-.441.589,5.824,5.824,0,0,1-1.978-1.029,6.955,6.955,0,0,1-1.889,1.029,2.1,2.1,0,0,0-.38-.55,6.2,6.2,0,0,0,1.789-.919,6,6,0,0,1-1.229-1.9l.2-.06h-.6v-.609h3.539l.139-.021Zm-3.049.45a4.874,4.874,0,0,0,1.079,1.539,5.169,5.169,0,0,0,1.111-1.539Z" transform="translate(0 2)" />
						<path class="cls-9" d="M438.348,234.489a12.4,12.4,0,0,1-1.05,4.327,8.455,8.455,0,0,1,1.159,1.16l-.5.61a9.953,9.953,0,0,0-1.029-1.09,5.813,5.813,0,0,1-2.079,1.989,2.075,2.075,0,0,0-.47-.589,4.955,4.955,0,0,0,1.988-1.879,18.554,18.554,0,0,0-1.608-1.209c.239-.72.479-1.7.7-2.709h-.919v-.69h1.049c.14-.7.26-1.409.33-2.039l.729.05c-.089.62-.2,1.309-.339,1.989h1.449l.139-.03Zm-2.179.61c-.18.869-.39,1.709-.6,2.419a12.829,12.829,0,0,1,1.15.829,10.769,10.769,0,0,0,.859-3.248Zm7.466,2.188h-2.2v3.318c0,.441-.11.65-.42.77a5.047,5.047,0,0,1-1.559.12,3.488,3.488,0,0,0-.28-.71c.59.021,1.139.021,1.29.011s.22-.051.22-.191v-3.318h-2.309v-.709h2.309v-1.14a9,9,0,0,0,1.459-1.649h-3.329V233.1h3.838l.17-.04.51.37a11.52,11.52,0,0,1-1.9,2.188v.96h2.2Z" transform="translate(0 2)" />
						<path class="cls-9" d="M452.945,235.748a11.228,11.228,0,0,1-1.759,3.378c.37.979.83,1.55,1.339,1.55.28,0,.4-.52.47-1.85a1.774,1.774,0,0,0,.64.4c-.14,1.7-.41,2.188-1.17,2.188s-1.369-.609-1.829-1.639a8.961,8.961,0,0,1-2.059,1.66,4.013,4.013,0,0,0-.539-.59,7.985,7.985,0,0,0,2.3-1.85,19.7,19.7,0,0,1-.73-4.207h-3.448v1.3h2.549v.32c-.05,2.238-.109,3.078-.319,3.338a.777.777,0,0,1-.6.29,11.521,11.521,0,0,1-1.189,0,1.545,1.545,0,0,0-.21-.7c.46.04.889.051,1.059.051.14,0,.24-.021.3-.111a6.833,6.833,0,0,0,.23-2.5h-1.82v.08a8.78,8.78,0,0,1-1.049,4.708,2.958,2.958,0,0,0-.62-.5,7.741,7.741,0,0,0,.91-4.217V234.06h4.167c-.04-.55-.049-1.11-.059-1.68h.769c0,.58.01,1.14.04,1.68h3.229v.729h-3.179a18.092,18.092,0,0,0,.55,3.468,9.873,9.873,0,0,0,1.279-2.7Zm-1.729-3.338a9.528,9.528,0,0,1,1.789,1.14l-.46.51a10.169,10.169,0,0,0-1.769-1.2Z" transform="translate(0 2)" />
						<path class="cls-9" d="M457.878,237.567a2.759,2.759,0,0,0,0,.59,15.875,15.875,0,0,0-3.108.73,3.162,3.162,0,0,0-.21-.63,1.883,1.883,0,0,0,.739-.65,16.854,16.854,0,0,0,1.05-1.389,5.841,5.841,0,0,0-1.639.29,4.607,4.607,0,0,0-.24-.67c.179-.04.349-.279.579-.619a15.668,15.668,0,0,0,1.389-2.839l.67.31a18.086,18.086,0,0,1-1.669,3.039l1.32-.151a9.712,9.712,0,0,0,.619-1.069l.58.34a20.358,20.358,0,0,1-2.179,3.1Zm.09,2.469c-1.17.29-2.379.59-3.3.829l-.13-.7c.839-.16,2.108-.46,3.368-.75Zm3.058-1.269c0,.889-.339,2.008-3.178,2.749a2.8,2.8,0,0,0-.43-.561c2.688-.589,2.929-1.549,2.929-2.219V238h.679Zm-.67-4.948h-2.218v-.59h2.218v-.809h.7v.809H463.4v.59h-2.339v.59h2.1v.56h-2.1v.67h2.558v.559h-5.746v-.559h2.488v-.67h-1.909v-.56h1.909Zm2.03,5.887v-2.3h-3.279v2.3h-.679v-2.889H463.1v2.889Zm-1.09.13a15.277,15.277,0,0,1,2.379,1.09l-.361.539a13.619,13.619,0,0,0-2.358-1.15Z" transform="translate(0 2)" />
						{{bp}}
					</g>
					<g id="fp" class="animated" style="animation-delay: 920ms;">
						<rect class="cls-11" x="482.332" y="225.858" width="46.957" height="3" />
						<path class="cls-9" d="M484.884,233.824a6.4,6.4,0,0,1-1.059,1.34,3.729,3.729,0,0,0-.62-.36,6.027,6.027,0,0,0,1.639-2.449l.69.161c-.1.249-.21.5-.32.739h2.558v.569h-1.6a5.166,5.166,0,0,1,.409.97l-.659.22a5.617,5.617,0,0,0-.49-1.19Zm6.806,4.488s-.009.2-.02.31c-.14,1.379-.27,1.988-.529,2.229a.79.79,0,0,1-.62.25c-.26.019-.75.019-1.259,0a1.667,1.667,0,0,0-.2-.69,11.263,11.263,0,0,0,1.129.05.537.537,0,0,0,.36-.08,3.067,3.067,0,0,0,.34-1.429h-2.878v2.578h-.73v-2.3a9.151,9.151,0,0,1-3.358,2.309,2.753,2.753,0,0,0-.48-.59,8.475,8.475,0,0,0,3.248-2h-2.638c.13-.6.269-1.489.349-2.2h2.879v-.92h-3.228V235.2h7.305v2.179h-3.347v.929Zm-6.656-.929c-.05.309-.1.639-.15.929h2.4v-.929Zm7.107-4.128v.569h-1.789a4.988,4.988,0,0,1,.609.94l-.649.259a6.182,6.182,0,0,0-.77-1.2h-.68a5.421,5.421,0,0,1-.86,1.27,4.6,4.6,0,0,0-.649-.38,5.519,5.519,0,0,0,1.329-2.359l.71.161c-.08.249-.17.489-.26.739Zm-4.128,3.5h2.618v-.92h-2.618Z" transform="translate(0 2)" />
						<path class="cls-9" d="M502.26,236.463v.809h-9.074v-.809Z" transform="translate(0 2)" />
						<path class="cls-9" d="M511.171,241.521h-.76V241h-4.437v.52h-.73v-3.289a17.26,17.26,0,0,1-1.659.48,2.118,2.118,0,0,0-.38-.68,13.977,13.977,0,0,0,3.678-1.319,18.121,18.121,0,0,0-1.519-1.23l.56-.429a19.312,19.312,0,0,1,1.648,1.259,8.017,8.017,0,0,0,2.449-2.239h-3.7a10.114,10.114,0,0,1-2.368,1.69,2.488,2.488,0,0,0-.51-.56,8.22,8.22,0,0,0,3.338-2.839l.829.18a7.867,7.867,0,0,1-.649.85H510.5l.12-.041.5.311a9.059,9.059,0,0,1-3.918,3.7h3.968Zm-.76-1.2v-2.269h-4.437v2.269Z" transform="translate(0 2)" />
						{{first-place}}
					</g>
				</g>
				<g id="other">
					<g id="playtime" class="animated" style="animation-delay: 550ms;">
						{{playtime}}
						<path class="cls-9" d="M128.564,190.068a12.561,12.561,0,0,0-1.649-.979l.419-.54a14.231,14.231,0,0,1,1.649.92Zm.37,1.5c-.33,1.03-.78,2.269-1.17,3.189l-.669-.37a32.051,32.051,0,0,0,1.239-3.208Zm-.08-4.078a11.744,11.744,0,0,0-1.54-1.089l.43-.509A12.238,12.238,0,0,1,129.3,186.9ZM132.3,189.5s-.01.24-.01.34c-.09,3.2-.17,4.288-.41,4.618a.761.761,0,0,1-.58.319,8.136,8.136,0,0,1-1.019,0,1.871,1.871,0,0,0-.19-.679,8.68,8.68,0,0,0,.889.04.313.313,0,0,0,.31-.13c.15-.21.24-1.159.31-3.818h-.989a7.9,7.9,0,0,1-1.55,4.7,1.986,1.986,0,0,0-.529-.47c1.3-1.369,1.429-3.888,1.489-6.337h-.93v-.709h3.489v.709h-1.87c-.02.48-.029.949-.059,1.419Zm-1.5-2.139a7.522,7.522,0,0,0-.83-1.329l.67-.279a7.168,7.168,0,0,1,.859,1.289Zm5.287,4.538h-1.4v2.159c0,.4-.069.6-.35.71a4.021,4.021,0,0,1-1.389.13,3.7,3.7,0,0,0-.209-.69,9.072,9.072,0,0,0,1.079,0c.14,0,.18-.03.18-.15V191.9h-1.529v-.669H134v-.959a5.23,5.23,0,0,0,.849-.731h-1.889v-.619c-.05.09-.109.17-.16.25a4.192,4.192,0,0,0-.629-.38,7.223,7.223,0,0,0,1.129-3.018l.71.11c-.08.419-.18.819-.28,1.209h2.349v.7h-2.589a7.9,7.9,0,0,1-.51,1.09h2.459l.13-.04.46.32a7.439,7.439,0,0,1-1.34,1.349v.72h1.4Z" transform="translate(0 2)" />
						<path class="cls-9" d="M140.313,193.416a17.3,17.3,0,0,0-.97-1.629,7.2,7.2,0,0,1-1.979,2.369,2.868,2.868,0,0,0-.539-.61,6.5,6.5,0,0,0,2.049-2.488c-.55-.84-1.17-1.719-1.72-2.459l.53-.419c.49.639,1.03,1.388,1.549,2.118a13.482,13.482,0,0,0,.76-2.719h-2.929v-.669h3.129l.12-.03.479.16a14.288,14.288,0,0,1-1.059,3.978c.48.71.9,1.359,1.18,1.869Zm5.147-3.718a10.33,10.33,0,0,1-1.729,2.939c.31.83.72,1.329,1.209,1.379.25.02.4-.53.5-1.6a2.067,2.067,0,0,0,.61.4c-.2,1.65-.6,2.129-1.08,2.1-.8-.061-1.389-.66-1.829-1.64a8.235,8.235,0,0,1-1.749,1.37,2.409,2.409,0,0,0-.589-.55,7.431,7.431,0,0,0,2.069-1.559,18.74,18.74,0,0,1-.64-3.368l-1.35.149-.09-.679,1.39-.16c-.08-.83-.13-1.719-.17-2.649h.759c.03.89.081,1.76.15,2.559l2.909-.329.09.679-2.929.34a17.436,17.436,0,0,0,.48,2.748,9.786,9.786,0,0,0,1.409-2.488Zm-.53-2.058a8.893,8.893,0,0,0-1.369-1.39l.52-.39a7.77,7.77,0,0,1,1.389,1.329Z" transform="translate(0 2)" />
						<path class="cls-9" d="M150.453,193.057h-2.4v.789h-.7V186.6h3.1Zm-2.4-5.787v2.178h1.7V187.27Zm1.7,5.107v-2.259h-1.7v2.259Zm6.327-3.888h-1.21v5.3c0,.529-.15.76-.5.869a6.777,6.777,0,0,1-1.979.13,2.771,2.771,0,0,0-.27-.739c.77.02,1.509.02,1.729.01.2-.01.28-.07.28-.27v-5.3H150.9v-.729h3.229v-1.94h.739v1.94h1.21Zm-3.319,3.558c-.32-.609-.989-1.669-1.519-2.439l.61-.319c.53.759,1.229,1.778,1.559,2.378Z" transform="translate(0 2)" />
						<path class="cls-9" d="M157.455,188.01h.749V194.9h-.749Zm.719-2.11a6.759,6.759,0,0,1,1.229,1.41l-.6.4a8.225,8.225,0,0,0-1.2-1.46Zm1.459,2.7h3.748v4.528h-3.748Zm5.957,5.387c0,.42-.09.61-.35.73a3.268,3.268,0,0,1-1.289.139,3.2,3.2,0,0,0-.24-.7c.42.02.839.01.95.01.13,0,.169-.05.169-.18V187.03h-4.8v-.7h5.557Zm-5.287-3.438h2.379v-1.329H160.3Zm0,1.959h2.379v-1.339H160.3Z" transform="translate(0 2)" />
						<rect class="cls-10" x="125.953" y="179.223" width="91.72" height="3" />
					</g>
					<g id="medals" class="animated" style="animation-delay: 550ms;">
						{{medals}}
						<path class="cls-9" d="M88.093,192.057c.64,1.24,1.989,1.9,3.978,2.119a2.179,2.179,0,0,0-.45.649c-2.039-.3-3.4-1.049-4.138-2.488-.539,1.26-1.649,2.129-4.168,2.568a2.279,2.279,0,0,0-.349-.629c2.379-.38,3.358-1.13,3.818-2.219H83.126v-.669H87c.06-.241.1-.491.141-.76h.769c-.04.269-.08.51-.14.76h4.058v.669Zm-2.788-3.068c-.7.379-1.409.759-1.99,1.059l-.319-.64c.589-.269,1.449-.689,2.309-1.119v-2.528h.719v4.877h-.719Zm-1.12-.84a6.946,6.946,0,0,0-.919-1.569l.569-.29a6.522,6.522,0,0,1,.95,1.529Zm7.726-1.349c-.8,2.4-2.779,3.378-5.237,3.818a2.269,2.269,0,0,0-.4-.62,9.459,9.459,0,0,0,2.569-.709,9.759,9.759,0,0,0-1.2-1.21l.54-.319a9.009,9.009,0,0,1,1.259,1.209,4.046,4.046,0,0,0,1.529-1.719H88.223a6.807,6.807,0,0,1-1.369,1.049,3.706,3.706,0,0,0-.44-.539,4.919,4.919,0,0,0,2.039-2.03l.719.231a4.127,4.127,0,0,1-.409.64h2.568l.14-.021Z" transform="translate(0 2)" />
						<path class="cls-9" d="M97.853,193.057h4.1v.619h-4.1v1.21h-.759v-1.21H93v-.619h4.1v-.69H94.165v-3.018h6.667v3.018H97.853Zm4.118-4.858v.62H93.016v-.62h2.558a5.656,5.656,0,0,0-.419-.819l.7-.16a5.957,5.957,0,0,1,.54.979H98.6a10.289,10.289,0,0,0,.509-1.01l.77.17a7.426,7.426,0,0,1-.49.84Zm-.63-1.01H93.675v-.609h3.558a8.471,8.471,0,0,0-.4-.769l.72-.18a7.864,7.864,0,0,1,.51.949h3.278Zm-6.446,3.4h5.2v-.7H94.9Zm0,1.239h5.2V191.1H94.9Z" transform="translate(0 2)" />
						<rect class="cls-11" x="82.123" y="179.223" width="27.829" height="3" />
					</g>
					<g id="pp" class="animated" style="animation-delay: 550ms;">
						{{pp}}
						<path class="cls-9" d="M21.291,194.746a.361.361,0,0,1-.391-.39v-4.719a2.816,2.816,0,0,1,.375-1.406,2.676,2.676,0,0,1,.991-.985,2.758,2.758,0,0,1,1.4-.359,2.8,2.8,0,0,1,1.431.364,2.7,2.7,0,0,1,1,1,2.8,2.8,0,0,1,.364,1.43,2.844,2.844,0,0,1-.355,1.421,2.626,2.626,0,0,1-2.345,1.359,2.586,2.586,0,0,1-1.215-.285,2.429,2.429,0,0,1-.875-.755v2.94a.387.387,0,0,1-.105.286A.372.372,0,0,1,21.291,194.746Zm2.379-2.99a2.013,2.013,0,0,0,1.04-.27,1.94,1.94,0,0,0,.726-.745,2.283,2.283,0,0,0,0-2.135,1.984,1.984,0,0,0-1.766-1.02,1.968,1.968,0,0,0-1.75,1.02,2.329,2.329,0,0,0,0,2.135,1.906,1.906,0,0,0,.721.745A1.994,1.994,0,0,0,23.67,191.756Z" transform="translate(0 2)" />
						<path class="cls-9" d="M28.36,194.746a.361.361,0,0,1-.39-.39v-4.719a2.816,2.816,0,0,1,.375-1.406,2.666,2.666,0,0,1,.99-.985,2.764,2.764,0,0,1,1.4-.359,2.8,2.8,0,0,1,1.43.364,2.7,2.7,0,0,1,1,1,2.8,2.8,0,0,1,.364,1.43,2.844,2.844,0,0,1-.355,1.421,2.654,2.654,0,0,1-.965.994,2.626,2.626,0,0,1-1.38.365,2.586,2.586,0,0,1-1.215-.285,2.421,2.421,0,0,1-.875-.755v2.94a.387.387,0,0,1-.1.286A.374.374,0,0,1,28.36,194.746Zm2.38-2.99a2.013,2.013,0,0,0,1.04-.27,1.93,1.93,0,0,0,.725-.745,2.275,2.275,0,0,0,0-2.135,1.981,1.981,0,0,0-1.765-1.02,1.965,1.965,0,0,0-1.75,1.02,2.321,2.321,0,0,0,0,2.135,1.911,1.911,0,0,0,.72.745A2,2,0,0,0,30.74,191.756Z" transform="translate(0 2)" />
						<rect class="cls-12" x="20" y="179.223" width="47.121" height="3" />
					</g>
					<g id="count">
						<g id="count-1" class="animated" style="animation-delay: 600ms;">
							<path class="cls-9" d="M21.39,233.345a.372.372,0,0,1-.28-.111.378.378,0,0,1-.11-.279v-7.03a.381.381,0,0,1,.11-.28.375.375,0,0,1,.28-.11h1.87a2.715,2.715,0,0,1,1.3.305,2.265,2.265,0,0,1,.895.849,2.414,2.414,0,0,1,.325,1.255,2.235,2.235,0,0,1-1.22,2.04,2.737,2.737,0,0,1-1.3.3H21.78v2.67a.378.378,0,0,1-.11.279A.374.374,0,0,1,21.39,233.345Zm.39-3.81h1.48a1.934,1.934,0,0,0,.9-.2,1.6,1.6,0,0,0,.625-.565,1.5,1.5,0,0,0,.23-.821,1.622,1.622,0,0,0-.23-.864,1.6,1.6,0,0,0-.625-.585,1.889,1.889,0,0,0-.9-.21H21.78Zm3.79,3.81a.368.368,0,0,1-.205-.05.453.453,0,0,1-.135-.15l-1.92-3.06.78-.2,1.79,2.86a.408.408,0,0,1,.055.42A.374.374,0,0,1,25.57,233.345Z" transform="translate(0 2)" />
							<path class="cls-9" d="M29.49,233.4a2.631,2.631,0,0,1-1.38-.366,2.662,2.662,0,0,1-.965-.994,2.852,2.852,0,0,1-.355-1.421,2.8,2.8,0,0,1,.365-1.429,2.7,2.7,0,0,1,.995-1,2.942,2.942,0,0,1,2.835,0,2.71,2.71,0,0,1,.99,1,2.875,2.875,0,0,1,.375,1.429l-.31.24a2.522,2.522,0,0,1-.335,1.295,2.477,2.477,0,0,1-.91.911A2.546,2.546,0,0,1,29.49,233.4Zm.08-.7a2,2,0,0,0,1.035-.269,1.96,1.96,0,0,0,.72-.745,2.283,2.283,0,0,0,0-2.135,2,2,0,0,0-.72-.745,2.069,2.069,0,0,0-2.065,0,2.022,2.022,0,0,0-.73.745,2.245,2.245,0,0,0,0,2.135,1.986,1.986,0,0,0,.73.745A2.007,2.007,0,0,0,29.57,232.694Zm2.39.651a.386.386,0,0,1-.28-.106.361.361,0,0,1-.11-.274v-1.71l.19-.79.59.149v2.351a.361.361,0,0,1-.11.274A.386.386,0,0,1,31.96,233.345Z" transform="translate(0 2)" />
							<path class="cls-9" d="M34.24,233.345a.382.382,0,0,1-.285-.106.369.369,0,0,1-.1-.274v-4.7a.361.361,0,0,1,.39-.39.376.376,0,0,1,.275.1.393.393,0,0,1,.1.286v4.7a.362.362,0,0,1-.38.38Zm4.3,0a.372.372,0,0,1-.28-.111.363.363,0,0,1-.11-.269v-2.6a1.993,1.993,0,0,0-.235-1.019,1.5,1.5,0,0,0-.64-.6,2.18,2.18,0,0,0-1.8-.011,1.574,1.574,0,0,0-.625.521,1.275,1.275,0,0,0-.23.75h-.55a2.148,2.148,0,0,1,.34-1.125,2.272,2.272,0,0,1,.85-.78,2.449,2.449,0,0,1,1.18-.286,2.687,2.687,0,0,1,1.269.3,2.178,2.178,0,0,1,.886.866,2.768,2.768,0,0,1,.325,1.389v2.6a.377.377,0,0,1-.38.38Z" transform="translate(0 2)" />
							<path class="cls-9" d="M41,233.345a.362.362,0,0,1-.38-.38v-7.05a.372.372,0,0,1,.105-.275.413.413,0,0,1,.55,0,.372.372,0,0,1,.105.275v7.05a.362.362,0,0,1-.38.38Zm.25-1.83-.47-.51,3.42-3.09a.349.349,0,0,1,.25-.1.339.339,0,0,1,.24.125.355.355,0,0,1,.105.254.316.316,0,0,1-.125.236Zm3.45,1.78a.358.358,0,0,1-.27.095.344.344,0,0,1-.24-.145l-2.23-2.74.54-.481,2.25,2.771a.332.332,0,0,1-.05.5Z" transform="translate(0 2)" />
							<path class="cls-9" d="M48.32,233.4a2.86,2.86,0,0,1-1.435-.355,2.555,2.555,0,0,1-.98-.985,2.883,2.883,0,0,1-.355-1.441,3.015,3.015,0,0,1,.335-1.444,2.5,2.5,0,0,1,2.285-1.345,2.485,2.485,0,0,1,1.325.345,2.323,2.323,0,0,1,.875.955,3.019,3.019,0,0,1,.31,1.39.34.34,0,0,1-.1.255.364.364,0,0,1-.26.094H46.07v-.639H50.4l-.43.31a2.279,2.279,0,0,0-.21-1.04,1.719,1.719,0,0,0-.625-.721,1.759,1.759,0,0,0-.965-.259,1.833,1.833,0,0,0-1,.27,1.8,1.8,0,0,0-.665.744,2.417,2.417,0,0,0-.235,1.085,2.153,2.153,0,0,0,.265,1.08,1.947,1.947,0,0,0,.725.741,2.063,2.063,0,0,0,1.06.27,2.239,2.239,0,0,0,.725-.125,1.771,1.771,0,0,0,.585-.315.406.406,0,0,1,.25-.095.346.346,0,0,1,.24.075.371.371,0,0,1,.135.26.289.289,0,0,1-.115.24,2.705,2.705,0,0,1-.84.465A2.879,2.879,0,0,1,48.32,233.4Z" transform="translate(0 2)" />
							<path class="cls-9" d="M54.27,233.4a2.774,2.774,0,0,1-1.42-.366,2.681,2.681,0,0,1-1-.994,2.8,2.8,0,0,1-.365-1.431,2.834,2.834,0,0,1,.355-1.419,2.675,2.675,0,0,1,.965-1,2.634,2.634,0,0,1,1.38-.364,2.565,2.565,0,0,1,1.21.284,2.449,2.449,0,0,1,.87.755v-2.939a.377.377,0,0,1,.11-.285.426.426,0,0,1,.56,0,.377.377,0,0,1,.11.285v4.72a2.886,2.886,0,0,1-.385,1.405,2.681,2.681,0,0,1-.99.985A2.775,2.775,0,0,1,54.27,233.4Zm0-.7a1.958,1.958,0,0,0,1.035-.274,2.019,2.019,0,0,0,.72-.745,2.283,2.283,0,0,0,0-2.135,2.018,2.018,0,0,0-3.515,0,2.245,2.245,0,0,0,0,2.135,2.038,2.038,0,0,0,.73.745A1.96,1.96,0,0,0,54.27,232.694Z" transform="translate(0 2)" />
							<path class="cls-9" d="M63.627,231.785a3.845,3.845,0,0,0,.25.63,15.537,15.537,0,0,0-1.948,1.47,2.44,2.44,0,0,0-.36-.62.94.94,0,0,0,.459-.8V228.8H60.659v-.7h2.069v4.307ZM62.5,227.3a12.406,12.406,0,0,0-1.379-1.61l.5-.418a11.49,11.49,0,0,1,1.419,1.528Zm7.266,1.569v.63H63.178v-.63h2.059v-2h-1.7v-.63h1.629a6.623,6.623,0,0,0-.66-1l.53-.269a4.919,4.919,0,0,1,.769,1.109l-.28.159h1.55a13.9,13.9,0,0,0,.649-1.268l.64.239c-.2.34-.43.72-.64,1.029H69.4v.63H67.615v2Zm-5.737-1.8a5.46,5.46,0,0,1,.85,1.2l-.51.319a5.857,5.857,0,0,0-.829-1.249Zm.16,3.069h4.628v3.937h-.69v-.529H64.847v.559h-.66Zm.66.59v.8h3.278v-.8Zm3.278,2.258v-.9H64.847v.9Zm-2.219-4.118h1.04v-2h-1.04Zm2.049-.489a8.251,8.251,0,0,0,.8-1.3l.579.28a12.915,12.915,0,0,1-.909,1.259Z" transform="translate(0 2)" />
							<path class="cls-9" d="M75.5,226.358c-.121.42-.26.871-.39,1.249h4.008v6.507h-.75v-.529H71.979v.529h-.72v-6.507h3.088c.11-.378.21-.838.29-1.249H70.809v-.709h8.785v.709ZM71.979,232.9H73.4v-4.6H71.979Zm4.207-4.6H74.077v1.1h2.109Zm0,1.709H74.077v1.119h2.109ZM74.077,232.9h2.109v-1.16H74.077Zm4.288-4.6h-1.5v4.6h1.5Z" transform="translate(0 2)" />
							<path class="cls-9" d="M80.659,233.225a5.66,5.66,0,0,0,.94-2.139l.689.14a6.364,6.364,0,0,1-.949,2.329Zm7.686-3.079H82.079V227H83.8a7.654,7.654,0,0,0-1.009-1.679l.629-.29a6.869,6.869,0,0,1,1.06,1.669l-.609.3h2.049a11.6,11.6,0,0,0,1.089-2l.759.311c-.32.559-.689,1.178-1.029,1.688h1.609Zm-.809-2.448H82.858v1.749h4.678Zm-.87,5.627c.49,0,.569-.14.629-1.01a2.267,2.267,0,0,0,.7.27c-.11,1.13-.349,1.409-1.269,1.409H84.5c-1.179,0-1.469-.21-1.469-1.019v-2.049h.76v2.049c0,.3.119.35.749.35Zm-1.829-3.089a8.951,8.951,0,0,1,1.8,1.57l-.54.479a8.6,8.6,0,0,0-1.779-1.629Zm3.478.63a7.93,7.93,0,0,1,1.409,2.179l-.6.37a8.583,8.583,0,0,0-1.38-2.219Z" transform="translate(0 2)" />
							<path class="cls-9" d="M98.275,228.737s-.01.26-.02.36c-.14,3.028-.27,4.168-.609,4.548a.973.973,0,0,1-.78.349,12.119,12.119,0,0,1-1.569-.019,1.618,1.618,0,0,0-.24-.741c.65.061,1.249.071,1.489.071a.561.561,0,0,0,.43-.13c.25-.25.39-1.23.509-3.708H94.777c-.27,1.969-.929,3.758-3.438,4.678a2.615,2.615,0,0,0-.47-.63A4.322,4.322,0,0,0,94,229.467H92.079v-.69a8.783,8.783,0,0,1-.78.73,5.8,5.8,0,0,0-.64-.569,8.424,8.424,0,0,0,2.779-3.758l.789.219a10.986,10.986,0,0,1-2.109,3.338ZM96.9,225.159a10.536,10.536,0,0,0,2.858,3.628,3.281,3.281,0,0,0-.6.63,13.537,13.537,0,0,1-2.928-3.978Z" transform="translate(0 2)" />
							{{ranked-score}}
						</g>
						<g id="count-2" class="animated" style="animation-delay: 630ms;">
							<path class="cls-9" d="M22.059,245.287a12.561,12.561,0,0,0-1.649-.979l.42-.54a14.25,14.25,0,0,1,1.649.92Zm.37,1.5c-.33,1.029-.78,2.269-1.17,3.189l-.669-.371a32.051,32.051,0,0,0,1.239-3.208Zm-.08-4.078a11.608,11.608,0,0,0-1.539-1.089l.429-.51a12.347,12.347,0,0,1,1.559,1.01Zm3.448,2.009s-.01.24-.01.34c-.09,3.2-.17,4.288-.41,4.618a.761.761,0,0,1-.58.319,8.136,8.136,0,0,1-1.019,0,1.881,1.881,0,0,0-.19-.68,8.686,8.686,0,0,0,.89.04.314.314,0,0,0,.31-.129c.15-.21.239-1.16.309-3.818h-.989a7.9,7.9,0,0,1-1.549,4.7,1.985,1.985,0,0,0-.53-.469c1.3-1.369,1.429-3.888,1.489-6.337h-.93v-.709h3.489v.709H24.208c-.02.479-.03.949-.06,1.419Zm-1.5-2.139a7.522,7.522,0,0,0-.83-1.329l.67-.279A7.133,7.133,0,0,1,25,242.259Zm5.287,4.538h-1.4v2.158c0,.4-.07.6-.351.71a4.021,4.021,0,0,1-1.389.13,3.62,3.62,0,0,0-.209-.689,9.549,9.549,0,0,0,1.079,0c.14,0,.18-.03.18-.151v-2.158H25.967v-.67H27.5v-.959a5.223,5.223,0,0,0,.849-.73H26.457v-.619c-.051.09-.11.17-.161.25a4.063,4.063,0,0,0-.629-.38,7.214,7.214,0,0,0,1.129-3.019l.71.111c-.08.419-.18.819-.28,1.209h2.349v.7H26.986a7.96,7.96,0,0,1-.509,1.09h2.458l.13-.04.46.32a7.531,7.531,0,0,1-1.339,1.349v.719h1.4Z" transform="translate(0 2)" />
							<path class="cls-9" d="M33.808,248.635a17.171,17.171,0,0,0-.97-1.629,7.2,7.2,0,0,1-1.979,2.369,2.817,2.817,0,0,0-.539-.61,6.49,6.49,0,0,0,2.049-2.489c-.55-.839-1.17-1.718-1.72-2.459l.53-.419c.49.64,1.03,1.389,1.55,2.119a13.585,13.585,0,0,0,.759-2.719H30.56v-.669h3.128l.12-.03.48.16a14.3,14.3,0,0,1-1.06,3.977c.48.71.9,1.36,1.18,1.869Zm5.147-3.718a10.325,10.325,0,0,1-1.729,2.938c.31.831.72,1.33,1.21,1.379.249.021.4-.529.5-1.6a2.067,2.067,0,0,0,.61.4c-.2,1.65-.6,2.129-1.08,2.1-.8-.061-1.389-.66-1.829-1.64a8.2,8.2,0,0,1-1.749,1.369,2.411,2.411,0,0,0-.589-.55,7.427,7.427,0,0,0,2.069-1.558,18.74,18.74,0,0,1-.64-3.368l-1.35.149-.089-.68,1.389-.159c-.08-.83-.13-1.719-.17-2.649h.76c.029.889.08,1.76.15,2.558l2.908-.329.09.68-2.929.34a17.436,17.436,0,0,0,.48,2.748,9.786,9.786,0,0,0,1.409-2.488Zm-.53-2.059a8.888,8.888,0,0,0-1.369-1.389l.52-.39a7.77,7.77,0,0,1,1.389,1.329Z" transform="translate(0 2)" />
							<path class="cls-9" d="M43.088,246.047c-.579,1.019-1.329,2.169-1.959,3.048l-.669-.51a30.046,30.046,0,0,0,2.059-3.019Zm-.569-2.459a10.336,10.336,0,0,0-1.909-1.39l.439-.529a9.82,9.82,0,0,1,1.95,1.31Zm3.947.93c0,.219-.009.46-.02.709.45,2,1.389,3.538,3.129,4.168a2.237,2.237,0,0,0-.5.639,5.188,5.188,0,0,1-2.888-3.368,5.791,5.791,0,0,1-3.2,3.479,3.4,3.4,0,0,0-.559-.581,5.1,5.1,0,0,0,3.258-5.056v-.62h.779Zm-1.789-1.11a9.03,9.03,0,0,1-1.059,2.089,4.374,4.374,0,0,0-.71-.4,9.981,9.981,0,0,0,1.63-4.108l.8.14c-.12.53-.26,1.05-.41,1.55H48.6l.13-.04.55.29a13.553,13.553,0,0,1-1.049,2.7c-.15-.08-.44-.231-.61-.31a11.845,11.845,0,0,0,.729-1.909Z" transform="translate(0 2)" />
							<path class="cls-9" d="M52.588,244.107a6.288,6.288,0,0,1-1.758,1.459,2.389,2.389,0,0,0-.4-.559,5.155,5.155,0,0,0,1.929-1.559H50.53v-.62h2.058v-1.849h.69v1.849h2.039v.62H53.438c.5.29,1.359.85,1.589,1.02l-.409.539a15.508,15.508,0,0,0-1.34-1.06v1.37h-.69Zm1.55,5.278a8.314,8.314,0,0,0-.87-.56,6.6,6.6,0,0,1-2.469,1.2,2.422,2.422,0,0,0-.349-.569,6.151,6.151,0,0,0,2.218-.96,13.373,13.373,0,0,0-1.529-.689,10.971,10.971,0,0,0,.64-1.06H50.74v-.63h1.349a6.606,6.606,0,0,0,.26-.639l.659.12c-.07.17-.13.34-.21.519h1.63l.11-.029.42.17a5.242,5.242,0,0,1-1.2,2.118,9.226,9.226,0,0,1,.84.52Zm-2.609-6.626a5.109,5.109,0,0,0-.619-1.31l.539-.22a4.587,4.587,0,0,1,.65,1.29Zm.96,3.987c-.15.28-.3.56-.44.79.369.159.769.35,1.129.529a3.79,3.79,0,0,0,.93-1.319Zm2.568-5.3a13.306,13.306,0,0,1-.89,1.28l-.479-.231a8.659,8.659,0,0,0,.75-1.329Zm3.718,2.149a12.3,12.3,0,0,1-1.089,3.757,5.071,5.071,0,0,0,1.989,2.089,2.5,2.5,0,0,0-.49.58,5.513,5.513,0,0,1-1.889-2,6.5,6.5,0,0,1-2.369,2.12,2.912,2.912,0,0,0-.409-.6,5.543,5.543,0,0,0,2.418-2.209,12.045,12.045,0,0,1-.879-2.669,7.646,7.646,0,0,1-.68,1.31,4.244,4.244,0,0,0-.56-.451,10.527,10.527,0,0,0,1.459-4.447l.68.1a16,16,0,0,1-.34,1.728h2.819v.69Zm-2.309,0a13.735,13.735,0,0,0,.85,2.988,11.306,11.306,0,0,0,.749-2.988Z" transform="translate(0 2)" />
							{{play-count}}
						</g>
						<g id="count-3" class="animated" style="animation-delay: 660ms;">	
							<path class="cls-9" d="M20.47,265.225a5.659,5.659,0,0,0,.939-2.139l.69.14a6.365,6.365,0,0,1-.95,2.329Zm7.686-3.079H21.889V259h1.719a7.733,7.733,0,0,0-1.009-1.679l.629-.29a6.9,6.9,0,0,1,1.06,1.669l-.61.3h2.049a11.6,11.6,0,0,0,1.089-2l.76.311c-.32.559-.69,1.178-1.03,1.688h1.61Zm-.81-2.448H22.668v1.749h4.678Zm-.869,5.627c.489,0,.569-.14.629-1.01a2.267,2.267,0,0,0,.7.27c-.11,1.13-.35,1.409-1.269,1.409H24.308c-1.18,0-1.47-.21-1.47-1.019v-2.049h.76v2.049c0,.3.12.35.75.35Zm-1.83-3.089a8.951,8.951,0,0,1,1.8,1.57l-.539.479a8.654,8.654,0,0,0-1.779-1.629Zm3.478.63a7.936,7.936,0,0,1,1.41,2.179l-.6.37a8.6,8.6,0,0,0-1.379-2.219Z" transform="translate(0 2)" />
							<path class="cls-9" d="M38.085,260.737s-.009.26-.02.36c-.139,3.028-.269,4.168-.609,4.548a.971.971,0,0,1-.78.349,12.12,12.12,0,0,1-1.569-.019,1.618,1.618,0,0,0-.24-.741c.65.061,1.25.071,1.489.071a.561.561,0,0,0,.43-.13c.25-.25.39-1.23.51-3.708H34.587c-.269,1.969-.929,3.758-3.438,4.678a2.638,2.638,0,0,0-.469-.63,4.323,4.323,0,0,0,3.128-4.048H31.889v-.69a8.783,8.783,0,0,1-.78.73,5.785,5.785,0,0,0-.639-.569,8.43,8.43,0,0,0,2.778-3.758l.79.219a10.986,10.986,0,0,1-2.109,3.338Zm-1.378-3.578a10.513,10.513,0,0,0,2.858,3.628,3.281,3.281,0,0,0-.6.63,13.52,13.52,0,0,1-2.928-3.978Z" transform="translate(0 2)" />
							{{total-score}}
						</g>
						<g id="count-4" class="animated" style="animation-delay: 690ms;">	
							<path class="cls-9" d="M20.47,281.225a5.659,5.659,0,0,0,.939-2.139l.69.14a6.365,6.365,0,0,1-.95,2.329Zm7.686-3.079H21.889V275h1.719a7.733,7.733,0,0,0-1.009-1.679l.629-.29a6.9,6.9,0,0,1,1.06,1.669l-.61.3h2.049a11.6,11.6,0,0,0,1.089-2l.76.311c-.32.559-.69,1.178-1.03,1.688h1.61Zm-.81-2.448H22.668v1.749h4.678Zm-.869,5.627c.489,0,.569-.14.629-1.01a2.267,2.267,0,0,0,.7.27c-.11,1.13-.35,1.409-1.269,1.409H24.308c-1.18,0-1.47-.21-1.47-1.019v-2.049h.76v2.049c0,.3.12.35.75.35Zm-1.83-3.089a8.951,8.951,0,0,1,1.8,1.57l-.539.479a8.654,8.654,0,0,0-1.779-1.629Zm3.478.63a7.936,7.936,0,0,1,1.41,2.179l-.6.37a8.6,8.6,0,0,0-1.379-2.219Z" transform="translate(0 2)" />
							<path class="cls-9" d="M35.627,273.3a1.839,1.839,0,0,1-.17.22,9.088,9.088,0,0,0,4.168,2.4,3.689,3.689,0,0,0-.54.7,9.26,9.26,0,0,1-2.149-1.01v.68H32.968v-.629a10.324,10.324,0,0,1-2.169,1.009,3.54,3.54,0,0,0-.419-.72,8.918,8.918,0,0,0,4.667-3.078Zm-1.29,7.206H31.989v.84H31.3v-4.238h3.038Zm-2.348-2.738v2.079h1.649v-2.079Zm4.937-2.16a8.776,8.776,0,0,1-1.9-1.588,9.54,9.54,0,0,1-1.979,1.588Zm1.819,4.3c0,.39-.08.6-.36.72a4.275,4.275,0,0,1-1.509.13,2.93,2.93,0,0,0-.22-.69c.56.02,1.04.01,1.179.01s.19-.05.19-.179v-2.12H36.106v4.348h-.729V277.1h3.368Z" transform="translate(0 2)" />
							<path class="cls-9" d="M48.985,274.759v4.677h-.759v-.57H45.357V282.1h-.77v-3.238H41.729v.619H41v-4.726h3.587v-1.78h.77v1.78Zm-4.4,3.378v-2.649H41.729v2.649Zm3.639,0v-2.649H45.357v2.649Z" transform="translate(0 2)" />
							<path class="cls-9" d="M53.088,278.047c-.579,1.019-1.329,2.169-1.959,3.048l-.669-.51a30.046,30.046,0,0,0,2.059-3.019Zm-.569-2.459a10.336,10.336,0,0,0-1.909-1.39l.439-.529a9.82,9.82,0,0,1,1.95,1.31Zm3.947.93c0,.219-.009.46-.02.709.45,2,1.389,3.538,3.129,4.168a2.237,2.237,0,0,0-.5.639,5.188,5.188,0,0,1-2.888-3.368,5.791,5.791,0,0,1-3.2,3.479,3.4,3.4,0,0,0-.559-.581,5.1,5.1,0,0,0,3.258-5.056v-.62h.779Zm-1.789-1.11a9.03,9.03,0,0,1-1.059,2.089,4.374,4.374,0,0,0-.71-.4,9.981,9.981,0,0,0,1.63-4.108l.8.14c-.12.53-.26,1.05-.41,1.55H58.6l.13-.04.55.29a13.553,13.553,0,0,1-1.049,2.7c-.15-.08-.44-.231-.61-.31a11.845,11.845,0,0,0,.729-1.909Z" transform="translate(0 2)" />
							<path class="cls-9" d="M62.588,276.107a6.288,6.288,0,0,1-1.758,1.459,2.389,2.389,0,0,0-.4-.559,5.155,5.155,0,0,0,1.929-1.559H60.53v-.62h2.058v-1.849h.69v1.849h2.039v.62H63.438c.5.29,1.359.85,1.589,1.02l-.409.539a15.508,15.508,0,0,0-1.34-1.06v1.37h-.69Zm1.55,5.278a8.314,8.314,0,0,0-.87-.56,6.6,6.6,0,0,1-2.469,1.2,2.422,2.422,0,0,0-.349-.569,6.151,6.151,0,0,0,2.218-.96,13.373,13.373,0,0,0-1.529-.689,10.971,10.971,0,0,0,.64-1.06H60.74v-.63h1.349a6.606,6.606,0,0,0,.26-.639l.659.12c-.07.17-.13.34-.21.519h1.63l.11-.029.42.17a5.242,5.242,0,0,1-1.2,2.118,9.226,9.226,0,0,1,.84.52Zm-2.609-6.626a5.109,5.109,0,0,0-.619-1.31l.539-.22a4.587,4.587,0,0,1,.65,1.29Zm.96,3.987c-.15.28-.3.56-.44.79.369.159.769.35,1.129.529a3.79,3.79,0,0,0,.93-1.319Zm2.568-5.3a13.306,13.306,0,0,1-.89,1.28l-.479-.231a8.659,8.659,0,0,0,.75-1.329Zm3.718,2.149a12.3,12.3,0,0,1-1.089,3.757,5.071,5.071,0,0,0,1.989,2.089,2.5,2.5,0,0,0-.49.58,5.513,5.513,0,0,1-1.889-2,6.5,6.5,0,0,1-2.369,2.12,2.912,2.912,0,0,0-.409-.6,5.543,5.543,0,0,0,2.418-2.209,12.045,12.045,0,0,1-.879-2.669,7.646,7.646,0,0,1-.68,1.31,4.244,4.244,0,0,0-.56-.451,10.527,10.527,0,0,0,1.459-4.447l.68.1a16,16,0,0,1-.34,1.728h2.819v.69Zm-2.309,0a13.735,13.735,0,0,0,.85,2.988,11.306,11.306,0,0,0,.749-2.988Z" transform="translate(0 2)" />
							{{total-hits}}
						</g>
						<g id="count-5" class="animated" style="animation-delay: 720ms;">	
							<path class="cls-9" d="M29.145,289.4v8.7h-.79v-.54H21.609v.54h-.75v-8.7Zm-.79,7.466v-6.726H21.609v6.726Zm-1.449-5.177V295.3H23.048v-3.608Zm-.729.669H23.758v2.279h2.419Z" transform="translate(0 2)" />
							<path class="cls-9" d="M34.438,292.617s0,.24-.01.34c-.071,3.269-.14,4.368-.39,4.718a.764.764,0,0,1-.59.319,6.271,6.271,0,0,1-1.069,0,2.006,2.006,0,0,0-.2-.689c.409.04.779.049.939.049a.3.3,0,0,0,.29-.139c.17-.22.24-1.18.3-3.918H32.359v.07a6.461,6.461,0,0,1-1.52,4.737,2.787,2.787,0,0,0-.549-.479,5.842,5.842,0,0,0,1.359-4.269v-2.068H30.47V290.6h4.407v.689H32.359v1.329Zm-1.839-2.1a9.2,9.2,0,0,0-.51-1.36l.64-.189a8.649,8.649,0,0,1,.539,1.329Zm6.246,1.009a11.464,11.464,0,0,1-1.279,4,4.989,4.989,0,0,0,2.1,1.93,2.947,2.947,0,0,0-.52.64,5.376,5.376,0,0,1-2.029-1.9,6.817,6.817,0,0,1-2.368,1.94,3.254,3.254,0,0,0-.43-.651,5.741,5.741,0,0,0,2.4-1.978,13,13,0,0,1-.969-2.778,7.794,7.794,0,0,1-.72,1.239,5.16,5.16,0,0,0-.579-.56,10.753,10.753,0,0,0,1.669-4.428l.749.121c-.12.588-.25,1.178-.409,1.738h3.118v.69Zm-2.608,0a.418.418,0,0,0-.04.1,12.251,12.251,0,0,0,.949,3.148,10.161,10.161,0,0,0,.959-3.248Z" transform="translate(0 2)" />
							<path class="cls-9" d="M43.388,295.456c-.18-.3-.559-.88-.889-1.359V298.1h-.7v-3.887a9.583,9.583,0,0,1-1.119,1.209,3.259,3.259,0,0,0-.35-.67,9.71,9.71,0,0,0,2.439-3.328H40.44v-.68h2.678l.11-.029.37.289a11.153,11.153,0,0,1-1.1,2.209v.04c.08.09.18.22.29.36a12.036,12.036,0,0,0,.779-.97l.45.41c-.31.32-.65.679-.93.92.3.379.59.769.7.909Zm-1.209-4.748a8.583,8.583,0,0,0-.76-1.409l.57-.279a10.382,10.382,0,0,1,.789,1.338Zm6.886,2.319a7.22,7.22,0,0,1-1.619,3.208,5.7,5.7,0,0,0,2.189,1.209,2.39,2.39,0,0,0-.46.63,6.05,6.05,0,0,1-2.229-1.339,7.241,7.241,0,0,1-2.229,1.369,2.212,2.212,0,0,0-.409-.6,6.258,6.258,0,0,0,2.158-1.27,7.709,7.709,0,0,1-1.459-2.7h-.09a7.7,7.7,0,0,1-1.3,4.507,2.428,2.428,0,0,0-.53-.48,7.249,7.249,0,0,0,1.15-4.517v-2.6h2.129v-1.459h.7v1.459h1.789l.12-.029.52.14a18.356,18.356,0,0,1-.64,2l-.62-.151a11.641,11.641,0,0,0,.37-1.259H47.066v1.729h1.419l.14-.029Zm-4.138-1.879v1.729h1.44v-1.729Zm.73,2.389a6.573,6.573,0,0,0,1.289,2.208,6.223,6.223,0,0,0,1.269-2.208Z" transform="translate(0 2)" />
							<path class="cls-9" d="M53.418,296.7a11.529,11.529,0,0,0-.7-1.569,8.308,8.308,0,0,1-1.779,2.568,3.583,3.583,0,0,0-.549-.559,7.9,7.9,0,0,0,1.879-2.828,24.224,24.224,0,0,0-1.669-2.53l.569-.369c.48.63.98,1.339,1.43,2.049a16.229,16.229,0,0,0,.709-2.988H50.56v-.71h2.928l.14-.03.47.14a18.191,18.191,0,0,1-1.01,4.388,13.116,13.116,0,0,1,.97,1.978Zm5.187.659c.32,0,.38-.259.42-1.678a1.963,1.963,0,0,0,.61.279c-.09,1.569-.19,1.97-1.04,1.97h-.839c-.66,0-.93-.191-.93-.84v-2.269a5.194,5.194,0,0,1-2.8,3.288,1.988,1.988,0,0,0-.46-.54,4.713,4.713,0,0,0,2.808-4.687v-1.909h.7v1.919a7.473,7.473,0,0,1-.19,1.719h.63v2.409c0,.27.09.339.35.339Zm-3.278-2.618h-.709v-5.267h4.367v5.267h-.73v-4.607H55.327Z" transform="translate(0 2)" />
							<path class="cls-9" d="M63.828,292.707c-.13.231-.26.47-.41.689H68.4v4.739h-.73v-.391H63.328v.391h-.709v-3.708a8.025,8.025,0,0,1-1.78,1.469,3.141,3.141,0,0,0-.459-.57,7.332,7.332,0,0,0,2.6-2.619H60.62v-.619h2.708a7.83,7.83,0,0,0,.33-.73H61.349v-.6h2.529c.08-.231.15-.46.21-.7-.93.049-1.869.07-2.729.07a1.923,1.923,0,0,0-.15-.57,45.828,45.828,0,0,0,7.017-.5l.469.539a27.424,27.424,0,0,1-3.788.42c-.07.25-.15.49-.23.74H68.8v.6H64.468c-.1.24-.21.49-.33.73h5.237v.619Zm3.838,1.279H63.328v.69h4.338Zm0,1.2H63.328v.7h4.338Zm0,1.959v-.74H63.328v.74Z" transform="translate(0 2)" />
							<path class="cls-9" d="M73.088,294.047c-.579,1.019-1.329,2.169-1.959,3.048l-.669-.51a30.046,30.046,0,0,0,2.059-3.019Zm-.569-2.459a10.336,10.336,0,0,0-1.909-1.39l.439-.529a9.82,9.82,0,0,1,1.95,1.31Zm3.947.93c0,.219-.009.46-.02.709.45,2,1.389,3.538,3.129,4.168a2.237,2.237,0,0,0-.5.639,5.188,5.188,0,0,1-2.888-3.368,5.791,5.791,0,0,1-3.2,3.479,3.4,3.4,0,0,0-.559-.581,5.1,5.1,0,0,0,3.258-5.056v-.62h.779Zm-1.789-1.11a9.03,9.03,0,0,1-1.059,2.089,4.374,4.374,0,0,0-.71-.4,9.981,9.981,0,0,0,1.63-4.108l.8.14c-.12.53-.26,1.05-.41,1.55H78.6l.13-.04.55.29a13.553,13.553,0,0,1-1.049,2.7c-.15-.08-.44-.231-.61-.31a11.845,11.845,0,0,0,.729-1.909Z" transform="translate(0 2)" />
							<path class="cls-9" d="M82.588,292.107a6.288,6.288,0,0,1-1.758,1.459,2.389,2.389,0,0,0-.4-.559,5.155,5.155,0,0,0,1.929-1.559H80.53v-.62h2.058v-1.849h.69v1.849h2.039v.62H83.438c.5.29,1.359.85,1.589,1.02l-.409.539a15.508,15.508,0,0,0-1.34-1.06v1.37h-.69Zm1.55,5.278a8.314,8.314,0,0,0-.87-.56,6.6,6.6,0,0,1-2.469,1.2,2.422,2.422,0,0,0-.349-.569,6.151,6.151,0,0,0,2.218-.96,13.373,13.373,0,0,0-1.529-.689,10.971,10.971,0,0,0,.64-1.06H80.74v-.63h1.349a6.606,6.606,0,0,0,.26-.639l.659.12c-.07.17-.13.34-.21.519h1.63l.11-.029.42.17a5.242,5.242,0,0,1-1.2,2.118,9.226,9.226,0,0,1,.84.52Zm-2.609-6.626a5.109,5.109,0,0,0-.619-1.31l.539-.22a4.587,4.587,0,0,1,.65,1.29Zm.96,3.987c-.15.28-.3.56-.44.79.369.159.769.35,1.129.529a3.79,3.79,0,0,0,.93-1.319Zm2.568-5.3a13.306,13.306,0,0,1-.89,1.28l-.479-.231a8.659,8.659,0,0,0,.75-1.329Zm3.718,2.149a12.3,12.3,0,0,1-1.089,3.757,5.071,5.071,0,0,0,1.989,2.089,2.5,2.5,0,0,0-.49.58,5.513,5.513,0,0,1-1.889-2,6.5,6.5,0,0,1-2.369,2.12,2.912,2.912,0,0,0-.409-.6,5.543,5.543,0,0,0,2.418-2.209,12.045,12.045,0,0,1-.879-2.669,7.646,7.646,0,0,1-.68,1.31,4.244,4.244,0,0,0-.56-.451,10.527,10.527,0,0,0,1.459-4.447l.68.1a16,16,0,0,1-.34,1.728h2.819v.69Zm-2.309,0a13.735,13.735,0,0,0,.85,2.988,11.306,11.306,0,0,0,.749-2.988Z" transform="translate(0 2)" />							
							{{replays-watched-by-others}}
						</g>
					</g>
				</g>
			</g>
		</g>
	</g>
</svg>