<svg xmlns="http://www.w3.org/2000/svg" xmlns:xlink="http://www.w3.org/1999/xlink" viewBox="0 0 400 120">
	<defs>
		<style>.cls-1{fill:none;}.cls-2,.cls-5{fill:#2a2226;}.cls-3{clip-path:url(#clip-path);}.cls-4{opacity:0.5;}.cls-5{opacity:0.9;}.cls-6{fill:#382e32;opacity:0.6;}.cls-7{fill:#fc2;}.cls-8{fill:#fff;}.cls-9{fill:#b3d944;}.cls-10{fill:#ed1221;}.cls-11{fill:#ff66ab;}.cls-12{clip-path:url(#clip-path-2);}</style>
		<clipPath id="clip-path">
			<path class="cls-1" d="M392,120H8a8.024,8.024,0,0,1-8-8V8A8.024,8.024,0,0,1,8,0H392a8.024,8.024,0,0,1,8,8V112A8.024,8.024,0,0,1,392,120Z" />
		</clipPath>
		<clipPath id="clip-path-2">
			<path class="cls-1" d="M102,105H20a4.012,4.012,0,0,1-4-4V19a4.012,4.012,0,0,1,4-4h82a4.012,4.012,0,0,1,4,4v82A4.012,4.012,0,0,1,102,105Z" />
		</clipPath>
		<style>
			@keyframes fadeDown{
				0%{
					opacity: 0;
					transform: translateY(-10px);
				}
				100%{
					opacity: 1;
					transform: translateY(0);
				}
			}
			#fg.animation-enabled .animated{
				opacity: 0;
				transform: translateY(-10px);
				animation: fadeDown .3s ease-in-out forwards;
			}
		</style>
	</defs>
	<g id="bg">
		<rect class="cls-2" width="400" height="120" rx="8" />
		<g id="head">
			<g class="cls-3">
				<image class="cls-4" width="400" height="120" xlink:href="{{user-cover-base64}}"/>
			</g>
			<path class="cls-5" d="M0,50v62a8.024,8.024,0,0,0,8,8H392a8.024,8.024,0,0,0,8-8V50Z" />
			<path class="cls-6" d="M392,0H8A8.024,8.024,0,0,0,0,8V50H400V8A8.024,8.024,0,0,0,392,0Z" />
		</g>
	</g>
	<g id="fg" class="{{fg-extra-class}}">
		<g id="userinfo">
			<g id="avatar" class="animated" style="animation-delay: 250ms;">
				<g class="cls-12">
					<image width="256" height="256" transform="translate(16 15) scale(0.352)" xlink:href="{{avatar-base64}}" />
				</g>
			</g>
			<g class="animated" style="animation-delay: 290ms;">
				{{name}}
			</g>
			<g class="animated" style="animation-delay: 330ms;">
				{{flag}}
				{{country-ranking}}
			</g>
			<g class="animated" style="animation-delay: 370ms;">
				{{playmode-icon}}
				{{level}}
			</g>
		</g>
		<g id="details">
			<g id="ranking" class="animated" style="animation-delay: 430ms;">
				<rect class="cls-11" x="120.013" y="57.748" width="85" height="3" />
				<path class="cls-8" d="M123.169,78.22a.45.45,0,0,1-.467-.468V69.316a.449.449,0,0,1,.467-.468h2.245a3.255,3.255,0,0,1,1.56.366,2.709,2.709,0,0,1,1.073,1.02,2.884,2.884,0,0,1,.391,1.506,2.687,2.687,0,0,1-1.464,2.448,3.3,3.3,0,0,1-1.56.36h-1.776v3.2a.453.453,0,0,1-.469.468Zm.469-4.572h1.776A2.329,2.329,0,0,0,126.5,73.4a1.935,1.935,0,0,0,.75-.678,1.787,1.787,0,0,0,.275-.984A1.9,1.9,0,0,0,126.5,70a2.284,2.284,0,0,0-1.086-.252h-1.776Zm4.548,4.572a.445.445,0,0,1-.247-.06.557.557,0,0,1-.162-.181l-2.3-3.671.936-.24,2.148,3.432a.493.493,0,0,1,.066.5A.451.451,0,0,1,128.186,78.22Z" />
				<path class="cls-8" d="M132.89,78.28a3.149,3.149,0,0,1-2.814-1.632,3.411,3.411,0,0,1-.427-1.7,3.36,3.36,0,0,1,.438-1.716,3.226,3.226,0,0,1,1.194-1.194,3.342,3.342,0,0,1,1.7-.438,3.308,3.308,0,0,1,1.7.438,3.24,3.24,0,0,1,1.188,1.194,3.448,3.448,0,0,1,.449,1.716l-.371.288a3.03,3.03,0,0,1-.4,1.554,2.976,2.976,0,0,1-1.091,1.092A3.058,3.058,0,0,1,132.89,78.28Zm.1-.84a2.393,2.393,0,0,0,1.243-.324,2.354,2.354,0,0,0,.863-.894,2.732,2.732,0,0,0,0-2.562,2.413,2.413,0,0,0-.863-.894,2.491,2.491,0,0,0-2.478,0,2.424,2.424,0,0,0-.876.894,2.687,2.687,0,0,0,0,2.562,2.365,2.365,0,0,0,.876.894A2.39,2.39,0,0,0,132.985,77.44Zm2.869.78a.464.464,0,0,1-.336-.126.432.432,0,0,1-.133-.33V75.712l.228-.948.708.18v2.82a.435.435,0,0,1-.132.33A.465.465,0,0,1,135.854,78.22Z" />
				<path class="cls-8" d="M138.589,78.22a.46.46,0,0,1-.341-.126.446.446,0,0,1-.126-.33v-5.64a.435.435,0,0,1,.467-.468.445.445,0,0,1,.33.126.461.461,0,0,1,.126.342v5.64a.432.432,0,0,1-.456.456Zm5.161,0a.452.452,0,0,1-.336-.132.437.437,0,0,1-.132-.324v-3.12A2.389,2.389,0,0,0,143,73.42a1.8,1.8,0,0,0-.769-.72,2.61,2.61,0,0,0-2.16-.012,1.892,1.892,0,0,0-.75.624,1.534,1.534,0,0,0-.276.9h-.659a2.588,2.588,0,0,1,.407-1.35,2.736,2.736,0,0,1,1.02-.936,2.942,2.942,0,0,1,1.416-.343,3.22,3.22,0,0,1,1.524.355,2.588,2.588,0,0,1,1.062,1.038,3.319,3.319,0,0,1,.391,1.668v3.12a.451.451,0,0,1-.456.456Z" />
				<path class="cls-8" d="M146.7,78.22a.432.432,0,0,1-.456-.456V69.3a.456.456,0,1,1,.912,0v8.46a.432.432,0,0,1-.456.456Zm.3-2.2-.564-.612,4.1-3.708a.416.416,0,0,1,.3-.126.41.41,0,0,1,.288.15.423.423,0,0,1,.126.306.377.377,0,0,1-.15.282Zm4.14,2.136a.422.422,0,0,1-.324.114.413.413,0,0,1-.288-.174l-2.676-3.288.648-.576,2.7,3.324a.419.419,0,0,1,.108.306A.426.426,0,0,1,151.141,78.16Z" />
				<path class="cls-8" d="M153.757,70.408a.623.623,0,0,1-.456-.192.637.637,0,0,1-.192-.468.6.6,0,0,1,.2-.474.678.678,0,0,1,.462-.174.663.663,0,0,1,.45.174.6.6,0,0,1,.2.474.656.656,0,0,1-.66.66Zm.012,7.812a.435.435,0,0,1-.468-.468V72.124a.435.435,0,0,1,.468-.468.446.446,0,0,1,.33.126.461.461,0,0,1,.126.342v5.628a.462.462,0,0,1-.126.342A.446.446,0,0,1,153.769,78.22Z" />
				<path class="cls-8" d="M157.044,78.22a.46.46,0,0,1-.341-.126.446.446,0,0,1-.126-.33v-5.64a.435.435,0,0,1,.467-.468.447.447,0,0,1,.331.126.464.464,0,0,1,.125.342v5.64a.431.431,0,0,1-.456.456Zm5.161,0a.454.454,0,0,1-.336-.132.437.437,0,0,1-.132-.324v-3.12a2.389,2.389,0,0,0-.282-1.224,1.8,1.8,0,0,0-.768-.72,2.448,2.448,0,0,0-1.1-.24,2.419,2.419,0,0,0-1.062.228,1.892,1.892,0,0,0-.75.624,1.534,1.534,0,0,0-.276.9h-.659a2.579,2.579,0,0,1,.408-1.35,2.721,2.721,0,0,1,1.02-.936,2.939,2.939,0,0,1,1.416-.343,3.219,3.219,0,0,1,1.523.355,2.6,2.6,0,0,1,1.063,1.038,3.33,3.33,0,0,1,.39,1.668v3.12a.451.451,0,0,1-.456.456Z" />
				<path class="cls-8" d="M167.593,78.28a3.273,3.273,0,0,1-1.68-.426,3,3,0,0,1-1.146-1.182,3.539,3.539,0,0,1-.414-1.728,3.445,3.445,0,0,1,.432-1.74,3.1,3.1,0,0,1,1.188-1.183,3.689,3.689,0,0,1,3.438,0,3.064,3.064,0,0,1,1.175,1.183,3.553,3.553,0,0,1,.438,1.74l-.54.288a3.284,3.284,0,0,1-.371,1.578,2.753,2.753,0,0,1-1.027,1.08A2.859,2.859,0,0,1,167.593,78.28Zm.119,2.532a3.752,3.752,0,0,1-1.668-.354,3.308,3.308,0,0,1-1.188-.966.387.387,0,0,1-.113-.312.369.369,0,0,1,.174-.276.444.444,0,0,1,.348-.072.463.463,0,0,1,.3.18,2.555,2.555,0,0,0,.894.7,2.883,2.883,0,0,0,1.267.264,2.286,2.286,0,0,0,2.069-1.236,2.858,2.858,0,0,0,.319-1.38V75.532l.347-.7.564.108v2.448a3.531,3.531,0,0,1-.431,1.746,3.2,3.2,0,0,1-2.881,1.674Zm-.024-3.372a2.44,2.44,0,0,0,1.254-.318,2.276,2.276,0,0,0,.859-.882,2.644,2.644,0,0,0,.312-1.3,2.678,2.678,0,0,0-.312-1.3,2.265,2.265,0,0,0-.859-.888,2.44,2.44,0,0,0-1.254-.318,2.472,2.472,0,0,0-1.259.318,2.253,2.253,0,0,0-.865.888,2.667,2.667,0,0,0-.312,1.3,2.633,2.633,0,0,0,.312,1.3,2.264,2.264,0,0,0,.865.882A2.472,2.472,0,0,0,167.688,77.44Z" />
				{{global-ranking}}
			</g>
			<g id="pp" class="animated" style="animation-delay: 470ms;">
				<rect class="cls-10" x="226.063" y="58.352" width="46.957" height="3" />
				<path class="cls-8" d="M227.727,76.594a.361.361,0,0,1-.391-.389v-4.72a2.813,2.813,0,0,1,.375-1.405,2.678,2.678,0,0,1,.991-.986,2.758,2.758,0,0,1,1.4-.359,2.8,2.8,0,0,1,1.431.364,2.7,2.7,0,0,1,1,.995,2.8,2.8,0,0,1,.364,1.43,2.854,2.854,0,0,1-.354,1.421,2.662,2.662,0,0,1-.965.994,2.632,2.632,0,0,1-1.381.365,2.586,2.586,0,0,1-1.215-.285,2.41,2.41,0,0,1-.875-.755v2.941a.387.387,0,0,1-.1.285A.372.372,0,0,1,227.727,76.594Zm2.379-2.99a2.013,2.013,0,0,0,1.04-.27,1.94,1.94,0,0,0,.726-.745,2.281,2.281,0,0,0,0-2.134,1.982,1.982,0,0,0-1.766-1.021,1.966,1.966,0,0,0-1.75,1.021,2.327,2.327,0,0,0,0,2.134,1.906,1.906,0,0,0,.721.745A1.994,1.994,0,0,0,230.106,73.6Z" />
				<path class="cls-8" d="M234.8,76.594a.361.361,0,0,1-.39-.389v-4.72a2.813,2.813,0,0,1,.375-1.405,2.668,2.668,0,0,1,.99-.986,2.764,2.764,0,0,1,1.405-.359,2.8,2.8,0,0,1,1.43.364,2.7,2.7,0,0,1,1,.995,2.8,2.8,0,0,1,.364,1.43,2.844,2.844,0,0,1-.355,1.421,2.629,2.629,0,0,1-2.345,1.359,2.586,2.586,0,0,1-1.215-.285,2.4,2.4,0,0,1-.875-.755v2.941a.387.387,0,0,1-.1.285A.374.374,0,0,1,234.8,76.594Zm2.38-2.99a2.013,2.013,0,0,0,1.04-.27,1.93,1.93,0,0,0,.725-.745,2.273,2.273,0,0,0,0-2.134,2.046,2.046,0,0,0-2.8-.746,1.969,1.969,0,0,0-.72.746,2.327,2.327,0,0,0,0,2.134,1.911,1.911,0,0,0,.72.745A2,2,0,0,0,237.176,73.6Z" />
				{{pp}}
			</g>
			<g id="acc" class="animated" style="animation-delay: 510ms;">
				<rect class="cls-9" x="281.021" y="58.386" width="46.957" height="3" />
				<path class="cls-8" d="M281.964,75.289a.343.343,0,0,1-.329-.191.4.4,0,0,1-.02-.369l2.94-6.98a.385.385,0,0,1,.38-.27.381.381,0,0,1,.37.27l2.949,6.99a.36.36,0,0,1-.025.37.364.364,0,0,1-.325.18.4.4,0,0,1-.215-.06.441.441,0,0,1-.154-.181l-2.75-6.67h.31l-2.77,6.67a.385.385,0,0,1-.145.181A.4.4,0,0,1,281.964,75.289Zm.661-1.861.3-.67h4.06l.3.67Z" />
				<path class="cls-8" d="M291.564,75.338a2.692,2.692,0,0,1-1.4-.365,2.648,2.648,0,0,1-.971-.994,2.854,2.854,0,0,1-.355-1.421,2.96,2.96,0,0,1,.341-1.43,2.6,2.6,0,0,1,.929-1,2.537,2.537,0,0,1,1.361-.364,2.634,2.634,0,0,1,1.125.239,2.564,2.564,0,0,1,.905.721.275.275,0,0,1,.08.255.394.394,0,0,1-.17.234.3.3,0,0,1-.245.056.4.4,0,0,1-.235-.146,1.866,1.866,0,0,0-1.46-.66,1.793,1.793,0,0,0-.986.271,1.813,1.813,0,0,0-.659.74,2.376,2.376,0,0,0-.236,1.079,2.25,2.25,0,0,0,.25,1.07,1.866,1.866,0,0,0,.7.741,1.967,1.967,0,0,0,1.029.269,2.32,2.32,0,0,0,.716-.1,1.617,1.617,0,0,0,.574-.326.453.453,0,0,1,.25-.11.339.339,0,0,1,.241.08.388.388,0,0,1,.134.25.267.267,0,0,1-.094.24A2.586,2.586,0,0,1,291.564,75.338Z" />
				<path class="cls-8" d="M297.524,75.338a2.692,2.692,0,0,1-1.4-.365,2.64,2.64,0,0,1-.971-.994,2.854,2.854,0,0,1-.355-1.421,2.96,2.96,0,0,1,.341-1.43,2.6,2.6,0,0,1,.929-1,2.537,2.537,0,0,1,1.361-.364,2.634,2.634,0,0,1,1.125.239,2.564,2.564,0,0,1,.9.721.275.275,0,0,1,.08.255.394.394,0,0,1-.17.234.3.3,0,0,1-.245.056.4.4,0,0,1-.235-.146,1.866,1.866,0,0,0-1.46-.66,1.793,1.793,0,0,0-.986.271,1.813,1.813,0,0,0-.659.74,2.376,2.376,0,0,0-.236,1.079,2.25,2.25,0,0,0,.25,1.07,1.866,1.866,0,0,0,.7.741,1.967,1.967,0,0,0,1.029.269,2.32,2.32,0,0,0,.716-.1,1.617,1.617,0,0,0,.574-.326.453.453,0,0,1,.25-.11.339.339,0,0,1,.241.08.388.388,0,0,1,.134.25.267.267,0,0,1-.094.24A2.586,2.586,0,0,1,297.524,75.338Z" />
				{{acc}}
			</g>
			<g id="pc" class="animated" style="animation-delay: 550ms;">
				<rect class="cls-7" x="335.979" y="58.386" width="46.957" height="3" />
				{{play-count}}
				<path class="cls-8" d="M337.742,75.289a.378.378,0,0,1-.39-.39v-7.03a.383.383,0,0,1,.11-.281.378.378,0,0,1,.28-.109h2a2.605,2.605,0,0,1,1.31.324,2.313,2.313,0,0,1,.889.9,2.644,2.644,0,0,1,.321,1.32,2.578,2.578,0,0,1-.321,1.295,2.325,2.325,0,0,1-.889.89,2.606,2.606,0,0,1-1.31.325h-1.61V74.9a.379.379,0,0,1-.39.39Zm.39-3.51h1.61a1.808,1.808,0,0,0,.909-.226,1.592,1.592,0,0,0,.625-.625,1.808,1.808,0,0,0,.226-.909,1.861,1.861,0,0,0-.226-.931,1.644,1.644,0,0,0-.625-.63,1.79,1.79,0,0,0-.909-.229h-1.61Z" />
				<path class="cls-8" d="M346.981,75.388a3.714,3.714,0,0,1-1.514-.309,3.871,3.871,0,0,1-1.24-.866,4.136,4.136,0,0,1-.84-4.38,3.929,3.929,0,0,1,.83-1.275,3.978,3.978,0,0,1,1.24-.864,3.7,3.7,0,0,1,1.524-.316,3.914,3.914,0,0,1,1.311.21,3.763,3.763,0,0,1,1.14.67.26.26,0,0,1,.1.165.311.311,0,0,1-.025.181.261.261,0,0,1-.12.125.177.177,0,0,1-.1.119.332.332,0,0,1-.186.03.383.383,0,0,1-.2-.089,2.649,2.649,0,0,0-.85-.5,3.143,3.143,0,0,0-1.071-.165,2.892,2.892,0,0,0-1.214.259,3.291,3.291,0,0,0-1,.71,3.357,3.357,0,0,0-.674,1.04,3.239,3.239,0,0,0-.245,1.25,3.289,3.289,0,0,0,.245,1.271,3.369,3.369,0,0,0,.674,1.04,3.208,3.208,0,0,0,1,.705,2.92,2.92,0,0,0,1.214.255,2.984,2.984,0,0,0,1.04-.181,3.49,3.49,0,0,0,.931-.519.311.311,0,0,1,.255-.08.407.407,0,0,1,.235.12.349.349,0,0,1,.1.26.42.42,0,0,1-.025.145.49.49,0,0,1-.085.135,2.963,2.963,0,0,1-1.14.665A4.4,4.4,0,0,1,346.981,75.388Z" />
			</g>
		</g>
	</g>
</svg>