<!-- Generated by osu-stats-signature -->
<!-- https://github.com/solstice23/osu-stats-signature -->
<svg xmlns="http://www.w3.org/2000/svg" xmlns:xlink="http://www.w3.org/1999/xlink" viewBox="0 0 400 120" width="{{width}}" height="{{height}}">
	<defs>
		<style>.cls-1{fill:none;}.cls-2,.cls-5{fill:{{hsl-b5}};}.cls-3{clip-path:url(#clip-path);}.cls-4{opacity:0.5;}.cls-5{opacity:0.9;}.cls-6{fill:{{hsl-b4}};opacity:0.6;}.cls-7{fill:#fc2;}.cls-8{fill:#fff;}.cls-9{fill:#b3d944;}.cls-10{fill:#ed1221;}.cls-11{fill:{{hsl-h1}};}.cls-12{clip-path:url(#clip-path-2);}</style>
		<clipPath id="clip-path">
			<path class="cls-1" d="M392,120H8a8.024,8.024,0,0,1-8-8V8A8.024,8.024,0,0,1,8,0H392a8.024,8.024,0,0,1,8,8V112A8.024,8.024,0,0,1,392,120Z" />
		</clipPath>
		<clipPath id="clip-path-2">
			<path class="cls-1" d="M102,105H20a4.012,4.012,0,0,1-4-4V19a4.012,4.012,0,0,1,4-4h82a4.012,4.012,0,0,1,4,4v82A4.012,4.012,0,0,1,102,105Z" />
		</clipPath>
		<style>
			@keyframes fadeDown{
				0%{
					opacity: 0;
					transform: translateY(-10px);
				}
				100%{
					opacity: 1;
					transform: translateY(0);
				}
			}
			#fg.animation-enabled .animated{
				opacity: 0;
				transform: translateY(-10px);
				animation: fadeDown .3s ease-in-out forwards;
			}
		</style>
	</defs>
	<g id="bg">
		<rect class="cls-2" width="400" height="120" rx="8" />
		<g id="head">
			<g class="cls-3">
				<image class="cls-4" width="400" height="120" xlink:href="{{user-cover-base64}}"/>
			</g>
			<path class="cls-5" d="M0,50v62a8.024,8.024,0,0,0,8,8H392a8.024,8.024,0,0,0,8-8V50Z" />
			<path class="cls-6" d="M392,0H8A8.024,8.024,0,0,0,0,8V50H400V8A8.024,8.024,0,0,0,392,0Z" />
		</g>
	</g>
	<g id="fg" class="{{fg-extra-class}}">
		<g id="userinfo">
			<g id="avatar" class="animated" style="animation-delay: 250ms;">
				<g class="cls-12">
					<image width="256" height="256" transform="translate(16 15) scale(0.352)" xlink:href="{{avatar-base64}}" />
				</g>
			</g>
			<g class="animated" style="animation-delay: 290ms;">
				{{name}}
			</g>
			<g class="animated" style="animation-delay: 330ms;">
				{{flag}}
				{{country-ranking}}
			</g>
			<g class="animated" style="animation-delay: 370ms;">
				{{playmode-icon}}
				{{level}}
			</g>
		</g>
		<g id="details">
			<g id="ranking" class="animated" style="animation-delay: 430ms;">
				<rect class="cls-11" x="120.013" y="57.748" width="85" height="3" />
				<path class="cls-8" d="M127.954,73.386v1.859h3.226v.792h-3.226v1.955H132.6v.816H122.461v-.816h4.581V76.037H123.96v-.792h3.082V73.386h-3.154v-.779a12.768,12.768,0,0,1-1.4.815,3.232,3.232,0,0,0-.624-.731,13.611,13.611,0,0,0,5.553-4.629l.792.359-.216.324a17.137,17.137,0,0,0,5.181,3.97,2.7,2.7,0,0,0-.624.755c-.467-.287-.923-.563-1.367-.863v.779Zm3.19-.8a18.153,18.153,0,0,1-3.646-3.19,15.421,15.421,0,0,1-3.574,3.19Z" />
				<path class="cls-8" d="M137.975,76.672c-1.331.42-2.746.864-3.826,1.224l-.192-.864c.432-.119.972-.276,1.571-.455v-3.3h-1.343v-.839h1.343v-2.6h-1.439V69h3.658v.839h-1.379v2.6h1.211v.839h-1.211v3.047l1.475-.468Zm6.812-4.485a26.169,26.169,0,0,1-2.087,2.579,6.863,6.863,0,0,0,2.447,2.842,2.058,2.058,0,0,0-.564.672,7.577,7.577,0,0,1-2.77-3.61v3.358c0,.539-.144.791-.468.935a4.679,4.679,0,0,1-1.823.192,3.63,3.63,0,0,0-.324-.863c.7.023,1.307.012,1.488.012s.263-.072.263-.276V75.2c-.983,1-2,1.979-2.818,2.747l-.552-.768c.816-.671,2.135-1.847,3.37-2.962V71.1h-2.9v-.828h2.9V68.193h.864v2.075h3.142V71.1h-3.142v.431a14.982,14.982,0,0,0,.587,2.507,17.484,17.484,0,0,0,1.608-2.267Zm-5.876-.348a9.557,9.557,0,0,1,1.307,2.219l-.732.348a10.362,10.362,0,0,0-1.271-2.243Zm4.893-1.727a6.892,6.892,0,0,0-1.415-1.319l.515-.468a8.581,8.581,0,0,1,1.439,1.247Z" />
				<path class="cls-8" d="M150,74.25c-.48.132-.959.276-1.427.42v3.346c0,.492-.108.719-.408.851a3.492,3.492,0,0,1-1.475.168,3.784,3.784,0,0,0-.264-.815c.492.012.948.012,1.079.012.156,0,.2-.048.2-.2V74.921l-1.475.444-.18-.887c.456-.108,1.031-.252,1.655-.432V71.432H146.2v-.84h1.511v-2.4h.864v2.4h1.283v.84h-1.283v2.374l1.307-.371Zm2.1-5.973h.863V79.131H152.1V75.989h-2.027v-.816H152.1V73.494h-1.739V72.7H152.1V71.036h-1.775v-.8H152.1Zm4.881,7.748H154.9v3.118h-.851V68.265h.851v1.967h1.955v.8H154.9V72.7h1.847v.791H154.9v1.715h2.075Z" />
				<path class="cls-8" d="M167.66,79.131h-.911v-.623h-5.326v.623h-.875V75.186c-.66.227-1.332.419-1.991.575a2.5,2.5,0,0,0-.456-.816,16.74,16.74,0,0,0,4.414-1.583,22.105,22.105,0,0,0-1.823-1.475l.671-.515a22.841,22.841,0,0,1,1.979,1.511,9.636,9.636,0,0,0,2.939-2.687h-4.438A12.114,12.114,0,0,1,159,72.223a2.956,2.956,0,0,0-.611-.672,9.861,9.861,0,0,0,4.006-3.405l.995.215a9.363,9.363,0,0,1-.779,1.019h4.245l.144-.047.6.372a10.878,10.878,0,0,1-4.7,4.437h4.762Zm-.911-1.439V74.97h-5.326v2.722Z" />
				{{global-ranking}}
			</g>
			<g id="pp" class="animated" style="animation-delay: 470ms;">
				<rect class="cls-10" x="226.063" y="58.352" width="46.957" height="3" />
				<path class="cls-8" d="M227.727,76.594a.361.361,0,0,1-.391-.389v-4.72a2.813,2.813,0,0,1,.375-1.405,2.678,2.678,0,0,1,.991-.986,2.758,2.758,0,0,1,1.4-.359,2.8,2.8,0,0,1,1.431.364,2.7,2.7,0,0,1,1,.995,2.8,2.8,0,0,1,.364,1.43,2.854,2.854,0,0,1-.354,1.421,2.662,2.662,0,0,1-.965.994,2.632,2.632,0,0,1-1.381.365,2.586,2.586,0,0,1-1.215-.285,2.41,2.41,0,0,1-.875-.755v2.941a.387.387,0,0,1-.1.285A.372.372,0,0,1,227.727,76.594Zm2.379-2.99a2.013,2.013,0,0,0,1.04-.27,1.94,1.94,0,0,0,.726-.745,2.281,2.281,0,0,0,0-2.134,1.982,1.982,0,0,0-1.766-1.021,1.966,1.966,0,0,0-1.75,1.021,2.327,2.327,0,0,0,0,2.134,1.906,1.906,0,0,0,.721.745A1.994,1.994,0,0,0,230.106,73.6Z" />
				<path class="cls-8" d="M234.8,76.594a.361.361,0,0,1-.39-.389v-4.72a2.813,2.813,0,0,1,.375-1.405,2.668,2.668,0,0,1,.99-.986,2.764,2.764,0,0,1,1.405-.359,2.8,2.8,0,0,1,1.43.364,2.7,2.7,0,0,1,1,.995,2.8,2.8,0,0,1,.364,1.43,2.844,2.844,0,0,1-.355,1.421,2.629,2.629,0,0,1-2.345,1.359,2.586,2.586,0,0,1-1.215-.285,2.4,2.4,0,0,1-.875-.755v2.941a.387.387,0,0,1-.1.285A.374.374,0,0,1,234.8,76.594Zm2.38-2.99a2.013,2.013,0,0,0,1.04-.27,1.93,1.93,0,0,0,.725-.745,2.273,2.273,0,0,0,0-2.134,2.046,2.046,0,0,0-2.8-.746,1.969,1.969,0,0,0-.72.746,2.327,2.327,0,0,0,0,2.134,1.911,1.911,0,0,0,.72.745A2,2,0,0,0,237.176,73.6Z" />
				{{pp}}
			</g>
			<g id="acc" class="animated" style="animation-delay: 510ms;">
				<rect class="cls-9" x="281.021" y="58.386" width="46.957" height="3" />
				<path class="cls-8" d="M283.253,69.921a16.411,16.411,0,0,0-1.349-2.249l.66-.3a16.413,16.413,0,0,1,1.379,2.178Zm-1.339,5.308a27.311,27.311,0,0,0,1.509-3.328l.67.359c-.42,1.11-.969,2.379-1.429,3.328Zm8.975.119h-5.137v.71h-.7V70.242a8.641,8.641,0,0,1-.98,1.249,3.478,3.478,0,0,0-.55-.53,9.947,9.947,0,0,0,2.339-3.948l.68.18a13.5,13.5,0,0,1-.62,1.519H288.2a8.241,8.241,0,0,0-.75-1.429l.63-.29a7.4,7.4,0,0,1,.779,1.4l-.619.32h2.448v.65h-2.118v1.319h1.919v.659h-1.919v1.32h1.908v.66h-1.908v1.348h2.318Zm-3.048-5.986h-2.089v1.319h2.089Zm0,1.978h-2.089v1.32h2.089Zm-2.089,3.328h2.089V73.32h-2.089Z" />
				<path class="cls-8" d="M293.284,74.8v.8h-.64V71.991a5.352,5.352,0,0,1-.52.809,4.7,4.7,0,0,0-.34-.79,9.691,9.691,0,0,0,1.4-3.868h-1.19v-.689h3.328v.689h-1.439a17.2,17.2,0,0,1-.61,2.379h1.74V74.8Zm0-3.618v2.948h1.1V71.181Zm7.345,3.978c0,.389-.08.58-.329.689a3.515,3.515,0,0,1-1.29.12,2.325,2.325,0,0,0-.19-.66c.43.021.83.021.94.011s.16-.04.16-.17v-1.51h-1.429v2.049h-.67V73.639h-1.409a4.489,4.489,0,0,1-1.09,2.429,2.476,2.476,0,0,0-.57-.42,4.968,4.968,0,0,0,1.08-3.548V70.072c-.17.189-.33.359-.5.519a3.8,3.8,0,0,0-.45-.559,7.777,7.777,0,0,0,2.029-3.139l.649.17c-.09.24-.18.46-.28.689h1.9l.11-.029.47.319a8.382,8.382,0,0,1-.949,1.419h1.818Zm-3.657-6.777a8.915,8.915,0,0,1-.66,1.079h1.709a7.136,7.136,0,0,0,.729-1.079Zm.849,4.608V71.8h-1.3v.3c0,.28-.009.59-.029.89Zm-1.3-1.789h1.3V70.1h-1.3Zm3.4-1.1h-1.429v1.1h1.429Zm0,2.889V71.8h-1.429v1.19Z" />
				<path class="cls-8" d="M310.849,73.95h-4.068v2.108H306V73.95h-4.058v-.691H306V72.44h.779v.819h4.068Zm-6.256-2.6c-.76.409-1.57.839-2.23,1.169l-.369-.6c.619-.25,1.549-.689,2.448-1.119Zm3.418,1.229a2.483,2.483,0,0,0-.27-.53,14.886,14.886,0,0,0-3.148.4,6.493,6.493,0,0,0-.22-.65,2.064,2.064,0,0,0,.829-.489c.19-.16.62-.55,1.1-1.04a6.035,6.035,0,0,0-1.52.2,3.605,3.605,0,0,0-.21-.63.769.769,0,0,0,.441-.319,6.907,6.907,0,0,0,.769-1.02h-3.638v-.679h4.068c-.13-.25-.311-.55-.46-.78l.72-.19a6.027,6.027,0,0,1,.59.97h3.708V68.5h-4.208a11.106,11.106,0,0,1-.95,1.219l1.269-.079a9.134,9.134,0,0,0,.67-.83l.609.35a19.6,19.6,0,0,1-2.518,2.489l1.749-.141c-.16-.219-.329-.449-.49-.639l.55-.23a7.589,7.589,0,0,1,1.15,1.679Zm-5.228-3.668a8.828,8.828,0,0,1,1.52,1.13l-.52.45a8.091,8.091,0,0,0-1.5-1.17ZM310.1,72.62a12.67,12.67,0,0,0-1.959-1.4l.529-.4a12.459,12.459,0,0,1,1.979,1.359Zm.17-3.358a10.447,10.447,0,0,1-1.49,1.249l-.54-.349a8.622,8.622,0,0,0,1.409-1.28Z" />
				{{acc}}
			</g>
			<g id="pc" class="animated" style="animation-delay: 550ms;">
				<rect class="cls-7" x="335.979" y="58.386" width="46.957" height="3" />
				{{play-count}}
				<path class="cls-8" d="M338.411,71.231a12.6,12.6,0,0,0-1.649-.98l.42-.54a14.447,14.447,0,0,1,1.648.92Zm.369,1.5c-.33,1.029-.779,2.269-1.169,3.188l-.67-.37a31.794,31.794,0,0,0,1.24-3.208Zm-.08-4.078a11.478,11.478,0,0,0-1.539-1.089l.43-.51a12.347,12.347,0,0,1,1.559,1.01Zm3.448,2.009s-.009.24-.009.339c-.09,3.2-.17,4.289-.41,4.619a.761.761,0,0,1-.58.319,8.541,8.541,0,0,1-1.019,0,1.877,1.877,0,0,0-.191-.68,8.7,8.7,0,0,0,.89.04.314.314,0,0,0,.311-.13c.149-.21.239-1.159.309-3.817h-.989a7.894,7.894,0,0,1-1.55,4.7,1.966,1.966,0,0,0-.529-.469c1.3-1.37,1.429-3.888,1.489-6.337h-.93v-.709h3.489v.709H340.56c-.021.479-.031.949-.06,1.419Zm-1.5-2.139a7.512,7.512,0,0,0-.829-1.329l.669-.279a7.143,7.143,0,0,1,.86,1.289Zm5.288,4.538h-1.4v2.158c0,.4-.069.6-.349.71a4.034,4.034,0,0,1-1.39.13,3.62,3.62,0,0,0-.209-.689,9.549,9.549,0,0,0,1.079,0c.14,0,.18-.031.18-.151V73.06h-1.53v-.67h1.53v-.959a5.181,5.181,0,0,0,.849-.73h-1.888v-.619c-.051.089-.111.169-.161.25a4.111,4.111,0,0,0-.629-.38,7.228,7.228,0,0,0,1.129-3.019l.709.11c-.08.419-.179.82-.279,1.209h2.349v.7h-2.589a7.843,7.843,0,0,1-.51,1.09h2.459l.13-.041.46.321a7.466,7.466,0,0,1-1.34,1.348v.72h1.4Z" />
				<path class="cls-8" d="M350.16,74.579a17.047,17.047,0,0,0-.97-1.629,7.214,7.214,0,0,1-1.979,2.369,2.822,2.822,0,0,0-.539-.611,6.487,6.487,0,0,0,2.049-2.488c-.55-.84-1.17-1.719-1.72-2.459l.53-.419c.49.64,1.03,1.389,1.549,2.118a13.491,13.491,0,0,0,.76-2.718h-2.929v-.669h3.129l.12-.031.48.161a14.339,14.339,0,0,1-1.06,3.977c.48.71.9,1.36,1.18,1.869Zm5.147-3.718a10.362,10.362,0,0,1-1.729,2.938c.31.83.72,1.329,1.209,1.379.25.021.4-.529.5-1.6a2.1,2.1,0,0,0,.609.4c-.2,1.649-.6,2.129-1.079,2.1-.8-.061-1.389-.661-1.829-1.64a8.254,8.254,0,0,1-1.749,1.369,2.416,2.416,0,0,0-.59-.55,7.416,7.416,0,0,0,2.07-1.558,18.758,18.758,0,0,1-.64-3.368l-1.35.149-.089-.68,1.388-.159c-.079-.83-.13-1.72-.17-2.649h.76c.03.889.08,1.759.151,2.558l2.908-.329.09.68-2.929.34a17.436,17.436,0,0,0,.48,2.748,9.839,9.839,0,0,0,1.41-2.489Zm-.53-2.059a8.978,8.978,0,0,0-1.369-1.389l.52-.39a7.693,7.693,0,0,1,1.388,1.329Z" />
				<path class="cls-8" d="M359.44,71.991c-.58,1.019-1.329,2.169-1.959,3.048l-.669-.51a30.051,30.051,0,0,0,2.058-3.019Zm-.57-2.459a10.292,10.292,0,0,0-1.908-1.39l.439-.529a9.819,9.819,0,0,1,1.95,1.309Zm3.948.929c0,.22-.009.46-.02.709.45,2,1.39,3.538,3.129,4.168a2.238,2.238,0,0,0-.5.64,5.194,5.194,0,0,1-2.889-3.368,5.785,5.785,0,0,1-3.2,3.478,3.359,3.359,0,0,0-.56-.58,5.1,5.1,0,0,0,3.259-5.056v-.62h.779Zm-1.789-1.109a9.09,9.09,0,0,1-1.059,2.089,4.374,4.374,0,0,0-.71-.4,9.981,9.981,0,0,0,1.63-4.108l.8.14c-.119.53-.259,1.05-.409,1.55h3.668l.13-.04.55.29a13.431,13.431,0,0,1-1.05,2.7c-.149-.08-.439-.231-.609-.31a11.94,11.94,0,0,0,.729-1.909Z" />
				<path class="cls-8" d="M368.94,70.051a6.3,6.3,0,0,1-1.758,1.459,2.365,2.365,0,0,0-.4-.559,5.15,5.15,0,0,0,1.93-1.559h-1.829v-.62h2.058V66.923h.69v1.849h2.039v.62H369.79c.5.29,1.359.85,1.589,1.02l-.409.539a15.665,15.665,0,0,0-1.34-1.06v1.37h-.69Zm1.549,5.278a8.031,8.031,0,0,0-.869-.56,6.622,6.622,0,0,1-2.469,1.2,2.422,2.422,0,0,0-.349-.569,6.164,6.164,0,0,0,2.219-.96,13.543,13.543,0,0,0-1.53-.689,10.971,10.971,0,0,0,.64-1.06h-1.039v-.63h1.348a6.147,6.147,0,0,0,.26-.64l.66.121c-.07.169-.13.339-.21.519h1.629l.111-.029.42.17a5.232,5.232,0,0,1-1.2,2.118,9.183,9.183,0,0,1,.84.519ZM367.881,68.7a5.109,5.109,0,0,0-.619-1.31l.539-.22a4.564,4.564,0,0,1,.649,1.289Zm.96,3.987c-.151.28-.3.56-.441.79.371.159.77.35,1.13.529a3.812,3.812,0,0,0,.93-1.319Zm2.568-5.3a13.522,13.522,0,0,1-.889,1.279l-.48-.23a8.653,8.653,0,0,0,.749-1.329Zm3.718,2.149a12.275,12.275,0,0,1-1.09,3.757,5.089,5.089,0,0,0,1.989,2.089,2.467,2.467,0,0,0-.489.58,5.524,5.524,0,0,1-1.89-2,6.487,6.487,0,0,1-2.368,2.119,2.872,2.872,0,0,0-.41-.6,5.541,5.541,0,0,0,2.419-2.209,12.114,12.114,0,0,1-.88-2.669,7.528,7.528,0,0,1-.679,1.309,4.321,4.321,0,0,0-.56-.45,10.536,10.536,0,0,0,1.459-4.447l.68.1a15.854,15.854,0,0,1-.34,1.728h2.819v.69Zm-2.309,0a13.735,13.735,0,0,0,.85,2.988,11.345,11.345,0,0,0,.749-2.988Z" />
			</g>
		</g>
	</g>
</svg>