<?xml version="1.0" encoding="utf-8"?>
<!-- Generator: Adobe Illustrator 24.3.0, SVG Export Plug-In . SVG Version: 6.00 Build 0)  -->
<svg version="1.1" id="LOGO_LAYER" xmlns="http://www.w3.org/2000/svg" xmlns:xlink="http://www.w3.org/1999/xlink" x="0px" y="0px"
	 viewBox="0 0 500 500" enable-background="new 0 0 500 500" xml:space="preserve">
<g>
	<path fill="none" d="M225,153.2c-43.1,11.1-75,50.3-75,96.8c0,46.5,31.9,85.7,75,96.8V153.2z"/>
	<path fill="none" d="M275,153.2v193.7c43.1-11.1,75-50.3,75-96.8C350,203.5,318.1,164.3,275,153.2z"/>
	<path fill="#FFFFFF" d="M250,100c-82.8,0-150,67.2-150,150s67.2,150,150,150s150-67.2,150-150S332.8,100,250,100z M150,250
		c0-46.5,31.9-85.7,75-96.8v193.7C181.9,335.7,150,296.5,150,250z M275,346.8V153.2c43.1,11.1,75,50.3,75,96.8
		C350,296.5,318.1,335.7,275,346.8z"/>
</g>
<g>
	<path fill="#FFFFFF" d="M250,55c107.7,0,195,87.3,195,195s-87.3,195-195,195c-107.7,0-195-87.3-195-195S142.3,55,250,55 M250,15
		c-31.7,0-62.5,6.2-91.5,18.5c-28,11.8-53.1,28.8-74.7,50.3c-21.6,21.6-38.5,46.7-50.3,74.7C21.2,187.5,15,218.3,15,250
		s6.2,62.5,18.5,91.5c11.8,28,28.8,53.1,50.3,74.7c21.6,21.6,46.7,38.5,74.7,50.3c29,12.3,59.8,18.5,91.5,18.5s62.5-6.2,91.5-18.5
		c28-11.8,53.1-28.8,74.7-50.3c21.6-21.6,38.5-46.7,50.3-74.7c12.3-29,18.5-59.8,18.5-91.5s-6.2-62.5-18.5-91.5
		c-11.8-28-28.8-53.1-50.3-74.7c-21.6-21.6-46.7-38.5-74.7-50.3C312.5,21.2,281.7,15,250,15L250,15z"/>
</g>
</svg>
