<svg version="1.1" xmlns="http://www.w3.org/2000/svg" xmlns:xlink="http://www.w3.org/1999/xlink" x="0px" y="0px"
	 viewBox="0 0 186.1 100" style="enable-background:new 0 0 186.1 100;" xml:space="preserve">
	<path fill="#FF66AB" d="M186.2,50c0-26.9-21.3-48.9-47.9-49.9V0h-2.1h-26.3H76.3H58.5H50C22.4,0,0,22.4,0,50s22.4,50,50,50h8.5h17.8
	h33.5h26.3h2.1v-0.1C164.9,98.9,186.2,76.9,186.2,50z"/>
	<path fill="#FFFFFF" d="M63.1,76.8c-0.6,0-1.1-0.2-1.5-0.6L40.7,56c-0.2-0.2-0.5-0.5-0.9-0.9s-1-1.1-1.9-2.2c-0.8-1.1-1.6-2.2-2.3-3.3
		s-1.3-2.5-1.8-4.1S33,42.4,33,40.9c0-4.9,1.4-8.8,4.3-11.5s6.8-4.2,11.8-4.2c1.4,0,2.8,0.2,4.2,0.7s2.8,1.1,4,1.9s2.3,1.6,3.2,2.3
		c0.9,0.7,1.7,1.5,2.5,2.3c0.8-0.8,1.7-1.6,2.5-2.3c0.9-0.7,2-1.5,3.2-2.3s2.6-1.5,4-1.9c1.4-0.5,2.9-0.7,4.2-0.7
		c5,0,8.9,1.4,11.8,4.2S93,36,93,40.9s-2.6,10-7.7,15.1L64.6,76.2C64.2,76.6,63.7,76.8,63.1,76.8z"/>
	<path fill="#FFFFFF" d="M123.1,76.8c-0.6,0-1.1-0.2-1.5-0.6L100.7,56c-0.2-0.2-0.5-0.5-0.9-0.9c-0.4-0.4-1-1.1-1.9-2.2
		c-0.8-1.1-1.6-2.2-2.3-3.3s-1.3-2.5-1.8-4.1S93,42.4,93,40.9c0-4.9,1.4-8.8,4.3-11.5c2.9-2.7,6.8-4.2,11.8-4.2
		c1.4,0,2.8,0.2,4.2,0.7c1.4,0.5,2.8,1.1,4,1.9c1.2,0.8,2.3,1.6,3.2,2.3c0.9,0.7,1.7,1.5,2.5,2.3c0.8-0.8,1.7-1.6,2.5-2.3
		c0.9-0.7,2-1.5,3.2-2.3s2.6-1.5,4-1.9c1.4-0.5,2.9-0.7,4.2-0.7c5,0,8.9,1.4,11.8,4.2S153,36,153,40.9s-2.6,10-7.7,15.1l-20.7,20.2
		C124.2,76.6,123.7,76.8,123.1,76.8z"/>
</svg>
