<svg version="1.1" xmlns="http://www.w3.org/2000/svg" xmlns:xlink="http://www.w3.org/1999/xlink" x="0px" y="0px"
	 viewBox="0 0 126.3 100" style="enable-background:new 0 0 126.3 100;" xml:space="preserve">
	<path fill="#FF66AB" d="M76.3,0H50C22.4,0,0,22.4,0,50c0,27.6,22.4,50,50,50h26.3c27.6,0,50-22.4,50-50C126.3,22.4,103.9,0,76.3,0z"/>
	<path fill="#FFFFFF" d="M63.1,76.8c-0.6,0-1.1-0.2-1.5-0.6L40.7,56c-0.2-0.2-0.5-0.5-0.9-0.9c-0.4-0.4-1-1.1-1.9-2.2
		c-0.8-1.1-1.6-2.2-2.3-3.3s-1.3-2.5-1.8-4.1c-0.5-1.6-0.8-3.1-0.8-4.6c0-4.9,1.4-8.8,4.3-11.5s6.8-4.2,11.8-4.2
		c1.4,0,2.8,0.2,4.2,0.7c1.4,0.5,2.8,1.1,4,1.9c1.2,0.8,2.3,1.6,3.2,2.3c0.9,0.7,1.7,1.5,2.5,2.3c0.8-0.8,1.7-1.6,2.5-2.3
		c0.9-0.7,2-1.5,3.2-2.3c1.2-0.8,2.6-1.5,4-1.9c1.4-0.5,2.9-0.7,4.2-0.7c5,0,8.9,1.4,11.8,4.2s4.3,6.6,4.3,11.5
		c0,4.9-2.6,10-7.7,15.1L64.6,76.2C64.2,76.6,63.7,76.8,63.1,76.8z"/>
</svg>
